solid OpenSCAD_Model
  facet normal -1 0 0
    outer loop
      vertex -48 -24 -3.15
      vertex -48 -24 3.15
      vertex -48 -18 -3.15
    endloop
  endfacet
  facet normal -1 0 0
    outer loop
      vertex -48 -18 -3.15
      vertex -48 -24 3.15
      vertex -48 -18 3.15
    endloop
  endfacet
  facet normal 0 -1 0
    outer loop
      vertex -48 -24 3.15
      vertex -48 -24 -3.15
      vertex -42 -24 -3.15
    endloop
  endfacet
  facet normal 0 -1 0
    outer loop
      vertex -42 -24 3.15
      vertex -48 -24 3.15
      vertex -42 -24 -3.15
    endloop
  endfacet
  facet normal 0 0 -1
    outer loop
      vertex -48 -24 -3.15
      vertex -48 -18 -3.15
      vertex -42 -24 -3.15
    endloop
  endfacet
  facet normal 0 0 -1
    outer loop
      vertex 34 4.15 -3.15
      vertex 19 0 -3.15
      vertex 18.5848 3.95032 -3.15
    endloop
  endfacet
  facet normal 0 0 -1
    outer loop
      vertex -42 -24 -3.15
      vertex -48 -18 -3.15
      vertex -42 -18 -3.15
    endloop
  endfacet
  facet normal 0 0 -1
    outer loop
      vertex -42 -18 -3.15
      vertex -42 -2 -3.15
      vertex -38 -2 -3.15
    endloop
  endfacet
  facet normal 0 0 -1
    outer loop
      vertex -42 -18 -3.15
      vertex -38 -2 -3.15
      vertex -42 -24 -3.15
    endloop
  endfacet
  facet normal 0 0 -1
    outer loop
      vertex -42 -24 -3.15
      vertex -38 -2 -3.15
      vertex -38 -4.15 -3.15
    endloop
  endfacet
  facet normal 0 0 -1
    outer loop
      vertex -42 -24 -3.15
      vertex -38 -4.15 -3.15
      vertex -34 -4.15 -3.15
    endloop
  endfacet
  facet normal 0 0 -1
    outer loop
      vertex -42 18 -3.15
      vertex -42 2 -3.15
      vertex -42 1.33227e-15 -3.15
    endloop
  endfacet
  facet normal 0 0 -1
    outer loop
      vertex -38 4.15 -3.15
      vertex -42 18 -3.15
      vertex -34 4.15 -3.15
    endloop
  endfacet
  facet normal 0 0 -1
    outer loop
      vertex 42 2 -3.15
      vertex 38 2 -3.15
      vertex 38 4.15 -3.15
    endloop
  endfacet
  facet normal 0 0 -1
    outer loop
      vertex -42 2 -3.15
      vertex -42 18 -3.15
      vertex -38 4.15 -3.15
    endloop
  endfacet
  facet normal 0 0 -1
    outer loop
      vertex -42 18 -3.15
      vertex -48 18 -3.15
      vertex -48 24 -3.15
    endloop
  endfacet
  facet normal 0 0 -1
    outer loop
      vertex -42 18 -3.15
      vertex -48 24 -3.15
      vertex -42 24 -3.15
    endloop
  endfacet
  facet normal 0 0 -1
    outer loop
      vertex -42 18 -3.15
      vertex -42 24 -3.15
      vertex -34 4.15 -3.15
    endloop
  endfacet
  facet normal 0 0 -1
    outer loop
      vertex -42 24 -3.15
      vertex -42 28.5 -3.15
      vertex -34 4.15 -3.15
    endloop
  endfacet
  facet normal 0 0 -1
    outer loop
      vertex 5.87132 18.0701 -3.15
      vertex -42 28.5 -3.15
      vertex 42 28.5 -3.15
    endloop
  endfacet
  facet normal 0 0 -1
    outer loop
      vertex 15.3713 11.1679 -3.15
      vertex 42 28.5 -3.15
      vertex 42 24 -3.15
    endloop
  endfacet
  facet normal 0 0 -1
    outer loop
      vertex 17.3574 7.728 -3.15
      vertex 42 24 -3.15
      vertex 48 24 -3.15
    endloop
  endfacet
  facet normal 0 0 -1
    outer loop
      vertex 42 18 -3.15
      vertex 48 24 -3.15
      vertex 48 18 -3.15
    endloop
  endfacet
  facet normal 0 0 -1
    outer loop
      vertex 5.87132 18.0701 -3.15
      vertex 42 28.5 -3.15
      vertex 9.5 16.4545 -3.15
    endloop
  endfacet
  facet normal 0 0 -1
    outer loop
      vertex 19 0 -3.15
      vertex 34 4.15 -3.15
      vertex 18.5848 -3.95032 -3.15
    endloop
  endfacet
  facet normal 0 0 -1
    outer loop
      vertex 15.3713 11.1679 -3.15
      vertex 42 24 -3.15
      vertex 17.3574 7.728 -3.15
    endloop
  endfacet
  facet normal 0 0 -1
    outer loop
      vertex -9.5 -16.4545 -3.15
      vertex -42 -24 -3.15
      vertex -12.7135 -14.1198 -3.15
    endloop
  endfacet
  facet normal 0 0 -1
    outer loop
      vertex 42 -2 -3.15
      vertex 38 -4.15 -3.15
      vertex 38 -2 -3.15
    endloop
  endfacet
  facet normal 0 0 -1
    outer loop
      vertex 42 -18 -3.15
      vertex 42 -2 -3.15
      vertex 42 -1.33227e-15 -3.15
    endloop
  endfacet
  facet normal 0 0 -1
    outer loop
      vertex 1.98604 -18.8959 -3.15
      vertex 42 -18 -3.15
      vertex -42 -24 -3.15
    endloop
  endfacet
  facet normal 0 0 -1
    outer loop
      vertex -19 0 -3.15
      vertex -34 -4.15 -3.15
      vertex -18.5848 3.95032 -3.15
    endloop
  endfacet
  facet normal 0 0 -1
    outer loop
      vertex 42 -2 -3.15
      vertex 42 -18 -3.15
      vertex 38 -4.15 -3.15
    endloop
  endfacet
  facet normal 0 0 -1
    outer loop
      vertex 42 -18 -3.15
      vertex 48 -18 -3.15
      vertex -42 -24 -3.15
    endloop
  endfacet
  facet normal 0 0 -1
    outer loop
      vertex 42 -24 -3.15
      vertex 48 -18 -3.15
      vertex 48 -24 -3.15
    endloop
  endfacet
  facet normal 0 0 -1
    outer loop
      vertex -42 -24 -3.15
      vertex 48 -18 -3.15
      vertex 42 -24 -3.15
    endloop
  endfacet
  facet normal 0 0 -1
    outer loop
      vertex -42 2 -3.15
      vertex -38 4.15 -3.15
      vertex -38 2 -3.15
    endloop
  endfacet
  facet normal 0 0 -1
    outer loop
      vertex 42 -24 -3.15
      vertex 42 -28.5 -3.15
      vertex -42 -24 -3.15
    endloop
  endfacet
  facet normal 0 0 -1
    outer loop
      vertex -15.3713 -11.1679 -3.15
      vertex -42 -24 -3.15
      vertex -17.3574 -7.728 -3.15
    endloop
  endfacet
  facet normal 0 0 -1
    outer loop
      vertex -34 -4.15 -3.15
      vertex -19 0 -3.15
      vertex -42 -24 -3.15
    endloop
  endfacet
  facet normal 0 0 -1
    outer loop
      vertex 9.5 16.4545 -3.15
      vertex 42 28.5 -3.15
      vertex 12.7135 14.1198 -3.15
    endloop
  endfacet
  facet normal 0 0 -1
    outer loop
      vertex -19 0 -3.15
      vertex -18.5848 -3.95032 -3.15
      vertex -42 -24 -3.15
    endloop
  endfacet
  facet normal 0 0 -1
    outer loop
      vertex -18.5848 -3.95032 -3.15
      vertex -17.3574 -7.728 -3.15
      vertex -42 -24 -3.15
    endloop
  endfacet
  facet normal 0 0 -1
    outer loop
      vertex -12.7135 -14.1198 -3.15
      vertex -42 -24 -3.15
      vertex -15.3713 -11.1679 -3.15
    endloop
  endfacet
  facet normal 0 0 -1
    outer loop
      vertex 17.3574 -7.728 -3.15
      vertex 38 -4.15 -3.15
      vertex 15.3713 -11.1679 -3.15
    endloop
  endfacet
  facet normal 0 0 -1
    outer loop
      vertex 5.87132 -18.0701 -3.15
      vertex 42 -18 -3.15
      vertex 1.98604 -18.8959 -3.15
    endloop
  endfacet
  facet normal 0 0 -1
    outer loop
      vertex -9.5 -16.4545 -3.15
      vertex -5.87132 -18.0701 -3.15
      vertex -42 -24 -3.15
    endloop
  endfacet
  facet normal 0 0 -1
    outer loop
      vertex 9.5 -16.4545 -3.15
      vertex 42 -18 -3.15
      vertex 5.87132 -18.0701 -3.15
    endloop
  endfacet
  facet normal 0 0 -1
    outer loop
      vertex -5.87132 -18.0701 -3.15
      vertex -1.98604 -18.8959 -3.15
      vertex -42 -24 -3.15
    endloop
  endfacet
  facet normal 0 0 -1
    outer loop
      vertex -1.98604 -18.8959 -3.15
      vertex 1.98604 -18.8959 -3.15
      vertex -42 -24 -3.15
    endloop
  endfacet
  facet normal 0 0 -1
    outer loop
      vertex 38 -4.15 -3.15
      vertex 42 -18 -3.15
      vertex 9.5 -16.4545 -3.15
    endloop
  endfacet
  facet normal 0 0 -1
    outer loop
      vertex 38 -4.15 -3.15
      vertex 9.5 -16.4545 -3.15
      vertex 12.7135 -14.1198 -3.15
    endloop
  endfacet
  facet normal 0 0 -1
    outer loop
      vertex 38 -4.15 -3.15
      vertex 12.7135 -14.1198 -3.15
      vertex 15.3713 -11.1679 -3.15
    endloop
  endfacet
  facet normal 0 0 -1
    outer loop
      vertex 17.3574 7.728 -3.15
      vertex 48 24 -3.15
      vertex 42 18 -3.15
    endloop
  endfacet
  facet normal 0 0 -1
    outer loop
      vertex 17.3574 -7.728 -3.15
      vertex 34 -4.15 -3.15
      vertex 38 -4.15 -3.15
    endloop
  endfacet
  facet normal 0 0 -1
    outer loop
      vertex 34 -4.15 -3.15
      vertex 18.5848 -3.95032 -3.15
      vertex 34 4.15 -3.15
    endloop
  endfacet
  facet normal 0 0 -1
    outer loop
      vertex 18.5848 -3.95032 -3.15
      vertex 34 -4.15 -3.15
      vertex 17.3574 -7.728 -3.15
    endloop
  endfacet
  facet normal 0 0 -1
    outer loop
      vertex 17.3574 7.728 -3.15
      vertex 42 18 -3.15
      vertex 18.5848 3.95032 -3.15
    endloop
  endfacet
  facet normal 0 0 -1
    outer loop
      vertex 12.7135 14.1198 -3.15
      vertex 42 28.5 -3.15
      vertex 15.3713 11.1679 -3.15
    endloop
  endfacet
  facet normal 0 0 -1
    outer loop
      vertex 1.98604 18.8959 -3.15
      vertex -42 28.5 -3.15
      vertex 5.87132 18.0701 -3.15
    endloop
  endfacet
  facet normal 0 0 -1
    outer loop
      vertex -12.7135 14.1198 -3.15
      vertex -34 4.15 -3.15
      vertex -9.5 16.4545 -3.15
    endloop
  endfacet
  facet normal 0 0 -1
    outer loop
      vertex -1.98604 18.8959 -3.15
      vertex -42 28.5 -3.15
      vertex 1.98604 18.8959 -3.15
    endloop
  endfacet
  facet normal 0 0 -1
    outer loop
      vertex -5.87132 18.0701 -3.15
      vertex -42 28.5 -3.15
      vertex -1.98604 18.8959 -3.15
    endloop
  endfacet
  facet normal 0 0 -1
    outer loop
      vertex -9.5 16.4545 -3.15
      vertex -42 28.5 -3.15
      vertex -5.87132 18.0701 -3.15
    endloop
  endfacet
  facet normal 0 0 -1
    outer loop
      vertex -34 4.15 -3.15
      vertex -42 28.5 -3.15
      vertex -9.5 16.4545 -3.15
    endloop
  endfacet
  facet normal 0 0 -1
    outer loop
      vertex -15.3713 11.1679 -3.15
      vertex -34 4.15 -3.15
      vertex -12.7135 14.1198 -3.15
    endloop
  endfacet
  facet normal 0 0 -1
    outer loop
      vertex -17.3574 7.728 -3.15
      vertex -34 4.15 -3.15
      vertex -15.3713 11.1679 -3.15
    endloop
  endfacet
  facet normal 0 0 -1
    outer loop
      vertex -34 4.15 -3.15
      vertex -17.3574 7.728 -3.15
      vertex -34 -4.15 -3.15
    endloop
  endfacet
  facet normal 0 0 -1
    outer loop
      vertex -17.3574 7.728 -3.15
      vertex -18.5848 3.95032 -3.15
      vertex -34 -4.15 -3.15
    endloop
  endfacet
  facet normal 0 0 -1
    outer loop
      vertex -42 -24 -3.15
      vertex 42 -28.5 -3.15
      vertex -42 -28.5 -3.15
    endloop
  endfacet
  facet normal 0 0 -1
    outer loop
      vertex 34 4.15 -3.15
      vertex 18.5848 3.95032 -3.15
      vertex 42 18 -3.15
    endloop
  endfacet
  facet normal 0 0 -1
    outer loop
      vertex 38 4.15 -3.15
      vertex 34 4.15 -3.15
      vertex 42 18 -3.15
    endloop
  endfacet
  facet normal 0 0 -1
    outer loop
      vertex 42 2 -3.15
      vertex 38 4.15 -3.15
      vertex 42 18 -3.15
    endloop
  endfacet
  facet normal 0 1 0
    outer loop
      vertex -48 -18 -3.15
      vertex -48 -18 3.15
      vertex -42 -18 -3.15
    endloop
  endfacet
  facet normal 0 1 0
    outer loop
      vertex -42 -18 -3.15
      vertex -48 -18 3.15
      vertex -42 -18 3.15
    endloop
  endfacet
  facet normal 0 0 1
    outer loop
      vertex 42 -24 3.15
      vertex 48 -24 3.15
      vertex -48 -18 3.15
    endloop
  endfacet
  facet normal 0 0 1
    outer loop
      vertex -48 -18 3.15
      vertex -48 -24 3.15
      vertex -42 -24 3.15
    endloop
  endfacet
  facet normal 0 0 1
    outer loop
      vertex 42 -28.5 3.15
      vertex -48 -18 3.15
      vertex -42 -24 3.15
    endloop
  endfacet
  facet normal 0 0 1
    outer loop
      vertex -42 -28.5 3.15
      vertex 42 -28.5 3.15
      vertex -42 -24 3.15
    endloop
  endfacet
  facet normal 0 0 1
    outer loop
      vertex 42 -28.5 3.15
      vertex 42 -24 3.15
      vertex -48 -18 3.15
    endloop
  endfacet
  facet normal 0 0 1
    outer loop
      vertex -34 4.15 3.15
      vertex -18.5848 3.95032 3.15
      vertex -17.3574 7.728 3.15
    endloop
  endfacet
  facet normal 0 0 1
    outer loop
      vertex 48 -24 3.15
      vertex 48 -18 3.15
      vertex 42 -18 3.15
    endloop
  endfacet
  facet normal 0 0 1
    outer loop
      vertex 42 -18 3.15
      vertex 42 -1.33227e-15 3.15
      vertex 42 -2 3.15
    endloop
  endfacet
  facet normal 0 0 1
    outer loop
      vertex 12.7135 14.1198 3.15
      vertex 42 24 3.15
      vertex 42 28.5 3.15
    endloop
  endfacet
  facet normal 0 0 1
    outer loop
      vertex 42 -18 3.15
      vertex 42 -2 3.15
      vertex 38 -4.15 3.15
    endloop
  endfacet
  facet normal 0 0 1
    outer loop
      vertex -19 0 3.15
      vertex -18.5848 3.95032 3.15
      vertex -34 -4.15 3.15
    endloop
  endfacet
  facet normal 0 0 1
    outer loop
      vertex 17.3574 7.728 3.15
      vertex 34 4.15 3.15
      vertex 42 18 3.15
    endloop
  endfacet
  facet normal 0 0 1
    outer loop
      vertex 34 4.15 3.15
      vertex 38 4.15 3.15
      vertex 42 18 3.15
    endloop
  endfacet
  facet normal 0 0 1
    outer loop
      vertex 38 2 3.15
      vertex 42 2 3.15
      vertex 38 4.15 3.15
    endloop
  endfacet
  facet normal 0 0 1
    outer loop
      vertex 5.87132 18.0701 3.15
      vertex 9.5 16.4545 3.15
      vertex 42 28.5 3.15
    endloop
  endfacet
  facet normal 0 0 1
    outer loop
      vertex 38 4.15 3.15
      vertex 42 2 3.15
      vertex 42 18 3.15
    endloop
  endfacet
  facet normal 0 0 1
    outer loop
      vertex 42 18 3.15
      vertex 48 18 3.15
      vertex 48 24 3.15
    endloop
  endfacet
  facet normal 0 0 1
    outer loop
      vertex 15.3713 11.1679 3.15
      vertex 42 18 3.15
      vertex 48 24 3.15
    endloop
  endfacet
  facet normal 0 0 1
    outer loop
      vertex 15.3713 11.1679 3.15
      vertex 48 24 3.15
      vertex 42 24 3.15
    endloop
  endfacet
  facet normal 0 0 1
    outer loop
      vertex -42 24 3.15
      vertex 42 28.5 3.15
      vertex -42 28.5 3.15
    endloop
  endfacet
  facet normal 0 0 1
    outer loop
      vertex -38 2 3.15
      vertex -38 4.15 3.15
      vertex -42 2 3.15
    endloop
  endfacet
  facet normal 0 0 1
    outer loop
      vertex -42 18 3.15
      vertex 42 28.5 3.15
      vertex -42 24 3.15
    endloop
  endfacet
  facet normal 0 0 1
    outer loop
      vertex -48 18 3.15
      vertex -42 18 3.15
      vertex -42 24 3.15
    endloop
  endfacet
  facet normal 0 0 1
    outer loop
      vertex -1.98604 18.8959 3.15
      vertex 1.98604 18.8959 3.15
      vertex 42 28.5 3.15
    endloop
  endfacet
  facet normal 0 0 1
    outer loop
      vertex -5.87132 18.0701 3.15
      vertex 42 28.5 3.15
      vertex -42 18 3.15
    endloop
  endfacet
  facet normal 0 0 1
    outer loop
      vertex 34 -4.15 3.15
      vertex 17.3574 -7.728 3.15
      vertex 38 -4.15 3.15
    endloop
  endfacet
  facet normal 0 0 1
    outer loop
      vertex -42 1.33227e-15 3.15
      vertex -42 2 3.15
      vertex -42 18 3.15
    endloop
  endfacet
  facet normal 0 0 1
    outer loop
      vertex 18.5848 3.95032 3.15
      vertex 19 0 3.15
      vertex 34 4.15 3.15
    endloop
  endfacet
  facet normal 0 0 1
    outer loop
      vertex -42 2 3.15
      vertex -38 4.15 3.15
      vertex -42 18 3.15
    endloop
  endfacet
  facet normal 0 0 1
    outer loop
      vertex -38 -2 3.15
      vertex -42 -2 3.15
      vertex -38 -4.15 3.15
    endloop
  endfacet
  facet normal 0 0 1
    outer loop
      vertex -17.3574 7.728 3.15
      vertex -38 4.15 3.15
      vertex -34 4.15 3.15
    endloop
  endfacet
  facet normal 0 0 1
    outer loop
      vertex 15.3713 11.1679 3.15
      vertex 17.3574 7.728 3.15
      vertex 42 18 3.15
    endloop
  endfacet
  facet normal 0 0 1
    outer loop
      vertex 48 -24 3.15
      vertex -42 -18 3.15
      vertex -48 -18 3.15
    endloop
  endfacet
  facet normal 0 0 1
    outer loop
      vertex -38 4.15 3.15
      vertex -15.3713 11.1679 3.15
      vertex -42 18 3.15
    endloop
  endfacet
  facet normal 0 0 1
    outer loop
      vertex -15.3713 11.1679 3.15
      vertex -12.7135 14.1198 3.15
      vertex -42 18 3.15
    endloop
  endfacet
  facet normal 0 0 1
    outer loop
      vertex -12.7135 14.1198 3.15
      vertex -9.5 16.4545 3.15
      vertex -42 18 3.15
    endloop
  endfacet
  facet normal 0 0 1
    outer loop
      vertex -9.5 16.4545 3.15
      vertex -5.87132 18.0701 3.15
      vertex -42 18 3.15
    endloop
  endfacet
  facet normal 0 0 1
    outer loop
      vertex -1.98604 18.8959 3.15
      vertex 42 28.5 3.15
      vertex -5.87132 18.0701 3.15
    endloop
  endfacet
  facet normal 0 0 1
    outer loop
      vertex 1.98604 18.8959 3.15
      vertex 5.87132 18.0701 3.15
      vertex 42 28.5 3.15
    endloop
  endfacet
  facet normal 0 0 1
    outer loop
      vertex 9.5 16.4545 3.15
      vertex 12.7135 14.1198 3.15
      vertex 42 28.5 3.15
    endloop
  endfacet
  facet normal 0 0 1
    outer loop
      vertex -34 -4.15 3.15
      vertex -18.5848 -3.95032 3.15
      vertex -19 0 3.15
    endloop
  endfacet
  facet normal 0 0 1
    outer loop
      vertex 18.5848 3.95032 3.15
      vertex 34 4.15 3.15
      vertex 17.3574 7.728 3.15
    endloop
  endfacet
  facet normal 0 0 1
    outer loop
      vertex -42 24 3.15
      vertex -48 24 3.15
      vertex -48 18 3.15
    endloop
  endfacet
  facet normal 0 0 1
    outer loop
      vertex 12.7135 14.1198 3.15
      vertex 15.3713 11.1679 3.15
      vertex 42 24 3.15
    endloop
  endfacet
  facet normal 0 0 1
    outer loop
      vertex 42 -18 3.15
      vertex 38 -4.15 3.15
      vertex 17.3574 -7.728 3.15
    endloop
  endfacet
  facet normal 0 0 1
    outer loop
      vertex -12.7135 -14.1198 3.15
      vertex -15.3713 -11.1679 3.15
      vertex -42 -18 3.15
    endloop
  endfacet
  facet normal 0 0 1
    outer loop
      vertex 42 -18 3.15
      vertex 17.3574 -7.728 3.15
      vertex 15.3713 -11.1679 3.15
    endloop
  endfacet
  facet normal 0 0 1
    outer loop
      vertex 42 -18 3.15
      vertex 15.3713 -11.1679 3.15
      vertex 12.7135 -14.1198 3.15
    endloop
  endfacet
  facet normal 0 0 1
    outer loop
      vertex -1.98604 -18.8959 3.15
      vertex -5.87132 -18.0701 3.15
      vertex -42 -18 3.15
    endloop
  endfacet
  facet normal 0 0 1
    outer loop
      vertex 42 -18 3.15
      vertex 12.7135 -14.1198 3.15
      vertex 9.5 -16.4545 3.15
    endloop
  endfacet
  facet normal 0 0 1
    outer loop
      vertex -9.5 -16.4545 3.15
      vertex -12.7135 -14.1198 3.15
      vertex -42 -18 3.15
    endloop
  endfacet
  facet normal 0 0 1
    outer loop
      vertex 48 -24 3.15
      vertex 42 -18 3.15
      vertex 5.87132 -18.0701 3.15
    endloop
  endfacet
  facet normal 0 0 1
    outer loop
      vertex 48 -24 3.15
      vertex 5.87132 -18.0701 3.15
      vertex 1.98604 -18.8959 3.15
    endloop
  endfacet
  facet normal 0 0 1
    outer loop
      vertex 48 -24 3.15
      vertex -1.98604 -18.8959 3.15
      vertex -42 -18 3.15
    endloop
  endfacet
  facet normal 0 0 1
    outer loop
      vertex 48 -24 3.15
      vertex 1.98604 -18.8959 3.15
      vertex -1.98604 -18.8959 3.15
    endloop
  endfacet
  facet normal 0 0 1
    outer loop
      vertex 18.5848 -3.95032 3.15
      vertex 17.3574 -7.728 3.15
      vertex 34 -4.15 3.15
    endloop
  endfacet
  facet normal 0 0 1
    outer loop
      vertex -34 4.15 3.15
      vertex -34 -4.15 3.15
      vertex -18.5848 3.95032 3.15
    endloop
  endfacet
  facet normal 0 0 1
    outer loop
      vertex 38 -2 3.15
      vertex 38 -4.15 3.15
      vertex 42 -2 3.15
    endloop
  endfacet
  facet normal 0 0 1
    outer loop
      vertex -17.3574 7.728 3.15
      vertex -15.3713 11.1679 3.15
      vertex -38 4.15 3.15
    endloop
  endfacet
  facet normal 0 0 1
    outer loop
      vertex 34 -4.15 3.15
      vertex 19 0 3.15
      vertex 18.5848 -3.95032 3.15
    endloop
  endfacet
  facet normal 0 0 1
    outer loop
      vertex 34 -4.15 3.15
      vertex 34 4.15 3.15
      vertex 19 0 3.15
    endloop
  endfacet
  facet normal 0 0 1
    outer loop
      vertex -34 -4.15 3.15
      vertex -17.3574 -7.728 3.15
      vertex -18.5848 -3.95032 3.15
    endloop
  endfacet
  facet normal 0 0 1
    outer loop
      vertex -38 -4.15 3.15
      vertex -17.3574 -7.728 3.15
      vertex -34 -4.15 3.15
    endloop
  endfacet
  facet normal 0 0 1
    outer loop
      vertex -38 -4.15 3.15
      vertex -15.3713 -11.1679 3.15
      vertex -17.3574 -7.728 3.15
    endloop
  endfacet
  facet normal 0 0 1
    outer loop
      vertex -5.87132 -18.0701 3.15
      vertex -9.5 -16.4545 3.15
      vertex -42 -18 3.15
    endloop
  endfacet
  facet normal 0 0 1
    outer loop
      vertex 9.5 -16.4545 3.15
      vertex 5.87132 -18.0701 3.15
      vertex 42 -18 3.15
    endloop
  endfacet
  facet normal 0 0 1
    outer loop
      vertex -38 -4.15 3.15
      vertex -42 -18 3.15
      vertex -15.3713 -11.1679 3.15
    endloop
  endfacet
  facet normal 0 0 1
    outer loop
      vertex -42 -2 3.15
      vertex -42 -18 3.15
      vertex -38 -4.15 3.15
    endloop
  endfacet
  facet normal -1 0 0
    outer loop
      vertex -42 -28.5 -3.15
      vertex -42 -28.5 3.15
      vertex -42 -24 -3.15
    endloop
  endfacet
  facet normal -1 0 0
    outer loop
      vertex -42 -24 -3.15
      vertex -42 -28.5 3.15
      vertex -42 -24 3.15
    endloop
  endfacet
  facet normal 0 -1 0
    outer loop
      vertex -42 -28.5 3.15
      vertex -42 -28.5 -3.15
      vertex 42 -28.5 -3.15
    endloop
  endfacet
  facet normal 0 -1 0
    outer loop
      vertex 42 -28.5 3.15
      vertex -42 -28.5 3.15
      vertex 42 -28.5 -3.15
    endloop
  endfacet
  facet normal 1 0 0
    outer loop
      vertex 42 -28.5 3.15
      vertex 42 -28.5 -3.15
      vertex 42 -24 -3.15
    endloop
  endfacet
  facet normal 1 0 0
    outer loop
      vertex 42 -24 3.15
      vertex 42 -28.5 3.15
      vertex 42 -24 -3.15
    endloop
  endfacet
  facet normal 0 -1 0
    outer loop
      vertex 42 -24 3.15
      vertex 42 -24 -3.15
      vertex 48 -24 -3.15
    endloop
  endfacet
  facet normal 0 -1 0
    outer loop
      vertex 48 -24 3.15
      vertex 42 -24 3.15
      vertex 48 -24 -3.15
    endloop
  endfacet
  facet normal 1 0 0
    outer loop
      vertex 48 -24 3.15
      vertex 48 -24 -3.15
      vertex 48 -18 -3.15
    endloop
  endfacet
  facet normal 1 0 0
    outer loop
      vertex 48 -18 3.15
      vertex 48 -24 3.15
      vertex 48 -18 -3.15
    endloop
  endfacet
  facet normal 0 1 0
    outer loop
      vertex 42 -18 -3.15
      vertex 42 -18 3.15
      vertex 48 -18 -3.15
    endloop
  endfacet
  facet normal 0 1 0
    outer loop
      vertex 48 -18 -3.15
      vertex 42 -18 3.15
      vertex 48 -18 3.15
    endloop
  endfacet
  facet normal 1 0 0
    outer loop
      vertex 42 -18 3.15
      vertex 42 -18 -3.15
      vertex 42 -1.33227e-15 -3.15
    endloop
  endfacet
  facet normal 1 0 0
    outer loop
      vertex 42 -1.33227e-15 3.15
      vertex 42 -18 3.15
      vertex 42 -1.33227e-15 -3.15
    endloop
  endfacet
  facet normal -1 2.22045e-16 0
    outer loop
      vertex 42 -1.33227e-15 3.15
      vertex 42 -1.33227e-15 -3.15
      vertex 42 -2 3.15
    endloop
  endfacet
  facet normal -1 2.22045e-16 0
    outer loop
      vertex 42 -2 3.15
      vertex 42 -1.33227e-15 -3.15
      vertex 42 -2 -3.15
    endloop
  endfacet
  facet normal 2.22045e-16 1 0
    outer loop
      vertex 42 -2 3.15
      vertex 42 -2 -3.15
      vertex 38 -2 3.15
    endloop
  endfacet
  facet normal 2.22045e-16 1 0
    outer loop
      vertex 38 -2 3.15
      vertex 42 -2 -3.15
      vertex 38 -2 -3.15
    endloop
  endfacet
  facet normal -1 2.22045e-16 0
    outer loop
      vertex 38 -2 3.15
      vertex 38 -2 -3.15
      vertex 38 -4.15 3.15
    endloop
  endfacet
  facet normal -1 2.22045e-16 0
    outer loop
      vertex 38 -4.15 3.15
      vertex 38 -2 -3.15
      vertex 38 -4.15 -3.15
    endloop
  endfacet
  facet normal 2.22045e-16 1 0
    outer loop
      vertex 38 -4.15 3.15
      vertex 38 -4.15 -3.15
      vertex 34 -4.15 3.15
    endloop
  endfacet
  facet normal 2.22045e-16 1 0
    outer loop
      vertex 34 -4.15 3.15
      vertex 38 -4.15 -3.15
      vertex 34 -4.15 -3.15
    endloop
  endfacet
  facet normal 1 -2.22045e-16 0
    outer loop
      vertex 34 4.15 -3.15
      vertex 34 4.15 3.15
      vertex 34 -4.15 3.15
    endloop
  endfacet
  facet normal 1 -2.22045e-16 0
    outer loop
      vertex 34 -4.15 -3.15
      vertex 34 4.15 -3.15
      vertex 34 -4.15 3.15
    endloop
  endfacet
  facet normal -2.22045e-16 -1 0
    outer loop
      vertex 38 4.15 -3.15
      vertex 38 4.15 3.15
      vertex 34 4.15 3.15
    endloop
  endfacet
  facet normal -2.22045e-16 -1 0
    outer loop
      vertex 34 4.15 -3.15
      vertex 38 4.15 -3.15
      vertex 34 4.15 3.15
    endloop
  endfacet
  facet normal -1 2.22045e-16 0
    outer loop
      vertex 38 4.15 3.15
      vertex 38 4.15 -3.15
      vertex 38 2 3.15
    endloop
  endfacet
  facet normal -1 2.22045e-16 0
    outer loop
      vertex 38 2 3.15
      vertex 38 4.15 -3.15
      vertex 38 2 -3.15
    endloop
  endfacet
  facet normal -2.22045e-16 -1 0
    outer loop
      vertex 42 2 -3.15
      vertex 42 2 3.15
      vertex 38 2 3.15
    endloop
  endfacet
  facet normal -2.22045e-16 -1 0
    outer loop
      vertex 38 2 -3.15
      vertex 42 2 -3.15
      vertex 38 2 3.15
    endloop
  endfacet
  facet normal 1 0 0
    outer loop
      vertex 42 2 3.15
      vertex 42 2 -3.15
      vertex 42 18 -3.15
    endloop
  endfacet
  facet normal 1 0 0
    outer loop
      vertex 42 18 3.15
      vertex 42 2 3.15
      vertex 42 18 -3.15
    endloop
  endfacet
  facet normal 0 -1 0
    outer loop
      vertex 42 18 3.15
      vertex 42 18 -3.15
      vertex 48 18 -3.15
    endloop
  endfacet
  facet normal 0 -1 0
    outer loop
      vertex 48 18 3.15
      vertex 42 18 3.15
      vertex 48 18 -3.15
    endloop
  endfacet
  facet normal 1 0 0
    outer loop
      vertex 48 18 3.15
      vertex 48 18 -3.15
      vertex 48 24 -3.15
    endloop
  endfacet
  facet normal 1 0 0
    outer loop
      vertex 48 24 3.15
      vertex 48 18 3.15
      vertex 48 24 -3.15
    endloop
  endfacet
  facet normal 0 1 0
    outer loop
      vertex 42 24 -3.15
      vertex 42 24 3.15
      vertex 48 24 -3.15
    endloop
  endfacet
  facet normal 0 1 0
    outer loop
      vertex 48 24 -3.15
      vertex 42 24 3.15
      vertex 48 24 3.15
    endloop
  endfacet
  facet normal 1 0 0
    outer loop
      vertex 42 24 3.15
      vertex 42 24 -3.15
      vertex 42 28.5 -3.15
    endloop
  endfacet
  facet normal 1 0 0
    outer loop
      vertex 42 28.5 3.15
      vertex 42 24 3.15
      vertex 42 28.5 -3.15
    endloop
  endfacet
  facet normal 0 1 0
    outer loop
      vertex -42 28.5 -3.15
      vertex -42 28.5 3.15
      vertex 42 28.5 -3.15
    endloop
  endfacet
  facet normal 0 1 0
    outer loop
      vertex 42 28.5 -3.15
      vertex -42 28.5 3.15
      vertex 42 28.5 3.15
    endloop
  endfacet
  facet normal -1 0 0
    outer loop
      vertex -42 24 -3.15
      vertex -42 24 3.15
      vertex -42 28.5 -3.15
    endloop
  endfacet
  facet normal -1 0 0
    outer loop
      vertex -42 28.5 -3.15
      vertex -42 24 3.15
      vertex -42 28.5 3.15
    endloop
  endfacet
  facet normal 0 1 0
    outer loop
      vertex -48 24 -3.15
      vertex -48 24 3.15
      vertex -42 24 -3.15
    endloop
  endfacet
  facet normal 0 1 0
    outer loop
      vertex -42 24 -3.15
      vertex -48 24 3.15
      vertex -42 24 3.15
    endloop
  endfacet
  facet normal -1 0 0
    outer loop
      vertex -48 18 -3.15
      vertex -48 18 3.15
      vertex -48 24 -3.15
    endloop
  endfacet
  facet normal -1 0 0
    outer loop
      vertex -48 24 -3.15
      vertex -48 18 3.15
      vertex -48 24 3.15
    endloop
  endfacet
  facet normal 0 -1 0
    outer loop
      vertex -48 18 3.15
      vertex -48 18 -3.15
      vertex -42 18 -3.15
    endloop
  endfacet
  facet normal 0 -1 0
    outer loop
      vertex -42 18 3.15
      vertex -48 18 3.15
      vertex -42 18 -3.15
    endloop
  endfacet
  facet normal -1 0 0
    outer loop
      vertex -42 1.33227e-15 -3.15
      vertex -42 1.33227e-15 3.15
      vertex -42 18 -3.15
    endloop
  endfacet
  facet normal -1 0 0
    outer loop
      vertex -42 18 -3.15
      vertex -42 1.33227e-15 3.15
      vertex -42 18 3.15
    endloop
  endfacet
  facet normal 1 -2.22045e-16 0
    outer loop
      vertex -42 2 -3.15
      vertex -42 2 3.15
      vertex -42 1.33227e-15 3.15
    endloop
  endfacet
  facet normal 1 -2.22045e-16 0
    outer loop
      vertex -42 1.33227e-15 -3.15
      vertex -42 2 -3.15
      vertex -42 1.33227e-15 3.15
    endloop
  endfacet
  facet normal -2.22045e-16 -1 0
    outer loop
      vertex -38 2 -3.15
      vertex -38 2 3.15
      vertex -42 2 3.15
    endloop
  endfacet
  facet normal -2.22045e-16 -1 0
    outer loop
      vertex -42 2 -3.15
      vertex -38 2 -3.15
      vertex -42 2 3.15
    endloop
  endfacet
  facet normal 1 -2.22045e-16 0
    outer loop
      vertex -38 4.15 -3.15
      vertex -38 4.15 3.15
      vertex -38 2 3.15
    endloop
  endfacet
  facet normal 1 -2.22045e-16 0
    outer loop
      vertex -38 2 -3.15
      vertex -38 4.15 -3.15
      vertex -38 2 3.15
    endloop
  endfacet
  facet normal -2.22045e-16 -1 0
    outer loop
      vertex -34 4.15 -3.15
      vertex -34 4.15 3.15
      vertex -38 4.15 3.15
    endloop
  endfacet
  facet normal -2.22045e-16 -1 0
    outer loop
      vertex -38 4.15 -3.15
      vertex -34 4.15 -3.15
      vertex -38 4.15 3.15
    endloop
  endfacet
  facet normal -1 2.22045e-16 0
    outer loop
      vertex -34 4.15 3.15
      vertex -34 4.15 -3.15
      vertex -34 -4.15 3.15
    endloop
  endfacet
  facet normal -1 2.22045e-16 0
    outer loop
      vertex -34 -4.15 3.15
      vertex -34 4.15 -3.15
      vertex -34 -4.15 -3.15
    endloop
  endfacet
  facet normal 2.22045e-16 1 0
    outer loop
      vertex -34 -4.15 3.15
      vertex -34 -4.15 -3.15
      vertex -38 -4.15 3.15
    endloop
  endfacet
  facet normal 2.22045e-16 1 0
    outer loop
      vertex -38 -4.15 3.15
      vertex -34 -4.15 -3.15
      vertex -38 -4.15 -3.15
    endloop
  endfacet
  facet normal 1 -2.22045e-16 0
    outer loop
      vertex -38 -2 -3.15
      vertex -38 -2 3.15
      vertex -38 -4.15 3.15
    endloop
  endfacet
  facet normal 1 -2.22045e-16 0
    outer loop
      vertex -38 -4.15 -3.15
      vertex -38 -2 -3.15
      vertex -38 -4.15 3.15
    endloop
  endfacet
  facet normal 2.22045e-16 1 0
    outer loop
      vertex -38 -2 3.15
      vertex -38 -2 -3.15
      vertex -42 -2 3.15
    endloop
  endfacet
  facet normal 2.22045e-16 1 0
    outer loop
      vertex -42 -2 3.15
      vertex -38 -2 -3.15
      vertex -42 -2 -3.15
    endloop
  endfacet
  facet normal -1 0 0
    outer loop
      vertex -42 -18 -3.15
      vertex -42 -18 3.15
      vertex -42 -2 -3.15
    endloop
  endfacet
  facet normal -1 0 0
    outer loop
      vertex -42 -2 -3.15
      vertex -42 -18 3.15
      vertex -42 -2 3.15
    endloop
  endfacet
  facet normal 0.994522 0.104529 0
    outer loop
      vertex -19 0 3.15
      vertex -18.5848 -3.95032 3.15
      vertex -18.5848 -3.95032 -3.15
    endloop
  endfacet
  facet normal 0.994522 0.104529 0
    outer loop
      vertex -19 0 -3.15
      vertex -19 0 3.15
      vertex -18.5848 -3.95032 -3.15
    endloop
  endfacet
  facet normal 0.994522 -0.104529 0
    outer loop
      vertex -18.5848 3.95032 -3.15
      vertex -18.5848 3.95032 3.15
      vertex -19 0 3.15
    endloop
  endfacet
  facet normal 0.994522 -0.104529 0
    outer loop
      vertex -19 0 -3.15
      vertex -18.5848 3.95032 -3.15
      vertex -19 0 3.15
    endloop
  endfacet
  facet normal 0.951057 -0.309017 0
    outer loop
      vertex -17.3574 7.728 -3.15
      vertex -17.3574 7.728 3.15
      vertex -18.5848 3.95032 3.15
    endloop
  endfacet
  facet normal 0.951057 -0.309017 0
    outer loop
      vertex -18.5848 3.95032 -3.15
      vertex -17.3574 7.728 -3.15
      vertex -18.5848 3.95032 3.15
    endloop
  endfacet
  facet normal 0.866025 -0.5 0
    outer loop
      vertex -15.3713 11.1679 -3.15
      vertex -15.3713 11.1679 3.15
      vertex -17.3574 7.728 3.15
    endloop
  endfacet
  facet normal 0.866025 -0.5 0
    outer loop
      vertex -17.3574 7.728 -3.15
      vertex -15.3713 11.1679 -3.15
      vertex -17.3574 7.728 3.15
    endloop
  endfacet
  facet normal 0.743145 -0.669131 0
    outer loop
      vertex -12.7135 14.1198 -3.15
      vertex -12.7135 14.1198 3.15
      vertex -15.3713 11.1679 3.15
    endloop
  endfacet
  facet normal 0.743145 -0.669131 0
    outer loop
      vertex -15.3713 11.1679 -3.15
      vertex -12.7135 14.1198 -3.15
      vertex -15.3713 11.1679 3.15
    endloop
  endfacet
  facet normal 0.587785 -0.809017 0
    outer loop
      vertex -9.5 16.4545 -3.15
      vertex -9.5 16.4545 3.15
      vertex -12.7135 14.1198 3.15
    endloop
  endfacet
  facet normal 0.587785 -0.809017 0
    outer loop
      vertex -12.7135 14.1198 -3.15
      vertex -9.5 16.4545 -3.15
      vertex -12.7135 14.1198 3.15
    endloop
  endfacet
  facet normal 0.406737 -0.913545 0
    outer loop
      vertex -5.87132 18.0701 -3.15
      vertex -5.87132 18.0701 3.15
      vertex -9.5 16.4545 3.15
    endloop
  endfacet
  facet normal 0.406737 -0.913545 0
    outer loop
      vertex -9.5 16.4545 -3.15
      vertex -5.87132 18.0701 -3.15
      vertex -9.5 16.4545 3.15
    endloop
  endfacet
  facet normal 0.207912 -0.978148 0
    outer loop
      vertex -1.98604 18.8959 -3.15
      vertex -1.98604 18.8959 3.15
      vertex -5.87132 18.0701 3.15
    endloop
  endfacet
  facet normal 0.207912 -0.978148 0
    outer loop
      vertex -5.87132 18.0701 -3.15
      vertex -1.98604 18.8959 -3.15
      vertex -5.87132 18.0701 3.15
    endloop
  endfacet
  facet normal 0 -1 0
    outer loop
      vertex 1.98604 18.8959 -3.15
      vertex 1.98604 18.8959 3.15
      vertex -1.98604 18.8959 3.15
    endloop
  endfacet
  facet normal 0 -1 0
    outer loop
      vertex -1.98604 18.8959 -3.15
      vertex 1.98604 18.8959 -3.15
      vertex -1.98604 18.8959 3.15
    endloop
  endfacet
  facet normal -0.207912 -0.978148 0
    outer loop
      vertex 5.87132 18.0701 -3.15
      vertex 5.87132 18.0701 3.15
      vertex 1.98604 18.8959 3.15
    endloop
  endfacet
  facet normal -0.207912 -0.978148 0
    outer loop
      vertex 1.98604 18.8959 -3.15
      vertex 5.87132 18.0701 -3.15
      vertex 1.98604 18.8959 3.15
    endloop
  endfacet
  facet normal -0.406737 -0.913545 0
    outer loop
      vertex 9.5 16.4545 -3.15
      vertex 9.5 16.4545 3.15
      vertex 5.87132 18.0701 3.15
    endloop
  endfacet
  facet normal -0.406737 -0.913545 0
    outer loop
      vertex 5.87132 18.0701 -3.15
      vertex 9.5 16.4545 -3.15
      vertex 5.87132 18.0701 3.15
    endloop
  endfacet
  facet normal -0.587785 -0.809017 0
    outer loop
      vertex 12.7135 14.1198 -3.15
      vertex 12.7135 14.1198 3.15
      vertex 9.5 16.4545 3.15
    endloop
  endfacet
  facet normal -0.587785 -0.809017 0
    outer loop
      vertex 9.5 16.4545 -3.15
      vertex 12.7135 14.1198 -3.15
      vertex 9.5 16.4545 3.15
    endloop
  endfacet
  facet normal -0.743145 -0.669131 0
    outer loop
      vertex 15.3713 11.1679 3.15
      vertex 12.7135 14.1198 3.15
      vertex 15.3713 11.1679 -3.15
    endloop
  endfacet
  facet normal -0.743145 -0.669131 0
    outer loop
      vertex 15.3713 11.1679 -3.15
      vertex 12.7135 14.1198 3.15
      vertex 12.7135 14.1198 -3.15
    endloop
  endfacet
  facet normal -0.866025 -0.5 0
    outer loop
      vertex 17.3574 7.728 3.15
      vertex 15.3713 11.1679 3.15
      vertex 17.3574 7.728 -3.15
    endloop
  endfacet
  facet normal -0.866025 -0.5 0
    outer loop
      vertex 17.3574 7.728 -3.15
      vertex 15.3713 11.1679 3.15
      vertex 15.3713 11.1679 -3.15
    endloop
  endfacet
  facet normal -0.951057 -0.309017 0
    outer loop
      vertex 18.5848 3.95032 3.15
      vertex 17.3574 7.728 3.15
      vertex 18.5848 3.95032 -3.15
    endloop
  endfacet
  facet normal -0.951057 -0.309017 0
    outer loop
      vertex 18.5848 3.95032 -3.15
      vertex 17.3574 7.728 3.15
      vertex 17.3574 7.728 -3.15
    endloop
  endfacet
  facet normal -0.994522 -0.104529 0
    outer loop
      vertex 19 0 3.15
      vertex 18.5848 3.95032 3.15
      vertex 19 0 -3.15
    endloop
  endfacet
  facet normal -0.994522 -0.104529 0
    outer loop
      vertex 19 0 -3.15
      vertex 18.5848 3.95032 3.15
      vertex 18.5848 3.95032 -3.15
    endloop
  endfacet
  facet normal -0.994522 0.104529 0
    outer loop
      vertex 19 0 3.15
      vertex 19 0 -3.15
      vertex 18.5848 -3.95032 3.15
    endloop
  endfacet
  facet normal -0.994522 0.104529 0
    outer loop
      vertex 18.5848 -3.95032 3.15
      vertex 19 0 -3.15
      vertex 18.5848 -3.95032 -3.15
    endloop
  endfacet
  facet normal -0.951057 0.309017 0
    outer loop
      vertex 18.5848 -3.95032 3.15
      vertex 18.5848 -3.95032 -3.15
      vertex 17.3574 -7.728 3.15
    endloop
  endfacet
  facet normal -0.951057 0.309017 0
    outer loop
      vertex 17.3574 -7.728 3.15
      vertex 18.5848 -3.95032 -3.15
      vertex 17.3574 -7.728 -3.15
    endloop
  endfacet
  facet normal -0.866025 0.5 0
    outer loop
      vertex 17.3574 -7.728 3.15
      vertex 17.3574 -7.728 -3.15
      vertex 15.3713 -11.1679 3.15
    endloop
  endfacet
  facet normal -0.866025 0.5 0
    outer loop
      vertex 15.3713 -11.1679 3.15
      vertex 17.3574 -7.728 -3.15
      vertex 15.3713 -11.1679 -3.15
    endloop
  endfacet
  facet normal -0.743145 0.669131 0
    outer loop
      vertex 15.3713 -11.1679 3.15
      vertex 15.3713 -11.1679 -3.15
      vertex 12.7135 -14.1198 3.15
    endloop
  endfacet
  facet normal -0.743145 0.669131 0
    outer loop
      vertex 12.7135 -14.1198 3.15
      vertex 15.3713 -11.1679 -3.15
      vertex 12.7135 -14.1198 -3.15
    endloop
  endfacet
  facet normal -0.587785 0.809017 0
    outer loop
      vertex 12.7135 -14.1198 3.15
      vertex 12.7135 -14.1198 -3.15
      vertex 9.5 -16.4545 3.15
    endloop
  endfacet
  facet normal -0.587785 0.809017 0
    outer loop
      vertex 9.5 -16.4545 3.15
      vertex 12.7135 -14.1198 -3.15
      vertex 9.5 -16.4545 -3.15
    endloop
  endfacet
  facet normal -0.406737 0.913545 0
    outer loop
      vertex 9.5 -16.4545 3.15
      vertex 9.5 -16.4545 -3.15
      vertex 5.87132 -18.0701 3.15
    endloop
  endfacet
  facet normal -0.406737 0.913545 0
    outer loop
      vertex 5.87132 -18.0701 3.15
      vertex 9.5 -16.4545 -3.15
      vertex 5.87132 -18.0701 -3.15
    endloop
  endfacet
  facet normal -0.207912 0.978148 0
    outer loop
      vertex 5.87132 -18.0701 3.15
      vertex 5.87132 -18.0701 -3.15
      vertex 1.98604 -18.8959 3.15
    endloop
  endfacet
  facet normal -0.207912 0.978148 0
    outer loop
      vertex 1.98604 -18.8959 3.15
      vertex 5.87132 -18.0701 -3.15
      vertex 1.98604 -18.8959 -3.15
    endloop
  endfacet
  facet normal 0 1 0
    outer loop
      vertex 1.98604 -18.8959 3.15
      vertex 1.98604 -18.8959 -3.15
      vertex -1.98604 -18.8959 3.15
    endloop
  endfacet
  facet normal 0 1 0
    outer loop
      vertex -1.98604 -18.8959 3.15
      vertex 1.98604 -18.8959 -3.15
      vertex -1.98604 -18.8959 -3.15
    endloop
  endfacet
  facet normal 0.207912 0.978148 0
    outer loop
      vertex -1.98604 -18.8959 3.15
      vertex -1.98604 -18.8959 -3.15
      vertex -5.87132 -18.0701 3.15
    endloop
  endfacet
  facet normal 0.207912 0.978148 0
    outer loop
      vertex -5.87132 -18.0701 3.15
      vertex -1.98604 -18.8959 -3.15
      vertex -5.87132 -18.0701 -3.15
    endloop
  endfacet
  facet normal 0.406737 0.913545 0
    outer loop
      vertex -5.87132 -18.0701 3.15
      vertex -5.87132 -18.0701 -3.15
      vertex -9.5 -16.4545 3.15
    endloop
  endfacet
  facet normal 0.406737 0.913545 0
    outer loop
      vertex -9.5 -16.4545 3.15
      vertex -5.87132 -18.0701 -3.15
      vertex -9.5 -16.4545 -3.15
    endloop
  endfacet
  facet normal 0.587785 0.809017 0
    outer loop
      vertex -9.5 -16.4545 3.15
      vertex -9.5 -16.4545 -3.15
      vertex -12.7135 -14.1198 3.15
    endloop
  endfacet
  facet normal 0.587785 0.809017 0
    outer loop
      vertex -12.7135 -14.1198 3.15
      vertex -9.5 -16.4545 -3.15
      vertex -12.7135 -14.1198 -3.15
    endloop
  endfacet
  facet normal 0.743145 0.669131 0
    outer loop
      vertex -15.3713 -11.1679 3.15
      vertex -12.7135 -14.1198 3.15
      vertex -12.7135 -14.1198 -3.15
    endloop
  endfacet
  facet normal 0.743145 0.669131 0
    outer loop
      vertex -15.3713 -11.1679 -3.15
      vertex -15.3713 -11.1679 3.15
      vertex -12.7135 -14.1198 -3.15
    endloop
  endfacet
  facet normal 0.866025 0.5 0
    outer loop
      vertex -17.3574 -7.728 3.15
      vertex -15.3713 -11.1679 3.15
      vertex -15.3713 -11.1679 -3.15
    endloop
  endfacet
  facet normal 0.866025 0.5 0
    outer loop
      vertex -17.3574 -7.728 -3.15
      vertex -17.3574 -7.728 3.15
      vertex -15.3713 -11.1679 -3.15
    endloop
  endfacet
  facet normal 0.951057 0.309017 0
    outer loop
      vertex -18.5848 -3.95032 3.15
      vertex -17.3574 -7.728 3.15
      vertex -17.3574 -7.728 -3.15
    endloop
  endfacet
  facet normal 0.951057 0.309017 0
    outer loop
      vertex -18.5848 -3.95032 -3.15
      vertex -18.5848 -3.95032 3.15
      vertex -17.3574 -7.728 -3.15
    endloop
  endfacet
endsolid OpenSCAD_Model
