  0
SECTION
  2
BLOCKS
  0
ENDSEC
  0
SECTION
  2
ENTITIES
  0
LINE
  8
0
 10
-145.057
 11
-145.057
 20
-0.557
 21
82.557
  0
LINE
  8
0
 10
-145.057
 11
-145.01
 20
82.557
 21
83.309
  0
LINE
  8
0
 10
-145.01
 11
-144.868
 20
83.309
 21
84.049
  0
LINE
  8
0
 10
-144.868
 11
-144.636
 20
84.049
 21
84.766
  0
LINE
  8
0
 10
-144.636
 11
-144.315
 20
84.766
 21
85.448
  0
LINE
  8
0
 10
-144.315
 11
-143.911
 20
85.448
 21
86.084
  0
LINE
  8
0
 10
-143.911
 11
-143.431
 20
86.084
 21
86.664
  0
LINE
  8
0
 10
-143.431
 11
-142.882
 20
86.664
 21
87.18
  0
LINE
  8
0
 10
-142.882
 11
-142.272
 20
87.18
 21
87.623
  0
LINE
  8
0
 10
-142.272
 11
-141.612
 20
87.623
 21
87.986
  0
LINE
  8
0
 10
-141.612
 11
-140.911
 20
87.986
 21
88.263
  0
LINE
  8
0
 10
-140.911
 11
-140.181
 20
88.263
 21
88.451
  0
LINE
  8
0
 10
-140.181
 11
-139.434
 20
88.451
 21
88.545
  0
LINE
  8
0
 10
-139.434
 11
139.434
 20
88.545
 21
88.545
  0
LINE
  8
0
 10
139.434
 11
140.181
 20
88.545
 21
88.451
  0
LINE
  8
0
 10
140.181
 11
140.911
 20
88.451
 21
88.263
  0
LINE
  8
0
 10
140.911
 11
141.612
 20
88.263
 21
87.986
  0
LINE
  8
0
 10
141.612
 11
142.272
 20
87.986
 21
87.623
  0
LINE
  8
0
 10
142.272
 11
142.882
 20
87.623
 21
87.18
  0
LINE
  8
0
 10
142.882
 11
143.431
 20
87.18
 21
86.664
  0
LINE
  8
0
 10
143.431
 11
143.911
 20
86.664
 21
86.084
  0
LINE
  8
0
 10
143.911
 11
144.315
 20
86.084
 21
85.448
  0
LINE
  8
0
 10
144.315
 11
144.636
 20
85.448
 21
84.766
  0
LINE
  8
0
 10
144.636
 11
144.868
 20
84.766
 21
84.049
  0
LINE
  8
0
 10
144.868
 11
145.01
 20
84.049
 21
83.309
  0
LINE
  8
0
 10
145.01
 11
145.057
 20
83.309
 21
82.557
  0
LINE
  8
0
 10
145.057
 11
145.057
 20
82.557
 21
-0.557
  0
LINE
  8
0
 10
145.057
 11
145.01
 20
-0.557
 21
-1.309
  0
LINE
  8
0
 10
145.01
 11
144.868
 20
-1.309
 21
-2.049
  0
LINE
  8
0
 10
144.868
 11
144.636
 20
-2.049
 21
-2.766
  0
LINE
  8
0
 10
144.636
 11
144.315
 20
-2.766
 21
-3.448
  0
LINE
  8
0
 10
144.315
 11
143.911
 20
-3.448
 21
-4.084
  0
LINE
  8
0
 10
143.911
 11
143.431
 20
-4.084
 21
-4.664
  0
LINE
  8
0
 10
143.431
 11
142.882
 20
-4.664
 21
-5.18
  0
LINE
  8
0
 10
142.882
 11
142.272
 20
-5.18
 21
-5.623
  0
LINE
  8
0
 10
142.272
 11
141.612
 20
-5.623
 21
-5.986
  0
LINE
  8
0
 10
141.612
 11
140.911
 20
-5.986
 21
-6.263
  0
LINE
  8
0
 10
140.911
 11
140.181
 20
-6.263
 21
-6.451
  0
LINE
  8
0
 10
140.181
 11
139.434
 20
-6.451
 21
-6.545
  0
LINE
  8
0
 10
139.434
 11
18.32
 20
-6.545
 21
-9.545
  0
LINE
  8
0
 10
18.32
 11
-18.32
 20
-9.545
 21
-9.545
  0
LINE
  8
0
 10
-18.32
 11
-139.434
 20
-9.545
 21
-6.545
  0
LINE
  8
0
 10
-139.434
 11
-140.181
 20
-6.545
 21
-6.451
  0
LINE
  8
0
 10
-140.181
 11
-140.911
 20
-6.451
 21
-6.263
  0
LINE
  8
0
 10
-140.911
 11
-141.612
 20
-6.263
 21
-5.986
  0
LINE
  8
0
 10
-141.612
 11
-142.272
 20
-5.986
 21
-5.623
  0
LINE
  8
0
 10
-142.272
 11
-142.882
 20
-5.623
 21
-5.18
  0
LINE
  8
0
 10
-142.882
 11
-143.431
 20
-5.18
 21
-4.664
  0
LINE
  8
0
 10
-143.431
 11
-143.911
 20
-4.664
 21
-4.084
  0
LINE
  8
0
 10
-143.911
 11
-144.315
 20
-4.084
 21
-3.448
  0
LINE
  8
0
 10
-144.315
 11
-144.636
 20
-3.448
 21
-2.766
  0
LINE
  8
0
 10
-144.636
 11
-144.868
 20
-2.766
 21
-2.049
  0
LINE
  8
0
 10
-144.868
 11
-145.01
 20
-2.049
 21
-1.309
  0
LINE
  8
0
 10
-145.01
 11
-145.057
 20
-1.309
 21
-0.557
  0
LINE
  8
0
 10
-140.557
 11
-140.545
 20
-0.557
 21
-0.369
  0
LINE
  8
0
 10
-140.545
 11
-140.51
 20
-0.369
 21
-0.184
  0
LINE
  8
0
 10
-140.51
 11
-140.452
 20
-0.184
 21
-0.005
  0
LINE
  8
0
 10
-140.452
 11
-140.371
 20
-0.005
 21
0.166
  0
LINE
  8
0
 10
-140.371
 11
-140.271
 20
0.166
 21
0.325
  0
LINE
  8
0
 10
-140.271
 11
-140.15
 20
0.325
 21
0.47
  0
LINE
  8
0
 10
-140.15
 11
-140.013
 20
0.47
 21
0.599
  0
LINE
  8
0
 10
-140.013
 11
-139.861
 20
0.599
 21
0.709
  0
LINE
  8
0
 10
-139.861
 11
-139.696
 20
0.709
 21
0.8
  0
LINE
  8
0
 10
-139.696
 11
-139.521
 20
0.8
 21
0.87
  0
LINE
  8
0
 10
-139.521
 11
-139.338
 20
0.87
 21
0.916
  0
LINE
  8
0
 10
-139.338
 11
-139.151
 20
0.916
 21
0.94
  0
LINE
  8
0
 10
-139.151
 11
-138.963
 20
0.94
 21
0.94
  0
LINE
  8
0
 10
-138.963
 11
-138.776
 20
0.94
 21
0.916
  0
LINE
  8
0
 10
-138.776
 11
-138.593
 20
0.916
 21
0.87
  0
LINE
  8
0
 10
-138.593
 11
-138.418
 20
0.87
 21
0.8
  0
LINE
  8
0
 10
-138.418
 11
-138.253
 20
0.8
 21
0.709
  0
LINE
  8
0
 10
-138.253
 11
-138.101
 20
0.709
 21
0.599
  0
LINE
  8
0
 10
-138.101
 11
-137.964
 20
0.599
 21
0.47
  0
LINE
  8
0
 10
-137.964
 11
-137.843
 20
0.47
 21
0.325
  0
LINE
  8
0
 10
-137.843
 11
-137.743
 20
0.325
 21
0.166
  0
LINE
  8
0
 10
-137.743
 11
-137.662
 20
0.166
 21
-0.005
  0
LINE
  8
0
 10
-137.662
 11
-137.604
 20
-0.005
 21
-0.184
  0
LINE
  8
0
 10
-137.604
 11
-137.569
 20
-0.184
 21
-0.369
  0
LINE
  8
0
 10
-137.569
 11
-137.557
 20
-0.369
 21
-0.557
  0
LINE
  8
0
 10
-137.557
 11
-137.569
 20
-0.557
 21
-0.745
  0
LINE
  8
0
 10
-137.569
 11
-137.604
 20
-0.745
 21
-0.93
  0
LINE
  8
0
 10
-137.604
 11
-137.662
 20
-0.93
 21
-1.109
  0
LINE
  8
0
 10
-137.662
 11
-137.743
 20
-1.109
 21
-1.28
  0
LINE
  8
0
 10
-137.743
 11
-137.843
 20
-1.28
 21
-1.439
  0
LINE
  8
0
 10
-137.843
 11
-137.964
 20
-1.439
 21
-1.584
  0
LINE
  8
0
 10
-137.964
 11
-138.101
 20
-1.584
 21
-1.713
  0
LINE
  8
0
 10
-138.101
 11
-138.253
 20
-1.713
 21
-1.823
  0
LINE
  8
0
 10
-138.253
 11
-138.418
 20
-1.823
 21
-1.914
  0
LINE
  8
0
 10
-138.418
 11
-138.593
 20
-1.914
 21
-1.984
  0
LINE
  8
0
 10
-138.593
 11
-138.776
 20
-1.984
 21
-2.03
  0
LINE
  8
0
 10
-138.776
 11
-138.963
 20
-2.03
 21
-2.054
  0
LINE
  8
0
 10
-138.963
 11
-139.151
 20
-2.054
 21
-2.054
  0
LINE
  8
0
 10
-139.151
 11
-139.338
 20
-2.054
 21
-2.03
  0
LINE
  8
0
 10
-139.338
 11
-139.521
 20
-2.03
 21
-1.984
  0
LINE
  8
0
 10
-139.521
 11
-139.696
 20
-1.984
 21
-1.914
  0
LINE
  8
0
 10
-139.696
 11
-139.861
 20
-1.914
 21
-1.823
  0
LINE
  8
0
 10
-139.861
 11
-140.013
 20
-1.823
 21
-1.713
  0
LINE
  8
0
 10
-140.013
 11
-140.15
 20
-1.713
 21
-1.584
  0
LINE
  8
0
 10
-140.15
 11
-140.271
 20
-1.584
 21
-1.439
  0
LINE
  8
0
 10
-140.271
 11
-140.371
 20
-1.439
 21
-1.28
  0
LINE
  8
0
 10
-140.371
 11
-140.452
 20
-1.28
 21
-1.109
  0
LINE
  8
0
 10
-140.452
 11
-140.51
 20
-1.109
 21
-0.93
  0
LINE
  8
0
 10
-140.51
 11
-140.545
 20
-0.93
 21
-0.745
  0
LINE
  8
0
 10
-140.545
 11
-140.557
 20
-0.745
 21
-0.557
  0
LINE
  8
0
 10
-140.557
 11
-140.545
 20
82.557
 21
82.745
  0
LINE
  8
0
 10
-140.545
 11
-140.51
 20
82.745
 21
82.93
  0
LINE
  8
0
 10
-140.51
 11
-140.452
 20
82.93
 21
83.109
  0
LINE
  8
0
 10
-140.452
 11
-140.371
 20
83.109
 21
83.28
  0
LINE
  8
0
 10
-140.371
 11
-140.271
 20
83.28
 21
83.439
  0
LINE
  8
0
 10
-140.271
 11
-140.15
 20
83.439
 21
83.584
  0
LINE
  8
0
 10
-140.15
 11
-140.013
 20
83.584
 21
83.713
  0
LINE
  8
0
 10
-140.013
 11
-139.861
 20
83.713
 21
83.823
  0
LINE
  8
0
 10
-139.861
 11
-139.696
 20
83.823
 21
83.914
  0
LINE
  8
0
 10
-139.696
 11
-139.521
 20
83.914
 21
83.984
  0
LINE
  8
0
 10
-139.521
 11
-139.338
 20
83.984
 21
84.03
  0
LINE
  8
0
 10
-139.338
 11
-139.151
 20
84.03
 21
84.054
  0
LINE
  8
0
 10
-139.151
 11
-138.963
 20
84.054
 21
84.054
  0
LINE
  8
0
 10
-138.963
 11
-138.776
 20
84.054
 21
84.03
  0
LINE
  8
0
 10
-138.776
 11
-138.593
 20
84.03
 21
83.984
  0
LINE
  8
0
 10
-138.593
 11
-138.418
 20
83.984
 21
83.914
  0
LINE
  8
0
 10
-138.418
 11
-138.253
 20
83.914
 21
83.823
  0
LINE
  8
0
 10
-138.253
 11
-138.101
 20
83.823
 21
83.713
  0
LINE
  8
0
 10
-138.101
 11
-137.964
 20
83.713
 21
83.584
  0
LINE
  8
0
 10
-137.964
 11
-137.843
 20
83.584
 21
83.439
  0
LINE
  8
0
 10
-137.843
 11
-137.743
 20
83.439
 21
83.28
  0
LINE
  8
0
 10
-137.743
 11
-137.662
 20
83.28
 21
83.109
  0
LINE
  8
0
 10
-137.662
 11
-137.604
 20
83.109
 21
82.93
  0
LINE
  8
0
 10
-137.604
 11
-137.569
 20
82.93
 21
82.745
  0
LINE
  8
0
 10
-137.569
 11
-137.557
 20
82.745
 21
82.557
  0
LINE
  8
0
 10
-137.557
 11
-137.569
 20
82.557
 21
82.369
  0
LINE
  8
0
 10
-137.569
 11
-137.604
 20
82.369
 21
82.184
  0
LINE
  8
0
 10
-137.604
 11
-137.662
 20
82.184
 21
82.005
  0
LINE
  8
0
 10
-137.662
 11
-137.743
 20
82.005
 21
81.834
  0
LINE
  8
0
 10
-137.743
 11
-137.843
 20
81.834
 21
81.675
  0
LINE
  8
0
 10
-137.843
 11
-137.964
 20
81.675
 21
81.53
  0
LINE
  8
0
 10
-137.964
 11
-138.101
 20
81.53
 21
81.401
  0
LINE
  8
0
 10
-138.101
 11
-138.253
 20
81.401
 21
81.291
  0
LINE
  8
0
 10
-138.253
 11
-138.418
 20
81.291
 21
81.2
  0
LINE
  8
0
 10
-138.418
 11
-138.593
 20
81.2
 21
81.13
  0
LINE
  8
0
 10
-138.593
 11
-138.776
 20
81.13
 21
81.084
  0
LINE
  8
0
 10
-138.776
 11
-138.963
 20
81.084
 21
81.06
  0
LINE
  8
0
 10
-138.963
 11
-139.151
 20
81.06
 21
81.06
  0
LINE
  8
0
 10
-139.151
 11
-139.338
 20
81.06
 21
81.084
  0
LINE
  8
0
 10
-139.338
 11
-139.521
 20
81.084
 21
81.13
  0
LINE
  8
0
 10
-139.521
 11
-139.696
 20
81.13
 21
81.2
  0
LINE
  8
0
 10
-139.696
 11
-139.861
 20
81.2
 21
81.291
  0
LINE
  8
0
 10
-139.861
 11
-140.013
 20
81.291
 21
81.401
  0
LINE
  8
0
 10
-140.013
 11
-140.15
 20
81.401
 21
81.53
  0
LINE
  8
0
 10
-140.15
 11
-140.271
 20
81.53
 21
81.675
  0
LINE
  8
0
 10
-140.271
 11
-140.371
 20
81.675
 21
81.834
  0
LINE
  8
0
 10
-140.371
 11
-140.452
 20
81.834
 21
82.005
  0
LINE
  8
0
 10
-140.452
 11
-140.51
 20
82.005
 21
82.184
  0
LINE
  8
0
 10
-140.51
 11
-140.545
 20
82.184
 21
82.369
  0
LINE
  8
0
 10
-140.545
 11
-140.557
 20
82.369
 21
82.557
  0
LINE
  8
0
 10
-133.798
 11
-133.798
 20
6.495
 21
9.996
  0
LINE
  8
0
 10
-133.798
 11
-132.985
 20
9.996
 21
9.996
  0
LINE
  8
0
 10
-132.985
 11
-132.985
 20
9.996
 21
15.004
  0
LINE
  8
0
 10
-132.985
 11
-133.798
 20
15.004
 21
15.004
  0
LINE
  8
0
 10
-133.798
 11
-133.798
 20
15.004
 21
18.505
  0
LINE
  8
0
 10
-133.798
 11
-132.985
 20
18.505
 21
18.505
  0
LINE
  8
0
 10
-132.985
 11
-132.985
 20
18.505
 21
19.485
  0
LINE
  8
0
 10
-132.985
 11
-119.015
 20
19.485
 21
19.485
  0
LINE
  8
0
 10
-119.015
 11
-119.015
 20
19.485
 21
18.505
  0
LINE
  8
0
 10
-119.015
 11
-118.202
 20
18.505
 21
18.505
  0
LINE
  8
0
 10
-118.202
 11
-118.202
 20
18.505
 21
15.004
  0
LINE
  8
0
 10
-118.202
 11
-119.015
 20
15.004
 21
15.004
  0
LINE
  8
0
 10
-119.015
 11
-119.015
 20
15.004
 21
9.996
  0
LINE
  8
0
 10
-119.015
 11
-118.202
 20
9.996
 21
9.996
  0
LINE
  8
0
 10
-118.202
 11
-118.202
 20
9.996
 21
6.495
  0
LINE
  8
0
 10
-118.202
 11
-119.015
 20
6.495
 21
6.495
  0
LINE
  8
0
 10
-119.015
 11
-119.015
 20
6.495
 21
5.515
  0
LINE
  8
0
 10
-119.015
 11
-132.985
 20
5.515
 21
5.515
  0
LINE
  8
0
 10
-132.985
 11
-132.985
 20
5.515
 21
6.495
  0
LINE
  8
0
 10
-132.985
 11
-133.798
 20
6.495
 21
6.495
  0
LINE
  8
0
 10
-133.798
 11
-133.798
 20
25.495
 21
28.996
  0
LINE
  8
0
 10
-133.798
 11
-132.985
 20
28.996
 21
28.996
  0
LINE
  8
0
 10
-132.985
 11
-132.985
 20
28.996
 21
34.004
  0
LINE
  8
0
 10
-132.985
 11
-133.798
 20
34.004
 21
34.004
  0
LINE
  8
0
 10
-133.798
 11
-133.798
 20
34.004
 21
37.505
  0
LINE
  8
0
 10
-133.798
 11
-132.985
 20
37.505
 21
37.505
  0
LINE
  8
0
 10
-132.985
 11
-132.985
 20
37.505
 21
38.485
  0
LINE
  8
0
 10
-132.985
 11
-119.015
 20
38.485
 21
38.485
  0
LINE
  8
0
 10
-119.015
 11
-119.015
 20
38.485
 21
37.505
  0
LINE
  8
0
 10
-119.015
 11
-118.202
 20
37.505
 21
37.505
  0
LINE
  8
0
 10
-118.202
 11
-118.202
 20
37.505
 21
34.004
  0
LINE
  8
0
 10
-118.202
 11
-119.015
 20
34.004
 21
34.004
  0
LINE
  8
0
 10
-119.015
 11
-119.015
 20
34.004
 21
28.996
  0
LINE
  8
0
 10
-119.015
 11
-118.202
 20
28.996
 21
28.996
  0
LINE
  8
0
 10
-118.202
 11
-118.202
 20
28.996
 21
25.495
  0
LINE
  8
0
 10
-118.202
 11
-119.015
 20
25.495
 21
25.495
  0
LINE
  8
0
 10
-119.015
 11
-119.015
 20
25.495
 21
24.515
  0
LINE
  8
0
 10
-119.015
 11
-132.985
 20
24.515
 21
24.515
  0
LINE
  8
0
 10
-132.985
 11
-132.985
 20
24.515
 21
25.495
  0
LINE
  8
0
 10
-132.985
 11
-133.798
 20
25.495
 21
25.495
  0
LINE
  8
0
 10
-133.798
 11
-133.798
 20
44.495
 21
47.996
  0
LINE
  8
0
 10
-133.798
 11
-132.985
 20
47.996
 21
47.996
  0
LINE
  8
0
 10
-132.985
 11
-132.985
 20
47.996
 21
53.004
  0
LINE
  8
0
 10
-132.985
 11
-133.798
 20
53.004
 21
53.004
  0
LINE
  8
0
 10
-133.798
 11
-133.798
 20
53.004
 21
56.505
  0
LINE
  8
0
 10
-133.798
 11
-132.985
 20
56.505
 21
56.505
  0
LINE
  8
0
 10
-132.985
 11
-132.985
 20
56.505
 21
57.485
  0
LINE
  8
0
 10
-132.985
 11
-119.015
 20
57.485
 21
57.485
  0
LINE
  8
0
 10
-119.015
 11
-119.015
 20
57.485
 21
56.505
  0
LINE
  8
0
 10
-119.015
 11
-118.202
 20
56.505
 21
56.505
  0
LINE
  8
0
 10
-118.202
 11
-118.202
 20
56.505
 21
53.004
  0
LINE
  8
0
 10
-118.202
 11
-119.015
 20
53.004
 21
53.004
  0
LINE
  8
0
 10
-119.015
 11
-119.015
 20
53.004
 21
47.996
  0
LINE
  8
0
 10
-119.015
 11
-118.202
 20
47.996
 21
47.996
  0
LINE
  8
0
 10
-118.202
 11
-118.202
 20
47.996
 21
44.495
  0
LINE
  8
0
 10
-118.202
 11
-119.015
 20
44.495
 21
44.495
  0
LINE
  8
0
 10
-119.015
 11
-119.015
 20
44.495
 21
43.515
  0
LINE
  8
0
 10
-119.015
 11
-132.985
 20
43.515
 21
43.515
  0
LINE
  8
0
 10
-132.985
 11
-132.985
 20
43.515
 21
44.495
  0
LINE
  8
0
 10
-132.985
 11
-133.798
 20
44.495
 21
44.495
  0
LINE
  8
0
 10
-133.798
 11
-133.798
 20
63.495
 21
66.996
  0
LINE
  8
0
 10
-133.798
 11
-132.985
 20
66.996
 21
66.996
  0
LINE
  8
0
 10
-132.985
 11
-132.985
 20
66.996
 21
72.004
  0
LINE
  8
0
 10
-132.985
 11
-133.798
 20
72.004
 21
72.004
  0
LINE
  8
0
 10
-133.798
 11
-133.798
 20
72.004
 21
75.505
  0
LINE
  8
0
 10
-133.798
 11
-132.985
 20
75.505
 21
75.505
  0
LINE
  8
0
 10
-132.985
 11
-132.985
 20
75.505
 21
76.485
  0
LINE
  8
0
 10
-132.985
 11
-119.015
 20
76.485
 21
76.485
  0
LINE
  8
0
 10
-119.015
 11
-119.015
 20
76.485
 21
75.505
  0
LINE
  8
0
 10
-119.015
 11
-118.202
 20
75.505
 21
75.505
  0
LINE
  8
0
 10
-118.202
 11
-118.202
 20
75.505
 21
72.004
  0
LINE
  8
0
 10
-118.202
 11
-119.015
 20
72.004
 21
72.004
  0
LINE
  8
0
 10
-119.015
 11
-119.015
 20
72.004
 21
66.996
  0
LINE
  8
0
 10
-119.015
 11
-118.202
 20
66.996
 21
66.996
  0
LINE
  8
0
 10
-118.202
 11
-118.202
 20
66.996
 21
63.495
  0
LINE
  8
0
 10
-118.202
 11
-119.015
 20
63.495
 21
63.495
  0
LINE
  8
0
 10
-119.015
 11
-119.015
 20
63.495
 21
62.515
  0
LINE
  8
0
 10
-119.015
 11
-132.985
 20
62.515
 21
62.515
  0
LINE
  8
0
 10
-132.985
 11
-132.985
 20
62.515
 21
63.495
  0
LINE
  8
0
 10
-132.985
 11
-133.798
 20
63.495
 21
63.495
  0
LINE
  8
0
 10
-114.798
 11
-114.798
 20
9.495
 21
12.996
  0
LINE
  8
0
 10
-114.798
 11
-113.985
 20
12.996
 21
12.996
  0
LINE
  8
0
 10
-113.985
 11
-113.985
 20
12.996
 21
18.004
  0
LINE
  8
0
 10
-113.985
 11
-114.798
 20
18.004
 21
18.004
  0
LINE
  8
0
 10
-114.798
 11
-114.798
 20
18.004
 21
21.505
  0
LINE
  8
0
 10
-114.798
 11
-113.985
 20
21.505
 21
21.505
  0
LINE
  8
0
 10
-113.985
 11
-113.985
 20
21.505
 21
22.485
  0
LINE
  8
0
 10
-113.985
 11
-100.015
 20
22.485
 21
22.485
  0
LINE
  8
0
 10
-100.015
 11
-100.015
 20
22.485
 21
21.505
  0
LINE
  8
0
 10
-100.015
 11
-99.202
 20
21.505
 21
21.505
  0
LINE
  8
0
 10
-99.202
 11
-99.202
 20
21.505
 21
18.004
  0
LINE
  8
0
 10
-99.202
 11
-100.015
 20
18.004
 21
18.004
  0
LINE
  8
0
 10
-100.015
 11
-100.015
 20
18.004
 21
12.996
  0
LINE
  8
0
 10
-100.015
 11
-99.202
 20
12.996
 21
12.996
  0
LINE
  8
0
 10
-99.202
 11
-99.202
 20
12.996
 21
9.495
  0
LINE
  8
0
 10
-99.202
 11
-100.015
 20
9.495
 21
9.495
  0
LINE
  8
0
 10
-100.015
 11
-100.015
 20
9.495
 21
8.515
  0
LINE
  8
0
 10
-100.015
 11
-113.985
 20
8.515
 21
8.515
  0
LINE
  8
0
 10
-113.985
 11
-113.985
 20
8.515
 21
9.495
  0
LINE
  8
0
 10
-113.985
 11
-114.798
 20
9.495
 21
9.495
  0
LINE
  8
0
 10
-114.798
 11
-114.798
 20
28.495
 21
31.996
  0
LINE
  8
0
 10
-114.798
 11
-113.985
 20
31.996
 21
31.996
  0
LINE
  8
0
 10
-113.985
 11
-113.985
 20
31.996
 21
37.004
  0
LINE
  8
0
 10
-113.985
 11
-114.798
 20
37.004
 21
37.004
  0
LINE
  8
0
 10
-114.798
 11
-114.798
 20
37.004
 21
40.505
  0
LINE
  8
0
 10
-114.798
 11
-113.985
 20
40.505
 21
40.505
  0
LINE
  8
0
 10
-113.985
 11
-113.985
 20
40.505
 21
41.485
  0
LINE
  8
0
 10
-113.985
 11
-100.015
 20
41.485
 21
41.485
  0
LINE
  8
0
 10
-100.015
 11
-100.015
 20
41.485
 21
40.505
  0
LINE
  8
0
 10
-100.015
 11
-99.202
 20
40.505
 21
40.505
  0
LINE
  8
0
 10
-99.202
 11
-99.202
 20
40.505
 21
37.004
  0
LINE
  8
0
 10
-99.202
 11
-100.015
 20
37.004
 21
37.004
  0
LINE
  8
0
 10
-100.015
 11
-100.015
 20
37.004
 21
31.996
  0
LINE
  8
0
 10
-100.015
 11
-99.202
 20
31.996
 21
31.996
  0
LINE
  8
0
 10
-99.202
 11
-99.202
 20
31.996
 21
28.495
  0
LINE
  8
0
 10
-99.202
 11
-100.015
 20
28.495
 21
28.495
  0
LINE
  8
0
 10
-100.015
 11
-100.015
 20
28.495
 21
27.515
  0
LINE
  8
0
 10
-100.015
 11
-113.985
 20
27.515
 21
27.515
  0
LINE
  8
0
 10
-113.985
 11
-113.985
 20
27.515
 21
28.495
  0
LINE
  8
0
 10
-113.985
 11
-114.798
 20
28.495
 21
28.495
  0
LINE
  8
0
 10
-114.798
 11
-114.798
 20
47.495
 21
50.996
  0
LINE
  8
0
 10
-114.798
 11
-113.985
 20
50.996
 21
50.996
  0
LINE
  8
0
 10
-113.985
 11
-113.985
 20
50.996
 21
56.004
  0
LINE
  8
0
 10
-113.985
 11
-114.798
 20
56.004
 21
56.004
  0
LINE
  8
0
 10
-114.798
 11
-114.798
 20
56.004
 21
59.505
  0
LINE
  8
0
 10
-114.798
 11
-113.985
 20
59.505
 21
59.505
  0
LINE
  8
0
 10
-113.985
 11
-113.985
 20
59.505
 21
60.485
  0
LINE
  8
0
 10
-113.985
 11
-100.015
 20
60.485
 21
60.485
  0
LINE
  8
0
 10
-100.015
 11
-100.015
 20
60.485
 21
59.505
  0
LINE
  8
0
 10
-100.015
 11
-99.202
 20
59.505
 21
59.505
  0
LINE
  8
0
 10
-99.202
 11
-99.202
 20
59.505
 21
56.004
  0
LINE
  8
0
 10
-99.202
 11
-100.015
 20
56.004
 21
56.004
  0
LINE
  8
0
 10
-100.015
 11
-100.015
 20
56.004
 21
50.996
  0
LINE
  8
0
 10
-100.015
 11
-99.202
 20
50.996
 21
50.996
  0
LINE
  8
0
 10
-99.202
 11
-99.202
 20
50.996
 21
47.495
  0
LINE
  8
0
 10
-99.202
 11
-100.015
 20
47.495
 21
47.495
  0
LINE
  8
0
 10
-100.015
 11
-100.015
 20
47.495
 21
46.515
  0
LINE
  8
0
 10
-100.015
 11
-113.985
 20
46.515
 21
46.515
  0
LINE
  8
0
 10
-113.985
 11
-113.985
 20
46.515
 21
47.495
  0
LINE
  8
0
 10
-113.985
 11
-114.798
 20
47.495
 21
47.495
  0
LINE
  8
0
 10
-114.798
 11
-114.798
 20
66.495
 21
69.996
  0
LINE
  8
0
 10
-114.798
 11
-113.985
 20
69.996
 21
69.996
  0
LINE
  8
0
 10
-113.985
 11
-113.985
 20
69.996
 21
75.004
  0
LINE
  8
0
 10
-113.985
 11
-114.798
 20
75.004
 21
75.004
  0
LINE
  8
0
 10
-114.798
 11
-114.798
 20
75.004
 21
78.505
  0
LINE
  8
0
 10
-114.798
 11
-113.985
 20
78.505
 21
78.505
  0
LINE
  8
0
 10
-113.985
 11
-113.985
 20
78.505
 21
79.485
  0
LINE
  8
0
 10
-113.985
 11
-100.015
 20
79.485
 21
79.485
  0
LINE
  8
0
 10
-100.015
 11
-100.015
 20
79.485
 21
78.505
  0
LINE
  8
0
 10
-100.015
 11
-99.202
 20
78.505
 21
78.505
  0
LINE
  8
0
 10
-99.202
 11
-99.202
 20
78.505
 21
75.004
  0
LINE
  8
0
 10
-99.202
 11
-100.015
 20
75.004
 21
75.004
  0
LINE
  8
0
 10
-100.015
 11
-100.015
 20
75.004
 21
69.996
  0
LINE
  8
0
 10
-100.015
 11
-99.202
 20
69.996
 21
69.996
  0
LINE
  8
0
 10
-99.202
 11
-99.202
 20
69.996
 21
66.495
  0
LINE
  8
0
 10
-99.202
 11
-100.015
 20
66.495
 21
66.495
  0
LINE
  8
0
 10
-100.015
 11
-100.015
 20
66.495
 21
65.515
  0
LINE
  8
0
 10
-100.015
 11
-113.985
 20
65.515
 21
65.515
  0
LINE
  8
0
 10
-113.985
 11
-113.985
 20
65.515
 21
66.495
  0
LINE
  8
0
 10
-113.985
 11
-114.798
 20
66.495
 21
66.495
  0
LINE
  8
0
 10
-95.798
 11
-95.798
 20
14.495
 21
17.996
  0
LINE
  8
0
 10
-95.798
 11
-94.985
 20
17.996
 21
17.996
  0
LINE
  8
0
 10
-94.985
 11
-94.985
 20
17.996
 21
23.004
  0
LINE
  8
0
 10
-94.985
 11
-95.798
 20
23.004
 21
23.004
  0
LINE
  8
0
 10
-95.798
 11
-95.798
 20
23.004
 21
26.505
  0
LINE
  8
0
 10
-95.798
 11
-94.985
 20
26.505
 21
26.505
  0
LINE
  8
0
 10
-94.985
 11
-94.985
 20
26.505
 21
27.485
  0
LINE
  8
0
 10
-94.985
 11
-81.015
 20
27.485
 21
27.485
  0
LINE
  8
0
 10
-81.015
 11
-81.015
 20
27.485
 21
26.505
  0
LINE
  8
0
 10
-81.015
 11
-80.202
 20
26.505
 21
26.505
  0
LINE
  8
0
 10
-80.202
 11
-80.202
 20
26.505
 21
23.004
  0
LINE
  8
0
 10
-80.202
 11
-81.015
 20
23.004
 21
23.004
  0
LINE
  8
0
 10
-81.015
 11
-81.015
 20
23.004
 21
17.996
  0
LINE
  8
0
 10
-81.015
 11
-80.202
 20
17.996
 21
17.996
  0
LINE
  8
0
 10
-80.202
 11
-80.202
 20
17.996
 21
14.495
  0
LINE
  8
0
 10
-80.202
 11
-81.015
 20
14.495
 21
14.495
  0
LINE
  8
0
 10
-81.015
 11
-81.015
 20
14.495
 21
13.515
  0
LINE
  8
0
 10
-81.015
 11
-94.985
 20
13.515
 21
13.515
  0
LINE
  8
0
 10
-94.985
 11
-94.985
 20
13.515
 21
14.495
  0
LINE
  8
0
 10
-94.985
 11
-95.798
 20
14.495
 21
14.495
  0
LINE
  8
0
 10
-95.798
 11
-95.798
 20
33.495
 21
36.996
  0
LINE
  8
0
 10
-95.798
 11
-94.985
 20
36.996
 21
36.996
  0
LINE
  8
0
 10
-94.985
 11
-94.985
 20
36.996
 21
42.004
  0
LINE
  8
0
 10
-94.985
 11
-95.798
 20
42.004
 21
42.004
  0
LINE
  8
0
 10
-95.798
 11
-95.798
 20
42.004
 21
45.505
  0
LINE
  8
0
 10
-95.798
 11
-94.985
 20
45.505
 21
45.505
  0
LINE
  8
0
 10
-94.985
 11
-94.985
 20
45.505
 21
46.485
  0
LINE
  8
0
 10
-94.985
 11
-81.015
 20
46.485
 21
46.485
  0
LINE
  8
0
 10
-81.015
 11
-81.015
 20
46.485
 21
45.505
  0
LINE
  8
0
 10
-81.015
 11
-80.202
 20
45.505
 21
45.505
  0
LINE
  8
0
 10
-80.202
 11
-80.202
 20
45.505
 21
42.004
  0
LINE
  8
0
 10
-80.202
 11
-81.015
 20
42.004
 21
42.004
  0
LINE
  8
0
 10
-81.015
 11
-81.015
 20
42.004
 21
36.996
  0
LINE
  8
0
 10
-81.015
 11
-80.202
 20
36.996
 21
36.996
  0
LINE
  8
0
 10
-80.202
 11
-80.202
 20
36.996
 21
33.495
  0
LINE
  8
0
 10
-80.202
 11
-81.015
 20
33.495
 21
33.495
  0
LINE
  8
0
 10
-81.015
 11
-81.015
 20
33.495
 21
32.515
  0
LINE
  8
0
 10
-81.015
 11
-94.985
 20
32.515
 21
32.515
  0
LINE
  8
0
 10
-94.985
 11
-94.985
 20
32.515
 21
33.495
  0
LINE
  8
0
 10
-94.985
 11
-95.798
 20
33.495
 21
33.495
  0
LINE
  8
0
 10
-95.798
 11
-95.798
 20
52.495
 21
55.996
  0
LINE
  8
0
 10
-95.798
 11
-94.985
 20
55.996
 21
55.996
  0
LINE
  8
0
 10
-94.985
 11
-94.985
 20
55.996
 21
61.004
  0
LINE
  8
0
 10
-94.985
 11
-95.798
 20
61.004
 21
61.004
  0
LINE
  8
0
 10
-95.798
 11
-95.798
 20
61.004
 21
64.505
  0
LINE
  8
0
 10
-95.798
 11
-94.985
 20
64.505
 21
64.505
  0
LINE
  8
0
 10
-94.985
 11
-94.985
 20
64.505
 21
65.485
  0
LINE
  8
0
 10
-94.985
 11
-81.015
 20
65.485
 21
65.485
  0
LINE
  8
0
 10
-81.015
 11
-81.015
 20
65.485
 21
64.505
  0
LINE
  8
0
 10
-81.015
 11
-80.202
 20
64.505
 21
64.505
  0
LINE
  8
0
 10
-80.202
 11
-80.202
 20
64.505
 21
61.004
  0
LINE
  8
0
 10
-80.202
 11
-81.015
 20
61.004
 21
61.004
  0
LINE
  8
0
 10
-81.015
 11
-81.015
 20
61.004
 21
55.996
  0
LINE
  8
0
 10
-81.015
 11
-80.202
 20
55.996
 21
55.996
  0
LINE
  8
0
 10
-80.202
 11
-80.202
 20
55.996
 21
52.495
  0
LINE
  8
0
 10
-80.202
 11
-81.015
 20
52.495
 21
52.495
  0
LINE
  8
0
 10
-81.015
 11
-81.015
 20
52.495
 21
51.515
  0
LINE
  8
0
 10
-81.015
 11
-94.985
 20
51.515
 21
51.515
  0
LINE
  8
0
 10
-94.985
 11
-94.985
 20
51.515
 21
52.495
  0
LINE
  8
0
 10
-94.985
 11
-95.798
 20
52.495
 21
52.495
  0
LINE
  8
0
 10
-95.798
 11
-95.798
 20
71.495
 21
74.996
  0
LINE
  8
0
 10
-95.798
 11
-94.985
 20
74.996
 21
74.996
  0
LINE
  8
0
 10
-94.985
 11
-94.985
 20
74.996
 21
80.004
  0
LINE
  8
0
 10
-94.985
 11
-95.798
 20
80.004
 21
80.004
  0
LINE
  8
0
 10
-95.798
 11
-95.798
 20
80.004
 21
83.505
  0
LINE
  8
0
 10
-95.798
 11
-94.985
 20
83.505
 21
83.505
  0
LINE
  8
0
 10
-94.985
 11
-94.985
 20
83.505
 21
84.485
  0
LINE
  8
0
 10
-94.985
 11
-81.015
 20
84.485
 21
84.485
  0
LINE
  8
0
 10
-81.015
 11
-81.015
 20
84.485
 21
83.505
  0
LINE
  8
0
 10
-81.015
 11
-80.202
 20
83.505
 21
83.505
  0
LINE
  8
0
 10
-80.202
 11
-80.202
 20
83.505
 21
80.004
  0
LINE
  8
0
 10
-80.202
 11
-81.015
 20
80.004
 21
80.004
  0
LINE
  8
0
 10
-81.015
 11
-81.015
 20
80.004
 21
74.996
  0
LINE
  8
0
 10
-81.015
 11
-80.202
 20
74.996
 21
74.996
  0
LINE
  8
0
 10
-80.202
 11
-80.202
 20
74.996
 21
71.495
  0
LINE
  8
0
 10
-80.202
 11
-81.015
 20
71.495
 21
71.495
  0
LINE
  8
0
 10
-81.015
 11
-81.015
 20
71.495
 21
70.515
  0
LINE
  8
0
 10
-81.015
 11
-94.985
 20
70.515
 21
70.515
  0
LINE
  8
0
 10
-94.985
 11
-94.985
 20
70.515
 21
71.495
  0
LINE
  8
0
 10
-94.985
 11
-95.798
 20
71.495
 21
71.495
  0
LINE
  8
0
 10
-76.798
 11
-76.798
 20
8.495
 21
11.996
  0
LINE
  8
0
 10
-76.798
 11
-75.985
 20
11.996
 21
11.996
  0
LINE
  8
0
 10
-75.985
 11
-75.985
 20
11.996
 21
17.004
  0
LINE
  8
0
 10
-75.985
 11
-76.798
 20
17.004
 21
17.004
  0
LINE
  8
0
 10
-76.798
 11
-76.798
 20
17.004
 21
20.505
  0
LINE
  8
0
 10
-76.798
 11
-75.985
 20
20.505
 21
20.505
  0
LINE
  8
0
 10
-75.985
 11
-75.985
 20
20.505
 21
21.485
  0
LINE
  8
0
 10
-75.985
 11
-62.015
 20
21.485
 21
21.485
  0
LINE
  8
0
 10
-62.015
 11
-62.015
 20
21.485
 21
20.505
  0
LINE
  8
0
 10
-62.015
 11
-61.202
 20
20.505
 21
20.505
  0
LINE
  8
0
 10
-61.202
 11
-61.202
 20
20.505
 21
17.004
  0
LINE
  8
0
 10
-61.202
 11
-62.015
 20
17.004
 21
17.004
  0
LINE
  8
0
 10
-62.015
 11
-62.015
 20
17.004
 21
11.996
  0
LINE
  8
0
 10
-62.015
 11
-61.202
 20
11.996
 21
11.996
  0
LINE
  8
0
 10
-61.202
 11
-61.202
 20
11.996
 21
8.495
  0
LINE
  8
0
 10
-61.202
 11
-62.015
 20
8.495
 21
8.495
  0
LINE
  8
0
 10
-62.015
 11
-62.015
 20
8.495
 21
7.515
  0
LINE
  8
0
 10
-62.015
 11
-75.985
 20
7.515
 21
7.515
  0
LINE
  8
0
 10
-75.985
 11
-75.985
 20
7.515
 21
8.495
  0
LINE
  8
0
 10
-75.985
 11
-76.798
 20
8.495
 21
8.495
  0
LINE
  8
0
 10
-76.798
 11
-76.798
 20
27.495
 21
30.996
  0
LINE
  8
0
 10
-76.798
 11
-75.985
 20
30.996
 21
30.996
  0
LINE
  8
0
 10
-75.985
 11
-75.985
 20
30.996
 21
36.004
  0
LINE
  8
0
 10
-75.985
 11
-76.798
 20
36.004
 21
36.004
  0
LINE
  8
0
 10
-76.798
 11
-76.798
 20
36.004
 21
39.505
  0
LINE
  8
0
 10
-76.798
 11
-75.985
 20
39.505
 21
39.505
  0
LINE
  8
0
 10
-75.985
 11
-75.985
 20
39.505
 21
40.485
  0
LINE
  8
0
 10
-75.985
 11
-62.015
 20
40.485
 21
40.485
  0
LINE
  8
0
 10
-62.015
 11
-62.015
 20
40.485
 21
39.505
  0
LINE
  8
0
 10
-62.015
 11
-61.202
 20
39.505
 21
39.505
  0
LINE
  8
0
 10
-61.202
 11
-61.202
 20
39.505
 21
36.004
  0
LINE
  8
0
 10
-61.202
 11
-62.015
 20
36.004
 21
36.004
  0
LINE
  8
0
 10
-62.015
 11
-62.015
 20
36.004
 21
30.996
  0
LINE
  8
0
 10
-62.015
 11
-61.202
 20
30.996
 21
30.996
  0
LINE
  8
0
 10
-61.202
 11
-61.202
 20
30.996
 21
27.495
  0
LINE
  8
0
 10
-61.202
 11
-62.015
 20
27.495
 21
27.495
  0
LINE
  8
0
 10
-62.015
 11
-62.015
 20
27.495
 21
26.515
  0
LINE
  8
0
 10
-62.015
 11
-75.985
 20
26.515
 21
26.515
  0
LINE
  8
0
 10
-75.985
 11
-75.985
 20
26.515
 21
27.495
  0
LINE
  8
0
 10
-75.985
 11
-76.798
 20
27.495
 21
27.495
  0
LINE
  8
0
 10
-76.798
 11
-76.798
 20
46.495
 21
49.996
  0
LINE
  8
0
 10
-76.798
 11
-75.985
 20
49.996
 21
49.996
  0
LINE
  8
0
 10
-75.985
 11
-75.985
 20
49.996
 21
55.004
  0
LINE
  8
0
 10
-75.985
 11
-76.798
 20
55.004
 21
55.004
  0
LINE
  8
0
 10
-76.798
 11
-76.798
 20
55.004
 21
58.505
  0
LINE
  8
0
 10
-76.798
 11
-75.985
 20
58.505
 21
58.505
  0
LINE
  8
0
 10
-75.985
 11
-75.985
 20
58.505
 21
59.485
  0
LINE
  8
0
 10
-75.985
 11
-62.015
 20
59.485
 21
59.485
  0
LINE
  8
0
 10
-62.015
 11
-62.015
 20
59.485
 21
58.505
  0
LINE
  8
0
 10
-62.015
 11
-61.202
 20
58.505
 21
58.505
  0
LINE
  8
0
 10
-61.202
 11
-61.202
 20
58.505
 21
55.004
  0
LINE
  8
0
 10
-61.202
 11
-62.015
 20
55.004
 21
55.004
  0
LINE
  8
0
 10
-62.015
 11
-62.015
 20
55.004
 21
49.996
  0
LINE
  8
0
 10
-62.015
 11
-61.202
 20
49.996
 21
49.996
  0
LINE
  8
0
 10
-61.202
 11
-61.202
 20
49.996
 21
46.495
  0
LINE
  8
0
 10
-61.202
 11
-62.015
 20
46.495
 21
46.495
  0
LINE
  8
0
 10
-62.015
 11
-62.015
 20
46.495
 21
45.515
  0
LINE
  8
0
 10
-62.015
 11
-75.985
 20
45.515
 21
45.515
  0
LINE
  8
0
 10
-75.985
 11
-75.985
 20
45.515
 21
46.495
  0
LINE
  8
0
 10
-75.985
 11
-76.798
 20
46.495
 21
46.495
  0
LINE
  8
0
 10
-76.798
 11
-76.798
 20
65.495
 21
68.996
  0
LINE
  8
0
 10
-76.798
 11
-75.985
 20
68.996
 21
68.996
  0
LINE
  8
0
 10
-75.985
 11
-75.985
 20
68.996
 21
74.004
  0
LINE
  8
0
 10
-75.985
 11
-76.798
 20
74.004
 21
74.004
  0
LINE
  8
0
 10
-76.798
 11
-76.798
 20
74.004
 21
77.505
  0
LINE
  8
0
 10
-76.798
 11
-75.985
 20
77.505
 21
77.505
  0
LINE
  8
0
 10
-75.985
 11
-75.985
 20
77.505
 21
78.485
  0
LINE
  8
0
 10
-75.985
 11
-62.015
 20
78.485
 21
78.485
  0
LINE
  8
0
 10
-62.015
 11
-62.015
 20
78.485
 21
77.505
  0
LINE
  8
0
 10
-62.015
 11
-61.202
 20
77.505
 21
77.505
  0
LINE
  8
0
 10
-61.202
 11
-61.202
 20
77.505
 21
74.004
  0
LINE
  8
0
 10
-61.202
 11
-62.015
 20
74.004
 21
74.004
  0
LINE
  8
0
 10
-62.015
 11
-62.015
 20
74.004
 21
68.996
  0
LINE
  8
0
 10
-62.015
 11
-61.202
 20
68.996
 21
68.996
  0
LINE
  8
0
 10
-61.202
 11
-61.202
 20
68.996
 21
65.495
  0
LINE
  8
0
 10
-61.202
 11
-62.015
 20
65.495
 21
65.495
  0
LINE
  8
0
 10
-62.015
 11
-62.015
 20
65.495
 21
64.515
  0
LINE
  8
0
 10
-62.015
 11
-75.985
 20
64.515
 21
64.515
  0
LINE
  8
0
 10
-75.985
 11
-75.985
 20
64.515
 21
65.495
  0
LINE
  8
0
 10
-75.985
 11
-76.798
 20
65.495
 21
65.495
  0
LINE
  8
0
 10
-57.798
 11
-57.798
 20
3.495
 21
6.996
  0
LINE
  8
0
 10
-57.798
 11
-56.985
 20
6.996
 21
6.996
  0
LINE
  8
0
 10
-56.985
 11
-56.985
 20
6.996
 21
12.004
  0
LINE
  8
0
 10
-56.985
 11
-57.798
 20
12.004
 21
12.004
  0
LINE
  8
0
 10
-57.798
 11
-57.798
 20
12.004
 21
15.505
  0
LINE
  8
0
 10
-57.798
 11
-56.985
 20
15.505
 21
15.505
  0
LINE
  8
0
 10
-56.985
 11
-56.985
 20
15.505
 21
16.485
  0
LINE
  8
0
 10
-56.985
 11
-43.015
 20
16.485
 21
16.485
  0
LINE
  8
0
 10
-43.015
 11
-43.015
 20
16.485
 21
15.505
  0
LINE
  8
0
 10
-43.015
 11
-42.202
 20
15.505
 21
15.505
  0
LINE
  8
0
 10
-42.202
 11
-42.202
 20
15.505
 21
12.004
  0
LINE
  8
0
 10
-42.202
 11
-43.015
 20
12.004
 21
12.004
  0
LINE
  8
0
 10
-43.015
 11
-43.015
 20
12.004
 21
6.996
  0
LINE
  8
0
 10
-43.015
 11
-42.202
 20
6.996
 21
6.996
  0
LINE
  8
0
 10
-42.202
 11
-42.202
 20
6.996
 21
3.495
  0
LINE
  8
0
 10
-42.202
 11
-43.015
 20
3.495
 21
3.495
  0
LINE
  8
0
 10
-43.015
 11
-43.015
 20
3.495
 21
2.515
  0
LINE
  8
0
 10
-43.015
 11
-56.985
 20
2.515
 21
2.515
  0
LINE
  8
0
 10
-56.985
 11
-56.985
 20
2.515
 21
3.495
  0
LINE
  8
0
 10
-56.985
 11
-57.798
 20
3.495
 21
3.495
  0
LINE
  8
0
 10
-57.798
 11
-57.798
 20
22.495
 21
25.996
  0
LINE
  8
0
 10
-57.798
 11
-56.985
 20
25.996
 21
25.996
  0
LINE
  8
0
 10
-56.985
 11
-56.985
 20
25.996
 21
31.004
  0
LINE
  8
0
 10
-56.985
 11
-57.798
 20
31.004
 21
31.004
  0
LINE
  8
0
 10
-57.798
 11
-57.798
 20
31.004
 21
34.505
  0
LINE
  8
0
 10
-57.798
 11
-56.985
 20
34.505
 21
34.505
  0
LINE
  8
0
 10
-56.985
 11
-56.985
 20
34.505
 21
35.485
  0
LINE
  8
0
 10
-56.985
 11
-43.015
 20
35.485
 21
35.485
  0
LINE
  8
0
 10
-43.015
 11
-43.015
 20
35.485
 21
34.505
  0
LINE
  8
0
 10
-43.015
 11
-42.202
 20
34.505
 21
34.505
  0
LINE
  8
0
 10
-42.202
 11
-42.202
 20
34.505
 21
31.004
  0
LINE
  8
0
 10
-42.202
 11
-43.015
 20
31.004
 21
31.004
  0
LINE
  8
0
 10
-43.015
 11
-43.015
 20
31.004
 21
25.996
  0
LINE
  8
0
 10
-43.015
 11
-42.202
 20
25.996
 21
25.996
  0
LINE
  8
0
 10
-42.202
 11
-42.202
 20
25.996
 21
22.495
  0
LINE
  8
0
 10
-42.202
 11
-43.015
 20
22.495
 21
22.495
  0
LINE
  8
0
 10
-43.015
 11
-43.015
 20
22.495
 21
21.515
  0
LINE
  8
0
 10
-43.015
 11
-56.985
 20
21.515
 21
21.515
  0
LINE
  8
0
 10
-56.985
 11
-56.985
 20
21.515
 21
22.495
  0
LINE
  8
0
 10
-56.985
 11
-57.798
 20
22.495
 21
22.495
  0
LINE
  8
0
 10
-57.798
 11
-57.798
 20
41.495
 21
44.996
  0
LINE
  8
0
 10
-57.798
 11
-56.985
 20
44.996
 21
44.996
  0
LINE
  8
0
 10
-56.985
 11
-56.985
 20
44.996
 21
50.004
  0
LINE
  8
0
 10
-56.985
 11
-57.798
 20
50.004
 21
50.004
  0
LINE
  8
0
 10
-57.798
 11
-57.798
 20
50.004
 21
53.505
  0
LINE
  8
0
 10
-57.798
 11
-56.985
 20
53.505
 21
53.505
  0
LINE
  8
0
 10
-56.985
 11
-56.985
 20
53.505
 21
54.485
  0
LINE
  8
0
 10
-56.985
 11
-43.015
 20
54.485
 21
54.485
  0
LINE
  8
0
 10
-43.015
 11
-43.015
 20
54.485
 21
53.505
  0
LINE
  8
0
 10
-43.015
 11
-42.202
 20
53.505
 21
53.505
  0
LINE
  8
0
 10
-42.202
 11
-42.202
 20
53.505
 21
50.004
  0
LINE
  8
0
 10
-42.202
 11
-43.015
 20
50.004
 21
50.004
  0
LINE
  8
0
 10
-43.015
 11
-43.015
 20
50.004
 21
44.996
  0
LINE
  8
0
 10
-43.015
 11
-42.202
 20
44.996
 21
44.996
  0
LINE
  8
0
 10
-42.202
 11
-42.202
 20
44.996
 21
41.495
  0
LINE
  8
0
 10
-42.202
 11
-43.015
 20
41.495
 21
41.495
  0
LINE
  8
0
 10
-43.015
 11
-43.015
 20
41.495
 21
40.515
  0
LINE
  8
0
 10
-43.015
 11
-56.985
 20
40.515
 21
40.515
  0
LINE
  8
0
 10
-56.985
 11
-56.985
 20
40.515
 21
41.495
  0
LINE
  8
0
 10
-56.985
 11
-57.798
 20
41.495
 21
41.495
  0
LINE
  8
0
 10
-57.798
 11
-57.798
 20
60.495
 21
63.996
  0
LINE
  8
0
 10
-57.798
 11
-56.985
 20
63.996
 21
63.996
  0
LINE
  8
0
 10
-56.985
 11
-56.985
 20
63.996
 21
69.004
  0
LINE
  8
0
 10
-56.985
 11
-57.798
 20
69.004
 21
69.004
  0
LINE
  8
0
 10
-57.798
 11
-57.798
 20
69.004
 21
72.505
  0
LINE
  8
0
 10
-57.798
 11
-56.985
 20
72.505
 21
72.505
  0
LINE
  8
0
 10
-56.985
 11
-56.985
 20
72.505
 21
73.485
  0
LINE
  8
0
 10
-56.985
 11
-43.015
 20
73.485
 21
73.485
  0
LINE
  8
0
 10
-43.015
 11
-43.015
 20
73.485
 21
72.505
  0
LINE
  8
0
 10
-43.015
 11
-42.202
 20
72.505
 21
72.505
  0
LINE
  8
0
 10
-42.202
 11
-42.202
 20
72.505
 21
69.004
  0
LINE
  8
0
 10
-42.202
 11
-43.015
 20
69.004
 21
69.004
  0
LINE
  8
0
 10
-43.015
 11
-43.015
 20
69.004
 21
63.996
  0
LINE
  8
0
 10
-43.015
 11
-42.202
 20
63.996
 21
63.996
  0
LINE
  8
0
 10
-42.202
 11
-42.202
 20
63.996
 21
60.495
  0
LINE
  8
0
 10
-42.202
 11
-43.015
 20
60.495
 21
60.495
  0
LINE
  8
0
 10
-43.015
 11
-43.015
 20
60.495
 21
59.515
  0
LINE
  8
0
 10
-43.015
 11
-56.985
 20
59.515
 21
59.515
  0
LINE
  8
0
 10
-56.985
 11
-56.985
 20
59.515
 21
60.495
  0
LINE
  8
0
 10
-56.985
 11
-57.798
 20
60.495
 21
60.495
  0
LINE
  8
0
 10
-38.798
 11
-38.798
 20
12.995
 21
16.496
  0
LINE
  8
0
 10
-38.798
 11
-37.985
 20
16.496
 21
16.496
  0
LINE
  8
0
 10
-37.985
 11
-37.985
 20
16.496
 21
21.504
  0
LINE
  8
0
 10
-37.985
 11
-38.798
 20
21.504
 21
21.504
  0
LINE
  8
0
 10
-38.798
 11
-38.798
 20
21.504
 21
25.005
  0
LINE
  8
0
 10
-38.798
 11
-37.985
 20
25.005
 21
25.005
  0
LINE
  8
0
 10
-37.985
 11
-37.985
 20
25.005
 21
25.985
  0
LINE
  8
0
 10
-37.985
 11
-24.015
 20
25.985
 21
25.985
  0
LINE
  8
0
 10
-24.015
 11
-24.015
 20
25.985
 21
25.005
  0
LINE
  8
0
 10
-24.015
 11
-23.202
 20
25.005
 21
25.005
  0
LINE
  8
0
 10
-23.202
 11
-23.202
 20
25.005
 21
21.504
  0
LINE
  8
0
 10
-23.202
 11
-24.015
 20
21.504
 21
21.504
  0
LINE
  8
0
 10
-24.015
 11
-24.015
 20
21.504
 21
16.496
  0
LINE
  8
0
 10
-24.015
 11
-23.202
 20
16.496
 21
16.496
  0
LINE
  8
0
 10
-23.202
 11
-23.202
 20
16.496
 21
12.995
  0
LINE
  8
0
 10
-23.202
 11
-24.015
 20
12.995
 21
12.995
  0
LINE
  8
0
 10
-24.015
 11
-24.015
 20
12.995
 21
12.015
  0
LINE
  8
0
 10
-24.015
 11
-37.985
 20
12.015
 21
12.015
  0
LINE
  8
0
 10
-37.985
 11
-37.985
 20
12.015
 21
12.995
  0
LINE
  8
0
 10
-37.985
 11
-38.798
 20
12.995
 21
12.995
  0
LINE
  8
0
 10
-19.798
 11
-19.798
 20
12.995
 21
16.496
  0
LINE
  8
0
 10
-19.798
 11
-18.985
 20
16.496
 21
16.496
  0
LINE
  8
0
 10
-18.985
 11
-18.985
 20
16.496
 21
21.504
  0
LINE
  8
0
 10
-18.985
 11
-19.798
 20
21.504
 21
21.504
  0
LINE
  8
0
 10
-19.798
 11
-19.798
 20
21.504
 21
25.005
  0
LINE
  8
0
 10
-19.798
 11
-18.985
 20
25.005
 21
25.005
  0
LINE
  8
0
 10
-18.985
 11
-18.985
 20
25.005
 21
25.985
  0
LINE
  8
0
 10
-18.985
 11
-5.015
 20
25.985
 21
25.985
  0
LINE
  8
0
 10
-5.015
 11
-5.015
 20
25.985
 21
25.005
  0
LINE
  8
0
 10
-5.015
 11
-4.202
 20
25.005
 21
25.005
  0
LINE
  8
0
 10
-4.202
 11
-4.202
 20
25.005
 21
21.504
  0
LINE
  8
0
 10
-4.202
 11
-5.015
 20
21.504
 21
21.504
  0
LINE
  8
0
 10
-5.015
 11
-5.015
 20
21.504
 21
16.496
  0
LINE
  8
0
 10
-5.015
 11
-4.202
 20
16.496
 21
16.496
  0
LINE
  8
0
 10
-4.202
 11
-4.202
 20
16.496
 21
12.995
  0
LINE
  8
0
 10
-4.202
 11
-5.015
 20
12.995
 21
12.995
  0
LINE
  8
0
 10
-5.015
 11
-5.015
 20
12.995
 21
12.015
  0
LINE
  8
0
 10
-5.015
 11
-18.985
 20
12.015
 21
12.015
  0
LINE
  8
0
 10
-18.985
 11
-18.985
 20
12.015
 21
12.995
  0
LINE
  8
0
 10
-18.985
 11
-19.798
 20
12.995
 21
12.995
  0
LINE
  8
0
 10
-19.443
 11
-19.431
 20
-3.557
 21
-3.369
  0
LINE
  8
0
 10
-19.431
 11
-19.396
 20
-3.369
 21
-3.184
  0
LINE
  8
0
 10
-19.396
 11
-19.338
 20
-3.184
 21
-3.005
  0
LINE
  8
0
 10
-19.338
 11
-19.257
 20
-3.005
 21
-2.834
  0
LINE
  8
0
 10
-19.257
 11
-19.157
 20
-2.834
 21
-2.675
  0
LINE
  8
0
 10
-19.157
 11
-19.036
 20
-2.675
 21
-2.53
  0
LINE
  8
0
 10
-19.036
 11
-18.899
 20
-2.53
 21
-2.401
  0
LINE
  8
0
 10
-18.899
 11
-18.747
 20
-2.401
 21
-2.291
  0
LINE
  8
0
 10
-18.747
 11
-18.582
 20
-2.291
 21
-2.2
  0
LINE
  8
0
 10
-18.582
 11
-18.407
 20
-2.2
 21
-2.13
  0
LINE
  8
0
 10
-18.407
 11
-18.224
 20
-2.13
 21
-2.084
  0
LINE
  8
0
 10
-18.224
 11
-18.037
 20
-2.084
 21
-2.06
  0
LINE
  8
0
 10
-18.037
 11
-17.849
 20
-2.06
 21
-2.06
  0
LINE
  8
0
 10
-17.849
 11
-17.662
 20
-2.06
 21
-2.084
  0
LINE
  8
0
 10
-17.662
 11
-17.479
 20
-2.084
 21
-2.13
  0
LINE
  8
0
 10
-17.479
 11
-17.304
 20
-2.13
 21
-2.2
  0
LINE
  8
0
 10
-17.304
 11
-17.139
 20
-2.2
 21
-2.291
  0
LINE
  8
0
 10
-17.139
 11
-16.987
 20
-2.291
 21
-2.401
  0
LINE
  8
0
 10
-16.987
 11
-16.85
 20
-2.401
 21
-2.53
  0
LINE
  8
0
 10
-16.85
 11
-16.729
 20
-2.53
 21
-2.675
  0
LINE
  8
0
 10
-16.729
 11
-16.629
 20
-2.675
 21
-2.834
  0
LINE
  8
0
 10
-16.629
 11
-16.548
 20
-2.834
 21
-3.005
  0
LINE
  8
0
 10
-16.548
 11
-16.49
 20
-3.005
 21
-3.184
  0
LINE
  8
0
 10
-16.49
 11
-16.455
 20
-3.184
 21
-3.369
  0
LINE
  8
0
 10
-16.455
 11
-16.443
 20
-3.369
 21
-3.557
  0
LINE
  8
0
 10
-16.443
 11
-16.455
 20
-3.557
 21
-3.745
  0
LINE
  8
0
 10
-16.455
 11
-16.49
 20
-3.745
 21
-3.93
  0
LINE
  8
0
 10
-16.49
 11
-16.548
 20
-3.93
 21
-4.109
  0
LINE
  8
0
 10
-16.548
 11
-16.629
 20
-4.109
 21
-4.28
  0
LINE
  8
0
 10
-16.629
 11
-16.729
 20
-4.28
 21
-4.439
  0
LINE
  8
0
 10
-16.729
 11
-16.85
 20
-4.439
 21
-4.584
  0
LINE
  8
0
 10
-16.85
 11
-16.987
 20
-4.584
 21
-4.713
  0
LINE
  8
0
 10
-16.987
 11
-17.139
 20
-4.713
 21
-4.823
  0
LINE
  8
0
 10
-17.139
 11
-17.304
 20
-4.823
 21
-4.914
  0
LINE
  8
0
 10
-17.304
 11
-17.479
 20
-4.914
 21
-4.984
  0
LINE
  8
0
 10
-17.479
 11
-17.662
 20
-4.984
 21
-5.03
  0
LINE
  8
0
 10
-17.662
 11
-17.849
 20
-5.03
 21
-5.054
  0
LINE
  8
0
 10
-17.849
 11
-18.037
 20
-5.054
 21
-5.054
  0
LINE
  8
0
 10
-18.037
 11
-18.224
 20
-5.054
 21
-5.03
  0
LINE
  8
0
 10
-18.224
 11
-18.407
 20
-5.03
 21
-4.984
  0
LINE
  8
0
 10
-18.407
 11
-18.582
 20
-4.984
 21
-4.914
  0
LINE
  8
0
 10
-18.582
 11
-18.747
 20
-4.914
 21
-4.823
  0
LINE
  8
0
 10
-18.747
 11
-18.899
 20
-4.823
 21
-4.713
  0
LINE
  8
0
 10
-18.899
 11
-19.036
 20
-4.713
 21
-4.584
  0
LINE
  8
0
 10
-19.036
 11
-19.157
 20
-4.584
 21
-4.439
  0
LINE
  8
0
 10
-19.157
 11
-19.257
 20
-4.439
 21
-4.28
  0
LINE
  8
0
 10
-19.257
 11
-19.338
 20
-4.28
 21
-4.109
  0
LINE
  8
0
 10
-19.338
 11
-19.396
 20
-4.109
 21
-3.93
  0
LINE
  8
0
 10
-19.396
 11
-19.431
 20
-3.93
 21
-3.745
  0
LINE
  8
0
 10
-19.431
 11
-19.443
 20
-3.745
 21
-3.557
  0
LINE
  8
0
 10
-13.557
 11
-13.545
 20
82.557
 21
82.745
  0
LINE
  8
0
 10
-13.545
 11
-13.51
 20
82.745
 21
82.93
  0
LINE
  8
0
 10
-13.51
 11
-13.452
 20
82.93
 21
83.109
  0
LINE
  8
0
 10
-13.452
 11
-13.371
 20
83.109
 21
83.28
  0
LINE
  8
0
 10
-13.371
 11
-13.271
 20
83.28
 21
83.439
  0
LINE
  8
0
 10
-13.271
 11
-13.15
 20
83.439
 21
83.584
  0
LINE
  8
0
 10
-13.15
 11
-13.013
 20
83.584
 21
83.713
  0
LINE
  8
0
 10
-13.013
 11
-12.861
 20
83.713
 21
83.823
  0
LINE
  8
0
 10
-12.861
 11
-12.696
 20
83.823
 21
83.914
  0
LINE
  8
0
 10
-12.696
 11
-12.521
 20
83.914
 21
83.984
  0
LINE
  8
0
 10
-12.521
 11
-12.338
 20
83.984
 21
84.03
  0
LINE
  8
0
 10
-12.338
 11
-12.151
 20
84.03
 21
84.054
  0
LINE
  8
0
 10
-12.151
 11
-11.963
 20
84.054
 21
84.054
  0
LINE
  8
0
 10
-11.963
 11
-11.776
 20
84.054
 21
84.03
  0
LINE
  8
0
 10
-11.776
 11
-11.593
 20
84.03
 21
83.984
  0
LINE
  8
0
 10
-11.593
 11
-11.418
 20
83.984
 21
83.914
  0
LINE
  8
0
 10
-11.418
 11
-11.253
 20
83.914
 21
83.823
  0
LINE
  8
0
 10
-11.253
 11
-11.101
 20
83.823
 21
83.713
  0
LINE
  8
0
 10
-11.101
 11
-10.964
 20
83.713
 21
83.584
  0
LINE
  8
0
 10
-10.964
 11
-10.843
 20
83.584
 21
83.439
  0
LINE
  8
0
 10
-10.843
 11
-10.743
 20
83.439
 21
83.28
  0
LINE
  8
0
 10
-10.743
 11
-10.662
 20
83.28
 21
83.109
  0
LINE
  8
0
 10
-10.662
 11
-10.604
 20
83.109
 21
82.93
  0
LINE
  8
0
 10
-10.604
 11
-10.569
 20
82.93
 21
82.745
  0
LINE
  8
0
 10
-10.569
 11
-10.557
 20
82.745
 21
82.557
  0
LINE
  8
0
 10
-10.557
 11
-10.569
 20
82.557
 21
82.369
  0
LINE
  8
0
 10
-10.569
 11
-10.604
 20
82.369
 21
82.184
  0
LINE
  8
0
 10
-10.604
 11
-10.662
 20
82.184
 21
82.005
  0
LINE
  8
0
 10
-10.662
 11
-10.743
 20
82.005
 21
81.834
  0
LINE
  8
0
 10
-10.743
 11
-10.843
 20
81.834
 21
81.675
  0
LINE
  8
0
 10
-10.843
 11
-10.964
 20
81.675
 21
81.53
  0
LINE
  8
0
 10
-10.964
 11
-11.101
 20
81.53
 21
81.401
  0
LINE
  8
0
 10
-11.101
 11
-11.253
 20
81.401
 21
81.291
  0
LINE
  8
0
 10
-11.253
 11
-11.418
 20
81.291
 21
81.2
  0
LINE
  8
0
 10
-11.418
 11
-11.593
 20
81.2
 21
81.13
  0
LINE
  8
0
 10
-11.593
 11
-11.776
 20
81.13
 21
81.084
  0
LINE
  8
0
 10
-11.776
 11
-11.963
 20
81.084
 21
81.06
  0
LINE
  8
0
 10
-11.963
 11
-12.151
 20
81.06
 21
81.06
  0
LINE
  8
0
 10
-12.151
 11
-12.338
 20
81.06
 21
81.084
  0
LINE
  8
0
 10
-12.338
 11
-12.521
 20
81.084
 21
81.13
  0
LINE
  8
0
 10
-12.521
 11
-12.696
 20
81.13
 21
81.2
  0
LINE
  8
0
 10
-12.696
 11
-12.861
 20
81.2
 21
81.291
  0
LINE
  8
0
 10
-12.861
 11
-13.013
 20
81.291
 21
81.401
  0
LINE
  8
0
 10
-13.013
 11
-13.15
 20
81.401
 21
81.53
  0
LINE
  8
0
 10
-13.15
 11
-13.271
 20
81.53
 21
81.675
  0
LINE
  8
0
 10
-13.271
 11
-13.371
 20
81.675
 21
81.834
  0
LINE
  8
0
 10
-13.371
 11
-13.452
 20
81.834
 21
82.005
  0
LINE
  8
0
 10
-13.452
 11
-13.51
 20
82.005
 21
82.184
  0
LINE
  8
0
 10
-13.51
 11
-13.545
 20
82.184
 21
82.369
  0
LINE
  8
0
 10
-13.545
 11
-13.557
 20
82.369
 21
82.557
  0
LINE
  8
0
 10
4.202
 11
4.202
 20
12.995
 21
16.496
  0
LINE
  8
0
 10
4.202
 11
5.015
 20
16.496
 21
16.496
  0
LINE
  8
0
 10
5.015
 11
5.015
 20
16.496
 21
21.504
  0
LINE
  8
0
 10
5.015
 11
4.202
 20
21.504
 21
21.504
  0
LINE
  8
0
 10
4.202
 11
4.202
 20
21.504
 21
25.005
  0
LINE
  8
0
 10
4.202
 11
5.015
 20
25.005
 21
25.005
  0
LINE
  8
0
 10
5.015
 11
5.015
 20
25.005
 21
25.985
  0
LINE
  8
0
 10
5.015
 11
18.985
 20
25.985
 21
25.985
  0
LINE
  8
0
 10
18.985
 11
18.985
 20
25.985
 21
25.005
  0
LINE
  8
0
 10
18.985
 11
19.798
 20
25.005
 21
25.005
  0
LINE
  8
0
 10
19.798
 11
19.798
 20
25.005
 21
21.504
  0
LINE
  8
0
 10
19.798
 11
18.985
 20
21.504
 21
21.504
  0
LINE
  8
0
 10
18.985
 11
18.985
 20
21.504
 21
16.496
  0
LINE
  8
0
 10
18.985
 11
19.798
 20
16.496
 21
16.496
  0
LINE
  8
0
 10
19.798
 11
19.798
 20
16.496
 21
12.995
  0
LINE
  8
0
 10
19.798
 11
18.985
 20
12.995
 21
12.995
  0
LINE
  8
0
 10
18.985
 11
18.985
 20
12.995
 21
12.015
  0
LINE
  8
0
 10
18.985
 11
5.015
 20
12.015
 21
12.015
  0
LINE
  8
0
 10
5.015
 11
5.015
 20
12.015
 21
12.995
  0
LINE
  8
0
 10
5.015
 11
4.202
 20
12.995
 21
12.995
  0
LINE
  8
0
 10
10.557
 11
10.569
 20
82.557
 21
82.745
  0
LINE
  8
0
 10
10.569
 11
10.604
 20
82.745
 21
82.93
  0
LINE
  8
0
 10
10.604
 11
10.662
 20
82.93
 21
83.109
  0
LINE
  8
0
 10
10.662
 11
10.743
 20
83.109
 21
83.28
  0
LINE
  8
0
 10
10.743
 11
10.843
 20
83.28
 21
83.439
  0
LINE
  8
0
 10
10.843
 11
10.964
 20
83.439
 21
83.584
  0
LINE
  8
0
 10
10.964
 11
11.101
 20
83.584
 21
83.713
  0
LINE
  8
0
 10
11.101
 11
11.253
 20
83.713
 21
83.823
  0
LINE
  8
0
 10
11.253
 11
11.418
 20
83.823
 21
83.914
  0
LINE
  8
0
 10
11.418
 11
11.593
 20
83.914
 21
83.984
  0
LINE
  8
0
 10
11.593
 11
11.776
 20
83.984
 21
84.03
  0
LINE
  8
0
 10
11.776
 11
11.963
 20
84.03
 21
84.054
  0
LINE
  8
0
 10
11.963
 11
12.151
 20
84.054
 21
84.054
  0
LINE
  8
0
 10
12.151
 11
12.338
 20
84.054
 21
84.03
  0
LINE
  8
0
 10
12.338
 11
12.521
 20
84.03
 21
83.984
  0
LINE
  8
0
 10
12.521
 11
12.696
 20
83.984
 21
83.914
  0
LINE
  8
0
 10
12.696
 11
12.861
 20
83.914
 21
83.823
  0
LINE
  8
0
 10
12.861
 11
13.013
 20
83.823
 21
83.713
  0
LINE
  8
0
 10
13.013
 11
13.15
 20
83.713
 21
83.584
  0
LINE
  8
0
 10
13.15
 11
13.271
 20
83.584
 21
83.439
  0
LINE
  8
0
 10
13.271
 11
13.371
 20
83.439
 21
83.28
  0
LINE
  8
0
 10
13.371
 11
13.452
 20
83.28
 21
83.109
  0
LINE
  8
0
 10
13.452
 11
13.51
 20
83.109
 21
82.93
  0
LINE
  8
0
 10
13.51
 11
13.545
 20
82.93
 21
82.745
  0
LINE
  8
0
 10
13.545
 11
13.557
 20
82.745
 21
82.557
  0
LINE
  8
0
 10
13.557
 11
13.545
 20
82.557
 21
82.369
  0
LINE
  8
0
 10
13.545
 11
13.51
 20
82.369
 21
82.184
  0
LINE
  8
0
 10
13.51
 11
13.452
 20
82.184
 21
82.005
  0
LINE
  8
0
 10
13.452
 11
13.371
 20
82.005
 21
81.834
  0
LINE
  8
0
 10
13.371
 11
13.271
 20
81.834
 21
81.675
  0
LINE
  8
0
 10
13.271
 11
13.15
 20
81.675
 21
81.53
  0
LINE
  8
0
 10
13.15
 11
13.013
 20
81.53
 21
81.401
  0
LINE
  8
0
 10
13.013
 11
12.861
 20
81.401
 21
81.291
  0
LINE
  8
0
 10
12.861
 11
12.696
 20
81.291
 21
81.2
  0
LINE
  8
0
 10
12.696
 11
12.521
 20
81.2
 21
81.13
  0
LINE
  8
0
 10
12.521
 11
12.338
 20
81.13
 21
81.084
  0
LINE
  8
0
 10
12.338
 11
12.151
 20
81.084
 21
81.06
  0
LINE
  8
0
 10
12.151
 11
11.963
 20
81.06
 21
81.06
  0
LINE
  8
0
 10
11.963
 11
11.776
 20
81.06
 21
81.084
  0
LINE
  8
0
 10
11.776
 11
11.593
 20
81.084
 21
81.13
  0
LINE
  8
0
 10
11.593
 11
11.418
 20
81.13
 21
81.2
  0
LINE
  8
0
 10
11.418
 11
11.253
 20
81.2
 21
81.291
  0
LINE
  8
0
 10
11.253
 11
11.101
 20
81.291
 21
81.401
  0
LINE
  8
0
 10
11.101
 11
10.964
 20
81.401
 21
81.53
  0
LINE
  8
0
 10
10.964
 11
10.843
 20
81.53
 21
81.675
  0
LINE
  8
0
 10
10.843
 11
10.743
 20
81.675
 21
81.834
  0
LINE
  8
0
 10
10.743
 11
10.662
 20
81.834
 21
82.005
  0
LINE
  8
0
 10
10.662
 11
10.604
 20
82.005
 21
82.184
  0
LINE
  8
0
 10
10.604
 11
10.569
 20
82.184
 21
82.369
  0
LINE
  8
0
 10
10.569
 11
10.557
 20
82.369
 21
82.557
  0
LINE
  8
0
 10
16.443
 11
16.455
 20
-3.557
 21
-3.369
  0
LINE
  8
0
 10
16.455
 11
16.49
 20
-3.369
 21
-3.184
  0
LINE
  8
0
 10
16.49
 11
16.548
 20
-3.184
 21
-3.005
  0
LINE
  8
0
 10
16.548
 11
16.629
 20
-3.005
 21
-2.834
  0
LINE
  8
0
 10
16.629
 11
16.729
 20
-2.834
 21
-2.675
  0
LINE
  8
0
 10
16.729
 11
16.85
 20
-2.675
 21
-2.53
  0
LINE
  8
0
 10
16.85
 11
16.987
 20
-2.53
 21
-2.401
  0
LINE
  8
0
 10
16.987
 11
17.139
 20
-2.401
 21
-2.291
  0
LINE
  8
0
 10
17.139
 11
17.304
 20
-2.291
 21
-2.2
  0
LINE
  8
0
 10
17.304
 11
17.479
 20
-2.2
 21
-2.13
  0
LINE
  8
0
 10
17.479
 11
17.662
 20
-2.13
 21
-2.084
  0
LINE
  8
0
 10
17.662
 11
17.849
 20
-2.084
 21
-2.06
  0
LINE
  8
0
 10
17.849
 11
18.037
 20
-2.06
 21
-2.06
  0
LINE
  8
0
 10
18.037
 11
18.224
 20
-2.06
 21
-2.084
  0
LINE
  8
0
 10
18.224
 11
18.407
 20
-2.084
 21
-2.13
  0
LINE
  8
0
 10
18.407
 11
18.582
 20
-2.13
 21
-2.2
  0
LINE
  8
0
 10
18.582
 11
18.747
 20
-2.2
 21
-2.291
  0
LINE
  8
0
 10
18.747
 11
18.899
 20
-2.291
 21
-2.401
  0
LINE
  8
0
 10
18.899
 11
19.036
 20
-2.401
 21
-2.53
  0
LINE
  8
0
 10
19.036
 11
19.157
 20
-2.53
 21
-2.675
  0
LINE
  8
0
 10
19.157
 11
19.257
 20
-2.675
 21
-2.834
  0
LINE
  8
0
 10
19.257
 11
19.338
 20
-2.834
 21
-3.005
  0
LINE
  8
0
 10
19.338
 11
19.396
 20
-3.005
 21
-3.184
  0
LINE
  8
0
 10
19.396
 11
19.431
 20
-3.184
 21
-3.369
  0
LINE
  8
0
 10
19.431
 11
19.443
 20
-3.369
 21
-3.557
  0
LINE
  8
0
 10
19.443
 11
19.431
 20
-3.557
 21
-3.745
  0
LINE
  8
0
 10
19.431
 11
19.396
 20
-3.745
 21
-3.93
  0
LINE
  8
0
 10
19.396
 11
19.338
 20
-3.93
 21
-4.109
  0
LINE
  8
0
 10
19.338
 11
19.257
 20
-4.109
 21
-4.28
  0
LINE
  8
0
 10
19.257
 11
19.157
 20
-4.28
 21
-4.439
  0
LINE
  8
0
 10
19.157
 11
19.036
 20
-4.439
 21
-4.584
  0
LINE
  8
0
 10
19.036
 11
18.899
 20
-4.584
 21
-4.713
  0
LINE
  8
0
 10
18.899
 11
18.747
 20
-4.713
 21
-4.823
  0
LINE
  8
0
 10
18.747
 11
18.582
 20
-4.823
 21
-4.914
  0
LINE
  8
0
 10
18.582
 11
18.407
 20
-4.914
 21
-4.984
  0
LINE
  8
0
 10
18.407
 11
18.224
 20
-4.984
 21
-5.03
  0
LINE
  8
0
 10
18.224
 11
18.037
 20
-5.03
 21
-5.054
  0
LINE
  8
0
 10
18.037
 11
17.849
 20
-5.054
 21
-5.054
  0
LINE
  8
0
 10
17.849
 11
17.662
 20
-5.054
 21
-5.03
  0
LINE
  8
0
 10
17.662
 11
17.479
 20
-5.03
 21
-4.984
  0
LINE
  8
0
 10
17.479
 11
17.304
 20
-4.984
 21
-4.914
  0
LINE
  8
0
 10
17.304
 11
17.139
 20
-4.914
 21
-4.823
  0
LINE
  8
0
 10
17.139
 11
16.987
 20
-4.823
 21
-4.713
  0
LINE
  8
0
 10
16.987
 11
16.85
 20
-4.713
 21
-4.584
  0
LINE
  8
0
 10
16.85
 11
16.729
 20
-4.584
 21
-4.439
  0
LINE
  8
0
 10
16.729
 11
16.629
 20
-4.439
 21
-4.28
  0
LINE
  8
0
 10
16.629
 11
16.548
 20
-4.28
 21
-4.109
  0
LINE
  8
0
 10
16.548
 11
16.49
 20
-4.109
 21
-3.93
  0
LINE
  8
0
 10
16.49
 11
16.455
 20
-3.93
 21
-3.745
  0
LINE
  8
0
 10
16.455
 11
16.443
 20
-3.745
 21
-3.557
  0
LINE
  8
0
 10
23.202
 11
23.202
 20
12.995
 21
16.496
  0
LINE
  8
0
 10
23.202
 11
24.015
 20
16.496
 21
16.496
  0
LINE
  8
0
 10
24.015
 11
24.015
 20
16.496
 21
21.504
  0
LINE
  8
0
 10
24.015
 11
23.202
 20
21.504
 21
21.504
  0
LINE
  8
0
 10
23.202
 11
23.202
 20
21.504
 21
25.005
  0
LINE
  8
0
 10
23.202
 11
24.015
 20
25.005
 21
25.005
  0
LINE
  8
0
 10
24.015
 11
24.015
 20
25.005
 21
25.985
  0
LINE
  8
0
 10
24.015
 11
37.985
 20
25.985
 21
25.985
  0
LINE
  8
0
 10
37.985
 11
37.985
 20
25.985
 21
25.005
  0
LINE
  8
0
 10
37.985
 11
38.798
 20
25.005
 21
25.005
  0
LINE
  8
0
 10
38.798
 11
38.798
 20
25.005
 21
21.504
  0
LINE
  8
0
 10
38.798
 11
37.985
 20
21.504
 21
21.504
  0
LINE
  8
0
 10
37.985
 11
37.985
 20
21.504
 21
16.496
  0
LINE
  8
0
 10
37.985
 11
38.798
 20
16.496
 21
16.496
  0
LINE
  8
0
 10
38.798
 11
38.798
 20
16.496
 21
12.995
  0
LINE
  8
0
 10
38.798
 11
37.985
 20
12.995
 21
12.995
  0
LINE
  8
0
 10
37.985
 11
37.985
 20
12.995
 21
12.015
  0
LINE
  8
0
 10
37.985
 11
24.015
 20
12.015
 21
12.015
  0
LINE
  8
0
 10
24.015
 11
24.015
 20
12.015
 21
12.995
  0
LINE
  8
0
 10
24.015
 11
23.202
 20
12.995
 21
12.995
  0
LINE
  8
0
 10
42.202
 11
42.202
 20
3.495
 21
6.996
  0
LINE
  8
0
 10
42.202
 11
43.015
 20
6.996
 21
6.996
  0
LINE
  8
0
 10
43.015
 11
43.015
 20
6.996
 21
12.004
  0
LINE
  8
0
 10
43.015
 11
42.202
 20
12.004
 21
12.004
  0
LINE
  8
0
 10
42.202
 11
42.202
 20
12.004
 21
15.505
  0
LINE
  8
0
 10
42.202
 11
43.015
 20
15.505
 21
15.505
  0
LINE
  8
0
 10
43.015
 11
43.015
 20
15.505
 21
16.485
  0
LINE
  8
0
 10
43.015
 11
56.985
 20
16.485
 21
16.485
  0
LINE
  8
0
 10
56.985
 11
56.985
 20
16.485
 21
15.505
  0
LINE
  8
0
 10
56.985
 11
57.798
 20
15.505
 21
15.505
  0
LINE
  8
0
 10
57.798
 11
57.798
 20
15.505
 21
12.004
  0
LINE
  8
0
 10
57.798
 11
56.985
 20
12.004
 21
12.004
  0
LINE
  8
0
 10
56.985
 11
56.985
 20
12.004
 21
6.996
  0
LINE
  8
0
 10
56.985
 11
57.798
 20
6.996
 21
6.996
  0
LINE
  8
0
 10
57.798
 11
57.798
 20
6.996
 21
3.495
  0
LINE
  8
0
 10
57.798
 11
56.985
 20
3.495
 21
3.495
  0
LINE
  8
0
 10
56.985
 11
56.985
 20
3.495
 21
2.515
  0
LINE
  8
0
 10
56.985
 11
43.015
 20
2.515
 21
2.515
  0
LINE
  8
0
 10
43.015
 11
43.015
 20
2.515
 21
3.495
  0
LINE
  8
0
 10
43.015
 11
42.202
 20
3.495
 21
3.495
  0
LINE
  8
0
 10
42.202
 11
42.202
 20
22.495
 21
25.996
  0
LINE
  8
0
 10
42.202
 11
43.015
 20
25.996
 21
25.996
  0
LINE
  8
0
 10
43.015
 11
43.015
 20
25.996
 21
31.004
  0
LINE
  8
0
 10
43.015
 11
42.202
 20
31.004
 21
31.004
  0
LINE
  8
0
 10
42.202
 11
42.202
 20
31.004
 21
34.505
  0
LINE
  8
0
 10
42.202
 11
43.015
 20
34.505
 21
34.505
  0
LINE
  8
0
 10
43.015
 11
43.015
 20
34.505
 21
35.485
  0
LINE
  8
0
 10
43.015
 11
56.985
 20
35.485
 21
35.485
  0
LINE
  8
0
 10
56.985
 11
56.985
 20
35.485
 21
34.505
  0
LINE
  8
0
 10
56.985
 11
57.798
 20
34.505
 21
34.505
  0
LINE
  8
0
 10
57.798
 11
57.798
 20
34.505
 21
31.004
  0
LINE
  8
0
 10
57.798
 11
56.985
 20
31.004
 21
31.004
  0
LINE
  8
0
 10
56.985
 11
56.985
 20
31.004
 21
25.996
  0
LINE
  8
0
 10
56.985
 11
57.798
 20
25.996
 21
25.996
  0
LINE
  8
0
 10
57.798
 11
57.798
 20
25.996
 21
22.495
  0
LINE
  8
0
 10
57.798
 11
56.985
 20
22.495
 21
22.495
  0
LINE
  8
0
 10
56.985
 11
56.985
 20
22.495
 21
21.515
  0
LINE
  8
0
 10
56.985
 11
43.015
 20
21.515
 21
21.515
  0
LINE
  8
0
 10
43.015
 11
43.015
 20
21.515
 21
22.495
  0
LINE
  8
0
 10
43.015
 11
42.202
 20
22.495
 21
22.495
  0
LINE
  8
0
 10
42.202
 11
42.202
 20
41.495
 21
44.996
  0
LINE
  8
0
 10
42.202
 11
43.015
 20
44.996
 21
44.996
  0
LINE
  8
0
 10
43.015
 11
43.015
 20
44.996
 21
50.004
  0
LINE
  8
0
 10
43.015
 11
42.202
 20
50.004
 21
50.004
  0
LINE
  8
0
 10
42.202
 11
42.202
 20
50.004
 21
53.505
  0
LINE
  8
0
 10
42.202
 11
43.015
 20
53.505
 21
53.505
  0
LINE
  8
0
 10
43.015
 11
43.015
 20
53.505
 21
54.485
  0
LINE
  8
0
 10
43.015
 11
56.985
 20
54.485
 21
54.485
  0
LINE
  8
0
 10
56.985
 11
56.985
 20
54.485
 21
53.505
  0
LINE
  8
0
 10
56.985
 11
57.798
 20
53.505
 21
53.505
  0
LINE
  8
0
 10
57.798
 11
57.798
 20
53.505
 21
50.004
  0
LINE
  8
0
 10
57.798
 11
56.985
 20
50.004
 21
50.004
  0
LINE
  8
0
 10
56.985
 11
56.985
 20
50.004
 21
44.996
  0
LINE
  8
0
 10
56.985
 11
57.798
 20
44.996
 21
44.996
  0
LINE
  8
0
 10
57.798
 11
57.798
 20
44.996
 21
41.495
  0
LINE
  8
0
 10
57.798
 11
56.985
 20
41.495
 21
41.495
  0
LINE
  8
0
 10
56.985
 11
56.985
 20
41.495
 21
40.515
  0
LINE
  8
0
 10
56.985
 11
43.015
 20
40.515
 21
40.515
  0
LINE
  8
0
 10
43.015
 11
43.015
 20
40.515
 21
41.495
  0
LINE
  8
0
 10
43.015
 11
42.202
 20
41.495
 21
41.495
  0
LINE
  8
0
 10
42.202
 11
42.202
 20
60.495
 21
63.996
  0
LINE
  8
0
 10
42.202
 11
43.015
 20
63.996
 21
63.996
  0
LINE
  8
0
 10
43.015
 11
43.015
 20
63.996
 21
69.004
  0
LINE
  8
0
 10
43.015
 11
42.202
 20
69.004
 21
69.004
  0
LINE
  8
0
 10
42.202
 11
42.202
 20
69.004
 21
72.505
  0
LINE
  8
0
 10
42.202
 11
43.015
 20
72.505
 21
72.505
  0
LINE
  8
0
 10
43.015
 11
43.015
 20
72.505
 21
73.485
  0
LINE
  8
0
 10
43.015
 11
56.985
 20
73.485
 21
73.485
  0
LINE
  8
0
 10
56.985
 11
56.985
 20
73.485
 21
72.505
  0
LINE
  8
0
 10
56.985
 11
57.798
 20
72.505
 21
72.505
  0
LINE
  8
0
 10
57.798
 11
57.798
 20
72.505
 21
69.004
  0
LINE
  8
0
 10
57.798
 11
56.985
 20
69.004
 21
69.004
  0
LINE
  8
0
 10
56.985
 11
56.985
 20
69.004
 21
63.996
  0
LINE
  8
0
 10
56.985
 11
57.798
 20
63.996
 21
63.996
  0
LINE
  8
0
 10
57.798
 11
57.798
 20
63.996
 21
60.495
  0
LINE
  8
0
 10
57.798
 11
56.985
 20
60.495
 21
60.495
  0
LINE
  8
0
 10
56.985
 11
56.985
 20
60.495
 21
59.515
  0
LINE
  8
0
 10
56.985
 11
43.015
 20
59.515
 21
59.515
  0
LINE
  8
0
 10
43.015
 11
43.015
 20
59.515
 21
60.495
  0
LINE
  8
0
 10
43.015
 11
42.202
 20
60.495
 21
60.495
  0
LINE
  8
0
 10
61.202
 11
61.202
 20
8.495
 21
11.996
  0
LINE
  8
0
 10
61.202
 11
62.015
 20
11.996
 21
11.996
  0
LINE
  8
0
 10
62.015
 11
62.015
 20
11.996
 21
17.004
  0
LINE
  8
0
 10
62.015
 11
61.202
 20
17.004
 21
17.004
  0
LINE
  8
0
 10
61.202
 11
61.202
 20
17.004
 21
20.505
  0
LINE
  8
0
 10
61.202
 11
62.015
 20
20.505
 21
20.505
  0
LINE
  8
0
 10
62.015
 11
62.015
 20
20.505
 21
21.485
  0
LINE
  8
0
 10
62.015
 11
75.985
 20
21.485
 21
21.485
  0
LINE
  8
0
 10
75.985
 11
75.985
 20
21.485
 21
20.505
  0
LINE
  8
0
 10
75.985
 11
76.798
 20
20.505
 21
20.505
  0
LINE
  8
0
 10
76.798
 11
76.798
 20
20.505
 21
17.004
  0
LINE
  8
0
 10
76.798
 11
75.985
 20
17.004
 21
17.004
  0
LINE
  8
0
 10
75.985
 11
75.985
 20
17.004
 21
11.996
  0
LINE
  8
0
 10
75.985
 11
76.798
 20
11.996
 21
11.996
  0
LINE
  8
0
 10
76.798
 11
76.798
 20
11.996
 21
8.495
  0
LINE
  8
0
 10
76.798
 11
75.985
 20
8.495
 21
8.495
  0
LINE
  8
0
 10
75.985
 11
75.985
 20
8.495
 21
7.515
  0
LINE
  8
0
 10
75.985
 11
62.015
 20
7.515
 21
7.515
  0
LINE
  8
0
 10
62.015
 11
62.015
 20
7.515
 21
8.495
  0
LINE
  8
0
 10
62.015
 11
61.202
 20
8.495
 21
8.495
  0
LINE
  8
0
 10
61.202
 11
61.202
 20
27.495
 21
30.996
  0
LINE
  8
0
 10
61.202
 11
62.015
 20
30.996
 21
30.996
  0
LINE
  8
0
 10
62.015
 11
62.015
 20
30.996
 21
36.004
  0
LINE
  8
0
 10
62.015
 11
61.202
 20
36.004
 21
36.004
  0
LINE
  8
0
 10
61.202
 11
61.202
 20
36.004
 21
39.505
  0
LINE
  8
0
 10
61.202
 11
62.015
 20
39.505
 21
39.505
  0
LINE
  8
0
 10
62.015
 11
62.015
 20
39.505
 21
40.485
  0
LINE
  8
0
 10
62.015
 11
75.985
 20
40.485
 21
40.485
  0
LINE
  8
0
 10
75.985
 11
75.985
 20
40.485
 21
39.505
  0
LINE
  8
0
 10
75.985
 11
76.798
 20
39.505
 21
39.505
  0
LINE
  8
0
 10
76.798
 11
76.798
 20
39.505
 21
36.004
  0
LINE
  8
0
 10
76.798
 11
75.985
 20
36.004
 21
36.004
  0
LINE
  8
0
 10
75.985
 11
75.985
 20
36.004
 21
30.996
  0
LINE
  8
0
 10
75.985
 11
76.798
 20
30.996
 21
30.996
  0
LINE
  8
0
 10
76.798
 11
76.798
 20
30.996
 21
27.495
  0
LINE
  8
0
 10
76.798
 11
75.985
 20
27.495
 21
27.495
  0
LINE
  8
0
 10
75.985
 11
75.985
 20
27.495
 21
26.515
  0
LINE
  8
0
 10
75.985
 11
62.015
 20
26.515
 21
26.515
  0
LINE
  8
0
 10
62.015
 11
62.015
 20
26.515
 21
27.495
  0
LINE
  8
0
 10
62.015
 11
61.202
 20
27.495
 21
27.495
  0
LINE
  8
0
 10
61.202
 11
61.202
 20
46.495
 21
49.996
  0
LINE
  8
0
 10
61.202
 11
62.015
 20
49.996
 21
49.996
  0
LINE
  8
0
 10
62.015
 11
62.015
 20
49.996
 21
55.004
  0
LINE
  8
0
 10
62.015
 11
61.202
 20
55.004
 21
55.004
  0
LINE
  8
0
 10
61.202
 11
61.202
 20
55.004
 21
58.505
  0
LINE
  8
0
 10
61.202
 11
62.015
 20
58.505
 21
58.505
  0
LINE
  8
0
 10
62.015
 11
62.015
 20
58.505
 21
59.485
  0
LINE
  8
0
 10
62.015
 11
75.985
 20
59.485
 21
59.485
  0
LINE
  8
0
 10
75.985
 11
75.985
 20
59.485
 21
58.505
  0
LINE
  8
0
 10
75.985
 11
76.798
 20
58.505
 21
58.505
  0
LINE
  8
0
 10
76.798
 11
76.798
 20
58.505
 21
55.004
  0
LINE
  8
0
 10
76.798
 11
75.985
 20
55.004
 21
55.004
  0
LINE
  8
0
 10
75.985
 11
75.985
 20
55.004
 21
49.996
  0
LINE
  8
0
 10
75.985
 11
76.798
 20
49.996
 21
49.996
  0
LINE
  8
0
 10
76.798
 11
76.798
 20
49.996
 21
46.495
  0
LINE
  8
0
 10
76.798
 11
75.985
 20
46.495
 21
46.495
  0
LINE
  8
0
 10
75.985
 11
75.985
 20
46.495
 21
45.515
  0
LINE
  8
0
 10
75.985
 11
62.015
 20
45.515
 21
45.515
  0
LINE
  8
0
 10
62.015
 11
62.015
 20
45.515
 21
46.495
  0
LINE
  8
0
 10
62.015
 11
61.202
 20
46.495
 21
46.495
  0
LINE
  8
0
 10
61.202
 11
61.202
 20
65.495
 21
68.996
  0
LINE
  8
0
 10
61.202
 11
62.015
 20
68.996
 21
68.996
  0
LINE
  8
0
 10
62.015
 11
62.015
 20
68.996
 21
74.004
  0
LINE
  8
0
 10
62.015
 11
61.202
 20
74.004
 21
74.004
  0
LINE
  8
0
 10
61.202
 11
61.202
 20
74.004
 21
77.505
  0
LINE
  8
0
 10
61.202
 11
62.015
 20
77.505
 21
77.505
  0
LINE
  8
0
 10
62.015
 11
62.015
 20
77.505
 21
78.485
  0
LINE
  8
0
 10
62.015
 11
75.985
 20
78.485
 21
78.485
  0
LINE
  8
0
 10
75.985
 11
75.985
 20
78.485
 21
77.505
  0
LINE
  8
0
 10
75.985
 11
76.798
 20
77.505
 21
77.505
  0
LINE
  8
0
 10
76.798
 11
76.798
 20
77.505
 21
74.004
  0
LINE
  8
0
 10
76.798
 11
75.985
 20
74.004
 21
74.004
  0
LINE
  8
0
 10
75.985
 11
75.985
 20
74.004
 21
68.996
  0
LINE
  8
0
 10
75.985
 11
76.798
 20
68.996
 21
68.996
  0
LINE
  8
0
 10
76.798
 11
76.798
 20
68.996
 21
65.495
  0
LINE
  8
0
 10
76.798
 11
75.985
 20
65.495
 21
65.495
  0
LINE
  8
0
 10
75.985
 11
75.985
 20
65.495
 21
64.515
  0
LINE
  8
0
 10
75.985
 11
62.015
 20
64.515
 21
64.515
  0
LINE
  8
0
 10
62.015
 11
62.015
 20
64.515
 21
65.495
  0
LINE
  8
0
 10
62.015
 11
61.202
 20
65.495
 21
65.495
  0
LINE
  8
0
 10
80.202
 11
80.202
 20
14.495
 21
17.996
  0
LINE
  8
0
 10
80.202
 11
81.015
 20
17.996
 21
17.996
  0
LINE
  8
0
 10
81.015
 11
81.015
 20
17.996
 21
23.004
  0
LINE
  8
0
 10
81.015
 11
80.202
 20
23.004
 21
23.004
  0
LINE
  8
0
 10
80.202
 11
80.202
 20
23.004
 21
26.505
  0
LINE
  8
0
 10
80.202
 11
81.015
 20
26.505
 21
26.505
  0
LINE
  8
0
 10
81.015
 11
81.015
 20
26.505
 21
27.485
  0
LINE
  8
0
 10
81.015
 11
94.985
 20
27.485
 21
27.485
  0
LINE
  8
0
 10
94.985
 11
94.985
 20
27.485
 21
26.505
  0
LINE
  8
0
 10
94.985
 11
95.798
 20
26.505
 21
26.505
  0
LINE
  8
0
 10
95.798
 11
95.798
 20
26.505
 21
23.004
  0
LINE
  8
0
 10
95.798
 11
94.985
 20
23.004
 21
23.004
  0
LINE
  8
0
 10
94.985
 11
94.985
 20
23.004
 21
17.996
  0
LINE
  8
0
 10
94.985
 11
95.798
 20
17.996
 21
17.996
  0
LINE
  8
0
 10
95.798
 11
95.798
 20
17.996
 21
14.495
  0
LINE
  8
0
 10
95.798
 11
94.985
 20
14.495
 21
14.495
  0
LINE
  8
0
 10
94.985
 11
94.985
 20
14.495
 21
13.515
  0
LINE
  8
0
 10
94.985
 11
81.015
 20
13.515
 21
13.515
  0
LINE
  8
0
 10
81.015
 11
81.015
 20
13.515
 21
14.495
  0
LINE
  8
0
 10
81.015
 11
80.202
 20
14.495
 21
14.495
  0
LINE
  8
0
 10
80.202
 11
80.202
 20
33.495
 21
36.996
  0
LINE
  8
0
 10
80.202
 11
81.015
 20
36.996
 21
36.996
  0
LINE
  8
0
 10
81.015
 11
81.015
 20
36.996
 21
42.004
  0
LINE
  8
0
 10
81.015
 11
80.202
 20
42.004
 21
42.004
  0
LINE
  8
0
 10
80.202
 11
80.202
 20
42.004
 21
45.505
  0
LINE
  8
0
 10
80.202
 11
81.015
 20
45.505
 21
45.505
  0
LINE
  8
0
 10
81.015
 11
81.015
 20
45.505
 21
46.485
  0
LINE
  8
0
 10
81.015
 11
94.985
 20
46.485
 21
46.485
  0
LINE
  8
0
 10
94.985
 11
94.985
 20
46.485
 21
45.505
  0
LINE
  8
0
 10
94.985
 11
95.798
 20
45.505
 21
45.505
  0
LINE
  8
0
 10
95.798
 11
95.798
 20
45.505
 21
42.004
  0
LINE
  8
0
 10
95.798
 11
94.985
 20
42.004
 21
42.004
  0
LINE
  8
0
 10
94.985
 11
94.985
 20
42.004
 21
36.996
  0
LINE
  8
0
 10
94.985
 11
95.798
 20
36.996
 21
36.996
  0
LINE
  8
0
 10
95.798
 11
95.798
 20
36.996
 21
33.495
  0
LINE
  8
0
 10
95.798
 11
94.985
 20
33.495
 21
33.495
  0
LINE
  8
0
 10
94.985
 11
94.985
 20
33.495
 21
32.515
  0
LINE
  8
0
 10
94.985
 11
81.015
 20
32.515
 21
32.515
  0
LINE
  8
0
 10
81.015
 11
81.015
 20
32.515
 21
33.495
  0
LINE
  8
0
 10
81.015
 11
80.202
 20
33.495
 21
33.495
  0
LINE
  8
0
 10
80.202
 11
80.202
 20
52.495
 21
55.996
  0
LINE
  8
0
 10
80.202
 11
81.015
 20
55.996
 21
55.996
  0
LINE
  8
0
 10
81.015
 11
81.015
 20
55.996
 21
61.004
  0
LINE
  8
0
 10
81.015
 11
80.202
 20
61.004
 21
61.004
  0
LINE
  8
0
 10
80.202
 11
80.202
 20
61.004
 21
64.505
  0
LINE
  8
0
 10
80.202
 11
81.015
 20
64.505
 21
64.505
  0
LINE
  8
0
 10
81.015
 11
81.015
 20
64.505
 21
65.485
  0
LINE
  8
0
 10
81.015
 11
94.985
 20
65.485
 21
65.485
  0
LINE
  8
0
 10
94.985
 11
94.985
 20
65.485
 21
64.505
  0
LINE
  8
0
 10
94.985
 11
95.798
 20
64.505
 21
64.505
  0
LINE
  8
0
 10
95.798
 11
95.798
 20
64.505
 21
61.004
  0
LINE
  8
0
 10
95.798
 11
94.985
 20
61.004
 21
61.004
  0
LINE
  8
0
 10
94.985
 11
94.985
 20
61.004
 21
55.996
  0
LINE
  8
0
 10
94.985
 11
95.798
 20
55.996
 21
55.996
  0
LINE
  8
0
 10
95.798
 11
95.798
 20
55.996
 21
52.495
  0
LINE
  8
0
 10
95.798
 11
94.985
 20
52.495
 21
52.495
  0
LINE
  8
0
 10
94.985
 11
94.985
 20
52.495
 21
51.515
  0
LINE
  8
0
 10
94.985
 11
81.015
 20
51.515
 21
51.515
  0
LINE
  8
0
 10
81.015
 11
81.015
 20
51.515
 21
52.495
  0
LINE
  8
0
 10
81.015
 11
80.202
 20
52.495
 21
52.495
  0
LINE
  8
0
 10
80.202
 11
80.202
 20
71.495
 21
74.996
  0
LINE
  8
0
 10
80.202
 11
81.015
 20
74.996
 21
74.996
  0
LINE
  8
0
 10
81.015
 11
81.015
 20
74.996
 21
80.004
  0
LINE
  8
0
 10
81.015
 11
80.202
 20
80.004
 21
80.004
  0
LINE
  8
0
 10
80.202
 11
80.202
 20
80.004
 21
83.505
  0
LINE
  8
0
 10
80.202
 11
81.015
 20
83.505
 21
83.505
  0
LINE
  8
0
 10
81.015
 11
81.015
 20
83.505
 21
84.485
  0
LINE
  8
0
 10
81.015
 11
94.985
 20
84.485
 21
84.485
  0
LINE
  8
0
 10
94.985
 11
94.985
 20
84.485
 21
83.505
  0
LINE
  8
0
 10
94.985
 11
95.798
 20
83.505
 21
83.505
  0
LINE
  8
0
 10
95.798
 11
95.798
 20
83.505
 21
80.004
  0
LINE
  8
0
 10
95.798
 11
94.985
 20
80.004
 21
80.004
  0
LINE
  8
0
 10
94.985
 11
94.985
 20
80.004
 21
74.996
  0
LINE
  8
0
 10
94.985
 11
95.798
 20
74.996
 21
74.996
  0
LINE
  8
0
 10
95.798
 11
95.798
 20
74.996
 21
71.495
  0
LINE
  8
0
 10
95.798
 11
94.985
 20
71.495
 21
71.495
  0
LINE
  8
0
 10
94.985
 11
94.985
 20
71.495
 21
70.515
  0
LINE
  8
0
 10
94.985
 11
81.015
 20
70.515
 21
70.515
  0
LINE
  8
0
 10
81.015
 11
81.015
 20
70.515
 21
71.495
  0
LINE
  8
0
 10
81.015
 11
80.202
 20
71.495
 21
71.495
  0
LINE
  8
0
 10
99.202
 11
99.202
 20
9.495
 21
12.996
  0
LINE
  8
0
 10
99.202
 11
100.015
 20
12.996
 21
12.996
  0
LINE
  8
0
 10
100.015
 11
100.015
 20
12.996
 21
18.004
  0
LINE
  8
0
 10
100.015
 11
99.202
 20
18.004
 21
18.004
  0
LINE
  8
0
 10
99.202
 11
99.202
 20
18.004
 21
21.505
  0
LINE
  8
0
 10
99.202
 11
100.015
 20
21.505
 21
21.505
  0
LINE
  8
0
 10
100.015
 11
100.015
 20
21.505
 21
22.485
  0
LINE
  8
0
 10
100.015
 11
113.985
 20
22.485
 21
22.485
  0
LINE
  8
0
 10
113.985
 11
113.985
 20
22.485
 21
21.505
  0
LINE
  8
0
 10
113.985
 11
114.798
 20
21.505
 21
21.505
  0
LINE
  8
0
 10
114.798
 11
114.798
 20
21.505
 21
18.004
  0
LINE
  8
0
 10
114.798
 11
113.985
 20
18.004
 21
18.004
  0
LINE
  8
0
 10
113.985
 11
113.985
 20
18.004
 21
12.996
  0
LINE
  8
0
 10
113.985
 11
114.798
 20
12.996
 21
12.996
  0
LINE
  8
0
 10
114.798
 11
114.798
 20
12.996
 21
9.495
  0
LINE
  8
0
 10
114.798
 11
113.985
 20
9.495
 21
9.495
  0
LINE
  8
0
 10
113.985
 11
113.985
 20
9.495
 21
8.515
  0
LINE
  8
0
 10
113.985
 11
100.015
 20
8.515
 21
8.515
  0
LINE
  8
0
 10
100.015
 11
100.015
 20
8.515
 21
9.495
  0
LINE
  8
0
 10
100.015
 11
99.202
 20
9.495
 21
9.495
  0
LINE
  8
0
 10
99.202
 11
99.202
 20
28.495
 21
31.996
  0
LINE
  8
0
 10
99.202
 11
100.015
 20
31.996
 21
31.996
  0
LINE
  8
0
 10
100.015
 11
100.015
 20
31.996
 21
37.004
  0
LINE
  8
0
 10
100.015
 11
99.202
 20
37.004
 21
37.004
  0
LINE
  8
0
 10
99.202
 11
99.202
 20
37.004
 21
40.505
  0
LINE
  8
0
 10
99.202
 11
100.015
 20
40.505
 21
40.505
  0
LINE
  8
0
 10
100.015
 11
100.015
 20
40.505
 21
41.485
  0
LINE
  8
0
 10
100.015
 11
113.985
 20
41.485
 21
41.485
  0
LINE
  8
0
 10
113.985
 11
113.985
 20
41.485
 21
40.505
  0
LINE
  8
0
 10
113.985
 11
114.798
 20
40.505
 21
40.505
  0
LINE
  8
0
 10
114.798
 11
114.798
 20
40.505
 21
37.004
  0
LINE
  8
0
 10
114.798
 11
113.985
 20
37.004
 21
37.004
  0
LINE
  8
0
 10
113.985
 11
113.985
 20
37.004
 21
31.996
  0
LINE
  8
0
 10
113.985
 11
114.798
 20
31.996
 21
31.996
  0
LINE
  8
0
 10
114.798
 11
114.798
 20
31.996
 21
28.495
  0
LINE
  8
0
 10
114.798
 11
113.985
 20
28.495
 21
28.495
  0
LINE
  8
0
 10
113.985
 11
113.985
 20
28.495
 21
27.515
  0
LINE
  8
0
 10
113.985
 11
100.015
 20
27.515
 21
27.515
  0
LINE
  8
0
 10
100.015
 11
100.015
 20
27.515
 21
28.495
  0
LINE
  8
0
 10
100.015
 11
99.202
 20
28.495
 21
28.495
  0
LINE
  8
0
 10
99.202
 11
99.202
 20
47.495
 21
50.996
  0
LINE
  8
0
 10
99.202
 11
100.015
 20
50.996
 21
50.996
  0
LINE
  8
0
 10
100.015
 11
100.015
 20
50.996
 21
56.004
  0
LINE
  8
0
 10
100.015
 11
99.202
 20
56.004
 21
56.004
  0
LINE
  8
0
 10
99.202
 11
99.202
 20
56.004
 21
59.505
  0
LINE
  8
0
 10
99.202
 11
100.015
 20
59.505
 21
59.505
  0
LINE
  8
0
 10
100.015
 11
100.015
 20
59.505
 21
60.485
  0
LINE
  8
0
 10
100.015
 11
113.985
 20
60.485
 21
60.485
  0
LINE
  8
0
 10
113.985
 11
113.985
 20
60.485
 21
59.505
  0
LINE
  8
0
 10
113.985
 11
114.798
 20
59.505
 21
59.505
  0
LINE
  8
0
 10
114.798
 11
114.798
 20
59.505
 21
56.004
  0
LINE
  8
0
 10
114.798
 11
113.985
 20
56.004
 21
56.004
  0
LINE
  8
0
 10
113.985
 11
113.985
 20
56.004
 21
50.996
  0
LINE
  8
0
 10
113.985
 11
114.798
 20
50.996
 21
50.996
  0
LINE
  8
0
 10
114.798
 11
114.798
 20
50.996
 21
47.495
  0
LINE
  8
0
 10
114.798
 11
113.985
 20
47.495
 21
47.495
  0
LINE
  8
0
 10
113.985
 11
113.985
 20
47.495
 21
46.515
  0
LINE
  8
0
 10
113.985
 11
100.015
 20
46.515
 21
46.515
  0
LINE
  8
0
 10
100.015
 11
100.015
 20
46.515
 21
47.495
  0
LINE
  8
0
 10
100.015
 11
99.202
 20
47.495
 21
47.495
  0
LINE
  8
0
 10
99.202
 11
99.202
 20
66.495
 21
69.996
  0
LINE
  8
0
 10
99.202
 11
100.015
 20
69.996
 21
69.996
  0
LINE
  8
0
 10
100.015
 11
100.015
 20
69.996
 21
75.004
  0
LINE
  8
0
 10
100.015
 11
99.202
 20
75.004
 21
75.004
  0
LINE
  8
0
 10
99.202
 11
99.202
 20
75.004
 21
78.505
  0
LINE
  8
0
 10
99.202
 11
100.015
 20
78.505
 21
78.505
  0
LINE
  8
0
 10
100.015
 11
100.015
 20
78.505
 21
79.485
  0
LINE
  8
0
 10
100.015
 11
113.985
 20
79.485
 21
79.485
  0
LINE
  8
0
 10
113.985
 11
113.985
 20
79.485
 21
78.505
  0
LINE
  8
0
 10
113.985
 11
114.798
 20
78.505
 21
78.505
  0
LINE
  8
0
 10
114.798
 11
114.798
 20
78.505
 21
75.004
  0
LINE
  8
0
 10
114.798
 11
113.985
 20
75.004
 21
75.004
  0
LINE
  8
0
 10
113.985
 11
113.985
 20
75.004
 21
69.996
  0
LINE
  8
0
 10
113.985
 11
114.798
 20
69.996
 21
69.996
  0
LINE
  8
0
 10
114.798
 11
114.798
 20
69.996
 21
66.495
  0
LINE
  8
0
 10
114.798
 11
113.985
 20
66.495
 21
66.495
  0
LINE
  8
0
 10
113.985
 11
113.985
 20
66.495
 21
65.515
  0
LINE
  8
0
 10
113.985
 11
100.015
 20
65.515
 21
65.515
  0
LINE
  8
0
 10
100.015
 11
100.015
 20
65.515
 21
66.495
  0
LINE
  8
0
 10
100.015
 11
99.202
 20
66.495
 21
66.495
  0
LINE
  8
0
 10
118.202
 11
118.202
 20
6.495
 21
9.996
  0
LINE
  8
0
 10
118.202
 11
119.015
 20
9.996
 21
9.996
  0
LINE
  8
0
 10
119.015
 11
119.015
 20
9.996
 21
15.004
  0
LINE
  8
0
 10
119.015
 11
118.202
 20
15.004
 21
15.004
  0
LINE
  8
0
 10
118.202
 11
118.202
 20
15.004
 21
18.505
  0
LINE
  8
0
 10
118.202
 11
119.015
 20
18.505
 21
18.505
  0
LINE
  8
0
 10
119.015
 11
119.015
 20
18.505
 21
19.485
  0
LINE
  8
0
 10
119.015
 11
132.985
 20
19.485
 21
19.485
  0
LINE
  8
0
 10
132.985
 11
132.985
 20
19.485
 21
18.505
  0
LINE
  8
0
 10
132.985
 11
133.798
 20
18.505
 21
18.505
  0
LINE
  8
0
 10
133.798
 11
133.798
 20
18.505
 21
15.004
  0
LINE
  8
0
 10
133.798
 11
132.985
 20
15.004
 21
15.004
  0
LINE
  8
0
 10
132.985
 11
132.985
 20
15.004
 21
9.996
  0
LINE
  8
0
 10
132.985
 11
133.798
 20
9.996
 21
9.996
  0
LINE
  8
0
 10
133.798
 11
133.798
 20
9.996
 21
6.495
  0
LINE
  8
0
 10
133.798
 11
132.985
 20
6.495
 21
6.495
  0
LINE
  8
0
 10
132.985
 11
132.985
 20
6.495
 21
5.515
  0
LINE
  8
0
 10
132.985
 11
119.015
 20
5.515
 21
5.515
  0
LINE
  8
0
 10
119.015
 11
119.015
 20
5.515
 21
6.495
  0
LINE
  8
0
 10
119.015
 11
118.202
 20
6.495
 21
6.495
  0
LINE
  8
0
 10
118.202
 11
118.202
 20
25.495
 21
28.996
  0
LINE
  8
0
 10
118.202
 11
119.015
 20
28.996
 21
28.996
  0
LINE
  8
0
 10
119.015
 11
119.015
 20
28.996
 21
34.004
  0
LINE
  8
0
 10
119.015
 11
118.202
 20
34.004
 21
34.004
  0
LINE
  8
0
 10
118.202
 11
118.202
 20
34.004
 21
37.505
  0
LINE
  8
0
 10
118.202
 11
119.015
 20
37.505
 21
37.505
  0
LINE
  8
0
 10
119.015
 11
119.015
 20
37.505
 21
38.485
  0
LINE
  8
0
 10
119.015
 11
132.985
 20
38.485
 21
38.485
  0
LINE
  8
0
 10
132.985
 11
132.985
 20
38.485
 21
37.505
  0
LINE
  8
0
 10
132.985
 11
133.798
 20
37.505
 21
37.505
  0
LINE
  8
0
 10
133.798
 11
133.798
 20
37.505
 21
34.004
  0
LINE
  8
0
 10
133.798
 11
132.985
 20
34.004
 21
34.004
  0
LINE
  8
0
 10
132.985
 11
132.985
 20
34.004
 21
28.996
  0
LINE
  8
0
 10
132.985
 11
133.798
 20
28.996
 21
28.996
  0
LINE
  8
0
 10
133.798
 11
133.798
 20
28.996
 21
25.495
  0
LINE
  8
0
 10
133.798
 11
132.985
 20
25.495
 21
25.495
  0
LINE
  8
0
 10
132.985
 11
132.985
 20
25.495
 21
24.515
  0
LINE
  8
0
 10
132.985
 11
119.015
 20
24.515
 21
24.515
  0
LINE
  8
0
 10
119.015
 11
119.015
 20
24.515
 21
25.495
  0
LINE
  8
0
 10
119.015
 11
118.202
 20
25.495
 21
25.495
  0
LINE
  8
0
 10
118.202
 11
118.202
 20
44.495
 21
47.996
  0
LINE
  8
0
 10
118.202
 11
119.015
 20
47.996
 21
47.996
  0
LINE
  8
0
 10
119.015
 11
119.015
 20
47.996
 21
53.004
  0
LINE
  8
0
 10
119.015
 11
118.202
 20
53.004
 21
53.004
  0
LINE
  8
0
 10
118.202
 11
118.202
 20
53.004
 21
56.505
  0
LINE
  8
0
 10
118.202
 11
119.015
 20
56.505
 21
56.505
  0
LINE
  8
0
 10
119.015
 11
119.015
 20
56.505
 21
57.485
  0
LINE
  8
0
 10
119.015
 11
132.985
 20
57.485
 21
57.485
  0
LINE
  8
0
 10
132.985
 11
132.985
 20
57.485
 21
56.505
  0
LINE
  8
0
 10
132.985
 11
133.798
 20
56.505
 21
56.505
  0
LINE
  8
0
 10
133.798
 11
133.798
 20
56.505
 21
53.004
  0
LINE
  8
0
 10
133.798
 11
132.985
 20
53.004
 21
53.004
  0
LINE
  8
0
 10
132.985
 11
132.985
 20
53.004
 21
47.996
  0
LINE
  8
0
 10
132.985
 11
133.798
 20
47.996
 21
47.996
  0
LINE
  8
0
 10
133.798
 11
133.798
 20
47.996
 21
44.495
  0
LINE
  8
0
 10
133.798
 11
132.985
 20
44.495
 21
44.495
  0
LINE
  8
0
 10
132.985
 11
132.985
 20
44.495
 21
43.515
  0
LINE
  8
0
 10
132.985
 11
119.015
 20
43.515
 21
43.515
  0
LINE
  8
0
 10
119.015
 11
119.015
 20
43.515
 21
44.495
  0
LINE
  8
0
 10
119.015
 11
118.202
 20
44.495
 21
44.495
  0
LINE
  8
0
 10
118.202
 11
118.202
 20
63.495
 21
66.996
  0
LINE
  8
0
 10
118.202
 11
119.015
 20
66.996
 21
66.996
  0
LINE
  8
0
 10
119.015
 11
119.015
 20
66.996
 21
72.004
  0
LINE
  8
0
 10
119.015
 11
118.202
 20
72.004
 21
72.004
  0
LINE
  8
0
 10
118.202
 11
118.202
 20
72.004
 21
75.505
  0
LINE
  8
0
 10
118.202
 11
119.015
 20
75.505
 21
75.505
  0
LINE
  8
0
 10
119.015
 11
119.015
 20
75.505
 21
76.485
  0
LINE
  8
0
 10
119.015
 11
132.985
 20
76.485
 21
76.485
  0
LINE
  8
0
 10
132.985
 11
132.985
 20
76.485
 21
75.505
  0
LINE
  8
0
 10
132.985
 11
133.798
 20
75.505
 21
75.505
  0
LINE
  8
0
 10
133.798
 11
133.798
 20
75.505
 21
72.004
  0
LINE
  8
0
 10
133.798
 11
132.985
 20
72.004
 21
72.004
  0
LINE
  8
0
 10
132.985
 11
132.985
 20
72.004
 21
66.996
  0
LINE
  8
0
 10
132.985
 11
133.798
 20
66.996
 21
66.996
  0
LINE
  8
0
 10
133.798
 11
133.798
 20
66.996
 21
63.495
  0
LINE
  8
0
 10
133.798
 11
132.985
 20
63.495
 21
63.495
  0
LINE
  8
0
 10
132.985
 11
132.985
 20
63.495
 21
62.515
  0
LINE
  8
0
 10
132.985
 11
119.015
 20
62.515
 21
62.515
  0
LINE
  8
0
 10
119.015
 11
119.015
 20
62.515
 21
63.495
  0
LINE
  8
0
 10
119.015
 11
118.202
 20
63.495
 21
63.495
  0
LINE
  8
0
 10
137.557
 11
137.569
 20
-0.557
 21
-0.369
  0
LINE
  8
0
 10
137.569
 11
137.604
 20
-0.369
 21
-0.184
  0
LINE
  8
0
 10
137.604
 11
137.662
 20
-0.184
 21
-0.005
  0
LINE
  8
0
 10
137.662
 11
137.743
 20
-0.005
 21
0.166
  0
LINE
  8
0
 10
137.743
 11
137.843
 20
0.166
 21
0.325
  0
LINE
  8
0
 10
137.843
 11
137.964
 20
0.325
 21
0.47
  0
LINE
  8
0
 10
137.964
 11
138.101
 20
0.47
 21
0.599
  0
LINE
  8
0
 10
138.101
 11
138.253
 20
0.599
 21
0.709
  0
LINE
  8
0
 10
138.253
 11
138.418
 20
0.709
 21
0.8
  0
LINE
  8
0
 10
138.418
 11
138.593
 20
0.8
 21
0.87
  0
LINE
  8
0
 10
138.593
 11
138.776
 20
0.87
 21
0.916
  0
LINE
  8
0
 10
138.776
 11
138.963
 20
0.916
 21
0.94
  0
LINE
  8
0
 10
138.963
 11
139.151
 20
0.94
 21
0.94
  0
LINE
  8
0
 10
139.151
 11
139.338
 20
0.94
 21
0.916
  0
LINE
  8
0
 10
139.338
 11
139.521
 20
0.916
 21
0.87
  0
LINE
  8
0
 10
139.521
 11
139.696
 20
0.87
 21
0.8
  0
LINE
  8
0
 10
139.696
 11
139.861
 20
0.8
 21
0.709
  0
LINE
  8
0
 10
139.861
 11
140.013
 20
0.709
 21
0.599
  0
LINE
  8
0
 10
140.013
 11
140.15
 20
0.599
 21
0.47
  0
LINE
  8
0
 10
140.15
 11
140.271
 20
0.47
 21
0.325
  0
LINE
  8
0
 10
140.271
 11
140.371
 20
0.325
 21
0.166
  0
LINE
  8
0
 10
140.371
 11
140.452
 20
0.166
 21
-0.005
  0
LINE
  8
0
 10
140.452
 11
140.51
 20
-0.005
 21
-0.184
  0
LINE
  8
0
 10
140.51
 11
140.545
 20
-0.184
 21
-0.369
  0
LINE
  8
0
 10
140.545
 11
140.557
 20
-0.369
 21
-0.557
  0
LINE
  8
0
 10
140.557
 11
140.545
 20
-0.557
 21
-0.745
  0
LINE
  8
0
 10
140.545
 11
140.51
 20
-0.745
 21
-0.93
  0
LINE
  8
0
 10
140.51
 11
140.452
 20
-0.93
 21
-1.109
  0
LINE
  8
0
 10
140.452
 11
140.371
 20
-1.109
 21
-1.28
  0
LINE
  8
0
 10
140.371
 11
140.271
 20
-1.28
 21
-1.439
  0
LINE
  8
0
 10
140.271
 11
140.15
 20
-1.439
 21
-1.584
  0
LINE
  8
0
 10
140.15
 11
140.013
 20
-1.584
 21
-1.713
  0
LINE
  8
0
 10
140.013
 11
139.861
 20
-1.713
 21
-1.823
  0
LINE
  8
0
 10
139.861
 11
139.696
 20
-1.823
 21
-1.914
  0
LINE
  8
0
 10
139.696
 11
139.521
 20
-1.914
 21
-1.984
  0
LINE
  8
0
 10
139.521
 11
139.338
 20
-1.984
 21
-2.03
  0
LINE
  8
0
 10
139.338
 11
139.151
 20
-2.03
 21
-2.054
  0
LINE
  8
0
 10
139.151
 11
138.963
 20
-2.054
 21
-2.054
  0
LINE
  8
0
 10
138.963
 11
138.776
 20
-2.054
 21
-2.03
  0
LINE
  8
0
 10
138.776
 11
138.593
 20
-2.03
 21
-1.984
  0
LINE
  8
0
 10
138.593
 11
138.418
 20
-1.984
 21
-1.914
  0
LINE
  8
0
 10
138.418
 11
138.253
 20
-1.914
 21
-1.823
  0
LINE
  8
0
 10
138.253
 11
138.101
 20
-1.823
 21
-1.713
  0
LINE
  8
0
 10
138.101
 11
137.964
 20
-1.713
 21
-1.584
  0
LINE
  8
0
 10
137.964
 11
137.843
 20
-1.584
 21
-1.439
  0
LINE
  8
0
 10
137.843
 11
137.743
 20
-1.439
 21
-1.28
  0
LINE
  8
0
 10
137.743
 11
137.662
 20
-1.28
 21
-1.109
  0
LINE
  8
0
 10
137.662
 11
137.604
 20
-1.109
 21
-0.93
  0
LINE
  8
0
 10
137.604
 11
137.569
 20
-0.93
 21
-0.745
  0
LINE
  8
0
 10
137.569
 11
137.557
 20
-0.745
 21
-0.557
  0
LINE
  8
0
 10
137.557
 11
137.569
 20
82.557
 21
82.745
  0
LINE
  8
0
 10
137.569
 11
137.604
 20
82.745
 21
82.93
  0
LINE
  8
0
 10
137.604
 11
137.662
 20
82.93
 21
83.109
  0
LINE
  8
0
 10
137.662
 11
137.743
 20
83.109
 21
83.28
  0
LINE
  8
0
 10
137.743
 11
137.843
 20
83.28
 21
83.439
  0
LINE
  8
0
 10
137.843
 11
137.964
 20
83.439
 21
83.584
  0
LINE
  8
0
 10
137.964
 11
138.101
 20
83.584
 21
83.713
  0
LINE
  8
0
 10
138.101
 11
138.253
 20
83.713
 21
83.823
  0
LINE
  8
0
 10
138.253
 11
138.418
 20
83.823
 21
83.914
  0
LINE
  8
0
 10
138.418
 11
138.593
 20
83.914
 21
83.984
  0
LINE
  8
0
 10
138.593
 11
138.776
 20
83.984
 21
84.03
  0
LINE
  8
0
 10
138.776
 11
138.963
 20
84.03
 21
84.054
  0
LINE
  8
0
 10
138.963
 11
139.151
 20
84.054
 21
84.054
  0
LINE
  8
0
 10
139.151
 11
139.338
 20
84.054
 21
84.03
  0
LINE
  8
0
 10
139.338
 11
139.521
 20
84.03
 21
83.984
  0
LINE
  8
0
 10
139.521
 11
139.696
 20
83.984
 21
83.914
  0
LINE
  8
0
 10
139.696
 11
139.861
 20
83.914
 21
83.823
  0
LINE
  8
0
 10
139.861
 11
140.013
 20
83.823
 21
83.713
  0
LINE
  8
0
 10
140.013
 11
140.15
 20
83.713
 21
83.584
  0
LINE
  8
0
 10
140.15
 11
140.271
 20
83.584
 21
83.439
  0
LINE
  8
0
 10
140.271
 11
140.371
 20
83.439
 21
83.28
  0
LINE
  8
0
 10
140.371
 11
140.452
 20
83.28
 21
83.109
  0
LINE
  8
0
 10
140.452
 11
140.51
 20
83.109
 21
82.93
  0
LINE
  8
0
 10
140.51
 11
140.545
 20
82.93
 21
82.745
  0
LINE
  8
0
 10
140.545
 11
140.557
 20
82.745
 21
82.557
  0
LINE
  8
0
 10
140.557
 11
140.545
 20
82.557
 21
82.369
  0
LINE
  8
0
 10
140.545
 11
140.51
 20
82.369
 21
82.184
  0
LINE
  8
0
 10
140.51
 11
140.452
 20
82.184
 21
82.005
  0
LINE
  8
0
 10
140.452
 11
140.371
 20
82.005
 21
81.834
  0
LINE
  8
0
 10
140.371
 11
140.271
 20
81.834
 21
81.675
  0
LINE
  8
0
 10
140.271
 11
140.15
 20
81.675
 21
81.53
  0
LINE
  8
0
 10
140.15
 11
140.013
 20
81.53
 21
81.401
  0
LINE
  8
0
 10
140.013
 11
139.861
 20
81.401
 21
81.291
  0
LINE
  8
0
 10
139.861
 11
139.696
 20
81.291
 21
81.2
  0
LINE
  8
0
 10
139.696
 11
139.521
 20
81.2
 21
81.13
  0
LINE
  8
0
 10
139.521
 11
139.338
 20
81.13
 21
81.084
  0
LINE
  8
0
 10
139.338
 11
139.151
 20
81.084
 21
81.06
  0
LINE
  8
0
 10
139.151
 11
138.963
 20
81.06
 21
81.06
  0
LINE
  8
0
 10
138.963
 11
138.776
 20
81.06
 21
81.084
  0
LINE
  8
0
 10
138.776
 11
138.593
 20
81.084
 21
81.13
  0
LINE
  8
0
 10
138.593
 11
138.418
 20
81.13
 21
81.2
  0
LINE
  8
0
 10
138.418
 11
138.253
 20
81.2
 21
81.291
  0
LINE
  8
0
 10
138.253
 11
138.101
 20
81.291
 21
81.401
  0
LINE
  8
0
 10
138.101
 11
137.964
 20
81.401
 21
81.53
  0
LINE
  8
0
 10
137.964
 11
137.843
 20
81.53
 21
81.675
  0
LINE
  8
0
 10
137.843
 11
137.743
 20
81.675
 21
81.834
  0
LINE
  8
0
 10
137.743
 11
137.662
 20
81.834
 21
82.005
  0
LINE
  8
0
 10
137.662
 11
137.604
 20
82.005
 21
82.184
  0
LINE
  8
0
 10
137.604
 11
137.569
 20
82.184
 21
82.369
  0
LINE
  8
0
 10
137.569
 11
137.557
 20
82.369
 21
82.557
  0
ENDSEC
  0
SECTION
  2
OBJECTS
  0
DICTIONARY
  0
ENDSEC
  0
EOF
