  0
SECTION
  2
HEADER
  9
$ACADVER
  1
AC1014
  9
$HANDSEED
  5
FFFF
  9
$MEASUREMENT
 70
     1
  0
ENDSEC
  0
SECTION
  2
TABLES
  0
TABLE
  2
VPORT
  5
8
330
0
100
AcDbSymbolTable
 70
     4
  0
VPORT
  5
2E
330
8
100
AcDbSymbolTableRecord
100
AcDbViewportTableRecord
  2
*ACTIVE
 70
     0
 10
0.0
 20
0.0
 11
1.0
 21
1.0
 12
210.0
 22
148.5
 13
0.0
 23
0.0
 14
10.0
 24
10.0
 15
10.0
 25
10.0
 16
0.0
 26
0.0
 36
1.0
 17
0.0
 27
0.0
 37
0.0
 40
341.0
 41
1.24
 42
50.0
 43
0.0
 44
0.0
 50
0.0
 51
0.0
 71
     0
 72
   100
 73
     1
 74
     3
 75
     0
 76
     0
 77
     0
 78
     0
  0
ENDTAB
  0
TABLE
  2
LTYPE
  5
5
330
0
100
AcDbSymbolTable
 70
     1
  0
LTYPE
  5
14
330
5
100
AcDbSymbolTableRecord
100
AcDbLinetypeTableRecord
  2
BYBLOCK
 70
     0
  3

 72
    65
 73
     0
 40
0.0
  0
LTYPE
  5
15
330
5
100
AcDbSymbolTableRecord
100
AcDbLinetypeTableRecord
  2
BYLAYER
 70
     0
  3

 72
    65
 73
     0
 40
0.0
  0
LTYPE
  5
16
330
5
100
AcDbSymbolTableRecord
100
AcDbLinetypeTableRecord
  2
CONTINUOUS
 70
     0
  3
Solid line
 72
    65
 73
     0
 40
0.0
  0
ENDTAB
  0
TABLE
  2
LAYER
  5
2
100
AcDbSymbolTable
 70
2
  0
LAYER
  5
50
100
AcDbSymbolTableRecord
100
AcDbLayerTableRecord
  2
0
 70
0
  6
CONTINUOUS
  0
LAYER
  5
51
100
AcDbSymbolTableRecord
100
AcDbLayerTableRecord
  2
Layer_1
 70
0
  6
CONTINUOUS
  0
ENDTAB
  0
TABLE
  2
STYLE
  5
3
330
0
100
AcDbSymbolTable
 70
     1
  0
STYLE
  5
11
330
3
100
AcDbSymbolTableRecord
100
AcDbTextStyleTableRecord
  2
STANDARD
 70
     0
 40
0.0
 41
1.0
 50
0.0
 71
     0
 42
2.5
  3
txt
  4

  0
ENDTAB
  0
TABLE
  2
VIEW
  5
6
330
0
100
AcDbSymbolTable
 70
     0
  0
ENDTAB
  0
TABLE
  2
UCS
  5
7
330
0
100
AcDbSymbolTable
 70
     0
  0
ENDTAB
  0
TABLE
  2
APPID
  5
9
330
0
100
AcDbSymbolTable
 70
     2
  0
APPID
  5
12
330
9
100
AcDbSymbolTableRecord
100
AcDbRegAppTableRecord
  2
ACAD
 70
     0
  0
ENDTAB
  0
TABLE
  2
DIMSTYLE
  5
A
330
0
100
AcDbSymbolTable
 70
     1
  0
DIMSTYLE
105
27
330
A
100
AcDbSymbolTableRecord
100
AcDbDimStyleTableRecord
  2
ISO-25
 70
     0
  3

  4

  5

  6

  7

 40
1.0
 41
2.5
 42
0.625
 43
3.75
 44
1.25
 45
0.0
 46
0.0
 47
0.0
 48
0.0
140
2.5
141
2.5
142
0.0
143
0.03937007874016
144
1.0
145
0.0
146
1.0
147
0.625
 71
     0
 72
     0
 73
     0
 74
     0
 75
     0
 76
     0
 77
     1
 78
     8
170
     0
171
     3
172
     1
173
     0
174
     0
175
     0
176
     0
177
     0
178
     0
270
     2
271
     2
272
     2
273
     2
274
     3
340
11
275
     0
280
     0
281
     0
282
     0
283
     0
284
     8
285
     0
286
     0
287
     3
288
     0
  0
ENDTAB
  0
TABLE
  2
BLOCK_RECORD
  5
1
330
0
100
AcDbSymbolTable
 70
     1
  0
BLOCK_RECORD
  5
1F
330
1
100
AcDbSymbolTableRecord
100
AcDbBlockTableRecord
  2
*MODEL_SPACE
  0
BLOCK_RECORD
  5
1B
330
1
100
AcDbSymbolTableRecord
100
AcDbBlockTableRecord
  2
*PAPER_SPACE
  0
ENDTAB
  0
ENDSEC
  0
SECTION
  2
BLOCKS
  0
BLOCK
  5
20
330
1F
100
AcDbEntity
  8
0
100
AcDbBlockBegin
  2
*MODEL_SPACE
 70
     0
 10
0.0
 20
0.0
 30
0.0
  3
*MODEL_SPACE
  1

  0
ENDBLK
  5
21
330
1F
100
AcDbEntity
  8
0
100
AcDbBlockEnd
  0
BLOCK
  5
1C
330
1B
100
AcDbEntity
 67
     1
  8
0
100
AcDbBlockBegin
  2
*PAPER_SPACE
  1

  0
ENDBLK
  5
1D
330
1B
100
AcDbEntity
 67
     1
  8
0
100
AcDbBlockEnd
  0
ENDSEC
  0
SECTION
  2
ENTITIES
  0
LWPOLYLINE
  5
100
100
AcDbEntity
  8
Layer_1
 62
7
100
AcDbPolyline
 90
21
 70
0
 10
77.235993
 20
111.556911
 30
0.0
 10
77.235993
 20
115.057912
 30
0.0
 10
78.048993
 20
115.057912
 30
0.0
 10
78.048993
 20
120.065911
 30
0.0
 10
77.235993
 20
120.065911
 30
0.0
 10
77.235993
 20
123.566912
 30
0.0
 10
78.048993
 20
123.566912
 30
0.0
 10
78.048993
 20
124.546912
 30
0.0
 10
92.018993
 20
124.546912
 30
0.0
 10
92.018993
 20
123.566912
 30
0.0
 10
92.831993
 20
123.566912
 30
0.0
 10
92.831993
 20
120.065911
 30
0.0
 10
92.018993
 20
120.065911
 30
0.0
 10
92.018993
 20
115.057912
 30
0.0
 10
92.831993
 20
115.057912
 30
0.0
 10
92.831993
 20
111.556911
 30
0.0
 10
92.018993
 20
111.556911
 30
0.0
 10
92.018993
 20
110.576912
 30
0.0
 10
78.048993
 20
110.576912
 30
0.0
 10
78.048993
 20
111.556911
 30
0.0
 10
77.235993
 20
111.556911
 30
0.0
  0
LWPOLYLINE
  5
101
100
AcDbEntity
  8
Layer_1
 62
7
100
AcDbPolyline
 90
21
 70
0
 10
77.235993
 20
130.556910
 30
0.0
 10
77.235993
 20
134.057911
 30
0.0
 10
78.048993
 20
134.057911
 30
0.0
 10
78.048993
 20
139.065910
 30
0.0
 10
77.235993
 20
139.065910
 30
0.0
 10
77.235993
 20
142.566911
 30
0.0
 10
78.048993
 20
142.566911
 30
0.0
 10
78.048993
 20
143.546910
 30
0.0
 10
92.018993
 20
143.546910
 30
0.0
 10
92.018993
 20
142.566911
 30
0.0
 10
92.831993
 20
142.566911
 30
0.0
 10
92.831993
 20
139.065910
 30
0.0
 10
92.018993
 20
139.065910
 30
0.0
 10
92.018993
 20
134.057911
 30
0.0
 10
92.831993
 20
134.057911
 30
0.0
 10
92.831993
 20
130.556910
 30
0.0
 10
92.018993
 20
130.556910
 30
0.0
 10
92.018993
 20
129.576910
 30
0.0
 10
78.048993
 20
129.576910
 30
0.0
 10
78.048993
 20
130.556910
 30
0.0
 10
77.235993
 20
130.556910
 30
0.0
  0
LWPOLYLINE
  5
102
100
AcDbEntity
  8
Layer_1
 62
7
100
AcDbPolyline
 90
21
 70
0
 10
77.235993
 20
149.556912
 30
0.0
 10
77.235993
 20
153.057912
 30
0.0
 10
78.048993
 20
153.057912
 30
0.0
 10
78.048993
 20
158.065912
 30
0.0
 10
77.235993
 20
158.065912
 30
0.0
 10
77.235993
 20
161.566912
 30
0.0
 10
78.048993
 20
161.566912
 30
0.0
 10
78.048993
 20
162.546912
 30
0.0
 10
92.018993
 20
162.546912
 30
0.0
 10
92.018993
 20
161.566912
 30
0.0
 10
92.831993
 20
161.566912
 30
0.0
 10
92.831993
 20
158.065912
 30
0.0
 10
92.018993
 20
158.065912
 30
0.0
 10
92.018993
 20
153.057912
 30
0.0
 10
92.831993
 20
153.057912
 30
0.0
 10
92.831993
 20
149.556912
 30
0.0
 10
92.018993
 20
149.556912
 30
0.0
 10
92.018993
 20
148.576912
 30
0.0
 10
78.048993
 20
148.576912
 30
0.0
 10
78.048993
 20
149.556912
 30
0.0
 10
77.235993
 20
149.556912
 30
0.0
  0
LWPOLYLINE
  5
103
100
AcDbEntity
  8
Layer_1
 62
7
100
AcDbPolyline
 90
21
 70
0
 10
77.235993
 20
168.556910
 30
0.0
 10
77.235993
 20
172.057911
 30
0.0
 10
78.048993
 20
172.057911
 30
0.0
 10
78.048993
 20
177.065910
 30
0.0
 10
77.235993
 20
177.065910
 30
0.0
 10
77.235993
 20
180.566911
 30
0.0
 10
78.048993
 20
180.566911
 30
0.0
 10
78.048993
 20
181.546911
 30
0.0
 10
92.018993
 20
181.546911
 30
0.0
 10
92.018993
 20
180.566911
 30
0.0
 10
92.831993
 20
180.566911
 30
0.0
 10
92.831993
 20
177.065910
 30
0.0
 10
92.018993
 20
177.065910
 30
0.0
 10
92.018993
 20
172.057911
 30
0.0
 10
92.831993
 20
172.057911
 30
0.0
 10
92.831993
 20
168.556910
 30
0.0
 10
92.018993
 20
168.556910
 30
0.0
 10
92.018993
 20
167.576911
 30
0.0
 10
78.048993
 20
167.576911
 30
0.0
 10
78.048993
 20
168.556910
 30
0.0
 10
77.235993
 20
168.556910
 30
0.0
  0
LWPOLYLINE
  5
104
100
AcDbEntity
  8
Layer_1
 62
7
100
AcDbPolyline
 90
21
 70
0
 10
96.235991
 20
116.556910
 30
0.0
 10
96.235991
 20
120.057910
 30
0.0
 10
97.048992
 20
120.057910
 30
0.0
 10
97.048992
 20
125.065910
 30
0.0
 10
96.235991
 20
125.065910
 30
0.0
 10
96.235991
 20
128.566910
 30
0.0
 10
97.048992
 20
128.566910
 30
0.0
 10
97.048992
 20
129.546910
 30
0.0
 10
111.018992
 20
129.546910
 30
0.0
 10
111.018992
 20
128.566910
 30
0.0
 10
111.831992
 20
128.566910
 30
0.0
 10
111.831992
 20
125.065910
 30
0.0
 10
111.018992
 20
125.065910
 30
0.0
 10
111.018992
 20
120.057910
 30
0.0
 10
111.831992
 20
120.057910
 30
0.0
 10
111.831992
 20
116.556910
 30
0.0
 10
111.018992
 20
116.556910
 30
0.0
 10
111.018992
 20
115.576910
 30
0.0
 10
97.048992
 20
115.576910
 30
0.0
 10
97.048992
 20
116.556910
 30
0.0
 10
96.235991
 20
116.556910
 30
0.0
  0
LWPOLYLINE
  5
105
100
AcDbEntity
  8
Layer_1
 62
7
100
AcDbPolyline
 90
21
 70
0
 10
96.235991
 20
135.556911
 30
0.0
 10
96.235991
 20
139.057912
 30
0.0
 10
97.048992
 20
139.057912
 30
0.0
 10
97.048992
 20
144.065911
 30
0.0
 10
96.235991
 20
144.065911
 30
0.0
 10
96.235991
 20
147.566912
 30
0.0
 10
97.048992
 20
147.566912
 30
0.0
 10
97.048992
 20
148.546912
 30
0.0
 10
111.018992
 20
148.546912
 30
0.0
 10
111.018992
 20
147.566912
 30
0.0
 10
111.831992
 20
147.566912
 30
0.0
 10
111.831992
 20
144.065911
 30
0.0
 10
111.018992
 20
144.065911
 30
0.0
 10
111.018992
 20
139.057912
 30
0.0
 10
111.831992
 20
139.057912
 30
0.0
 10
111.831992
 20
135.556911
 30
0.0
 10
111.018992
 20
135.556911
 30
0.0
 10
111.018992
 20
134.576912
 30
0.0
 10
97.048992
 20
134.576912
 30
0.0
 10
97.048992
 20
135.556911
 30
0.0
 10
96.235991
 20
135.556911
 30
0.0
  0
LWPOLYLINE
  5
106
100
AcDbEntity
  8
Layer_1
 62
7
100
AcDbPolyline
 90
21
 70
0
 10
96.235991
 20
154.556910
 30
0.0
 10
96.235991
 20
158.057911
 30
0.0
 10
97.048992
 20
158.057911
 30
0.0
 10
97.048992
 20
163.065910
 30
0.0
 10
96.235991
 20
163.065910
 30
0.0
 10
96.235991
 20
166.566911
 30
0.0
 10
97.048992
 20
166.566911
 30
0.0
 10
97.048992
 20
167.546910
 30
0.0
 10
111.018992
 20
167.546910
 30
0.0
 10
111.018992
 20
166.566911
 30
0.0
 10
111.831992
 20
166.566911
 30
0.0
 10
111.831992
 20
163.065910
 30
0.0
 10
111.018992
 20
163.065910
 30
0.0
 10
111.018992
 20
158.057911
 30
0.0
 10
111.831992
 20
158.057911
 30
0.0
 10
111.831992
 20
154.556910
 30
0.0
 10
111.018992
 20
154.556910
 30
0.0
 10
111.018992
 20
153.576910
 30
0.0
 10
97.048992
 20
153.576910
 30
0.0
 10
97.048992
 20
154.556910
 30
0.0
 10
96.235991
 20
154.556910
 30
0.0
  0
LWPOLYLINE
  5
107
100
AcDbEntity
  8
Layer_1
 62
7
100
AcDbPolyline
 90
21
 70
0
 10
96.235991
 20
173.556912
 30
0.0
 10
96.235991
 20
177.057912
 30
0.0
 10
97.048992
 20
177.057912
 30
0.0
 10
97.048992
 20
182.065912
 30
0.0
 10
96.235991
 20
182.065912
 30
0.0
 10
96.235991
 20
185.566912
 30
0.0
 10
97.048992
 20
185.566912
 30
0.0
 10
97.048992
 20
186.546912
 30
0.0
 10
111.018992
 20
186.546912
 30
0.0
 10
111.018992
 20
185.566912
 30
0.0
 10
111.831992
 20
185.566912
 30
0.0
 10
111.831992
 20
182.065912
 30
0.0
 10
111.018992
 20
182.065912
 30
0.0
 10
111.018992
 20
177.057912
 30
0.0
 10
111.831992
 20
177.057912
 30
0.0
 10
111.831992
 20
173.556912
 30
0.0
 10
111.018992
 20
173.556912
 30
0.0
 10
111.018992
 20
172.576912
 30
0.0
 10
97.048992
 20
172.576912
 30
0.0
 10
97.048992
 20
173.556912
 30
0.0
 10
96.235991
 20
173.556912
 30
0.0
  0
LWPOLYLINE
  5
108
100
AcDbEntity
  8
Layer_1
 62
7
100
AcDbPolyline
 90
21
 70
0
 10
115.235993
 20
122.556912
 30
0.0
 10
115.235993
 20
126.057913
 30
0.0
 10
116.048993
 20
126.057913
 30
0.0
 10
116.048993
 20
131.065912
 30
0.0
 10
115.235993
 20
131.065912
 30
0.0
 10
115.235993
 20
134.566913
 30
0.0
 10
116.048993
 20
134.566913
 30
0.0
 10
116.048993
 20
135.546912
 30
0.0
 10
130.018993
 20
135.546912
 30
0.0
 10
130.018993
 20
134.566913
 30
0.0
 10
130.831994
 20
134.566913
 30
0.0
 10
130.831994
 20
131.065912
 30
0.0
 10
130.018993
 20
131.065912
 30
0.0
 10
130.018993
 20
126.057913
 30
0.0
 10
130.831994
 20
126.057913
 30
0.0
 10
130.831994
 20
122.556912
 30
0.0
 10
130.018993
 20
122.556912
 30
0.0
 10
130.018993
 20
121.576912
 30
0.0
 10
116.048993
 20
121.576912
 30
0.0
 10
116.048993
 20
122.556912
 30
0.0
 10
115.235993
 20
122.556912
 30
0.0
  0
LWPOLYLINE
  5
109
100
AcDbEntity
  8
Layer_1
 62
7
100
AcDbPolyline
 90
21
 70
0
 10
115.235993
 20
141.556911
 30
0.0
 10
115.235993
 20
145.057911
 30
0.0
 10
116.048993
 20
145.057911
 30
0.0
 10
116.048993
 20
150.065911
 30
0.0
 10
115.235993
 20
150.065911
 30
0.0
 10
115.235993
 20
153.566911
 30
0.0
 10
116.048993
 20
153.566911
 30
0.0
 10
116.048993
 20
154.546911
 30
0.0
 10
130.018993
 20
154.546911
 30
0.0
 10
130.018993
 20
153.566911
 30
0.0
 10
130.831994
 20
153.566911
 30
0.0
 10
130.831994
 20
150.065911
 30
0.0
 10
130.018993
 20
150.065911
 30
0.0
 10
130.018993
 20
145.057911
 30
0.0
 10
130.831994
 20
145.057911
 30
0.0
 10
130.831994
 20
141.556911
 30
0.0
 10
130.018993
 20
141.556911
 30
0.0
 10
130.018993
 20
140.576911
 30
0.0
 10
116.048993
 20
140.576911
 30
0.0
 10
116.048993
 20
141.556911
 30
0.0
 10
115.235993
 20
141.556911
 30
0.0
  0
LWPOLYLINE
  5
10a
100
AcDbEntity
  8
Layer_1
 62
7
100
AcDbPolyline
 90
21
 70
0
 10
115.235993
 20
160.556912
 30
0.0
 10
115.235993
 20
164.057910
 30
0.0
 10
116.048993
 20
164.057910
 30
0.0
 10
116.048993
 20
169.065912
 30
0.0
 10
115.235993
 20
169.065912
 30
0.0
 10
115.235993
 20
172.566910
 30
0.0
 10
116.048993
 20
172.566910
 30
0.0
 10
116.048993
 20
173.546912
 30
0.0
 10
130.018993
 20
173.546912
 30
0.0
 10
130.018993
 20
172.566910
 30
0.0
 10
130.831994
 20
172.566910
 30
0.0
 10
130.831994
 20
169.065912
 30
0.0
 10
130.018993
 20
169.065912
 30
0.0
 10
130.018993
 20
164.057910
 30
0.0
 10
130.831994
 20
164.057910
 30
0.0
 10
130.831994
 20
160.556912
 30
0.0
 10
130.018993
 20
160.556912
 30
0.0
 10
130.018993
 20
159.576912
 30
0.0
 10
116.048993
 20
159.576912
 30
0.0
 10
116.048993
 20
160.556912
 30
0.0
 10
115.235993
 20
160.556912
 30
0.0
  0
LWPOLYLINE
  5
10b
100
AcDbEntity
  8
Layer_1
 62
7
100
AcDbPolyline
 90
21
 70
0
 10
115.235993
 20
179.556911
 30
0.0
 10
115.235993
 20
183.057911
 30
0.0
 10
116.048993
 20
183.057911
 30
0.0
 10
116.048993
 20
188.065911
 30
0.0
 10
115.235993
 20
188.065911
 30
0.0
 10
115.235993
 20
191.566911
 30
0.0
 10
116.048993
 20
191.566911
 30
0.0
 10
116.048993
 20
192.546911
 30
0.0
 10
130.018993
 20
192.546911
 30
0.0
 10
130.018993
 20
191.566911
 30
0.0
 10
130.831994
 20
191.566911
 30
0.0
 10
130.831994
 20
188.065911
 30
0.0
 10
130.018993
 20
188.065911
 30
0.0
 10
130.018993
 20
183.057911
 30
0.0
 10
130.831994
 20
183.057911
 30
0.0
 10
130.831994
 20
179.556911
 30
0.0
 10
130.018993
 20
179.556911
 30
0.0
 10
130.018993
 20
178.576911
 30
0.0
 10
116.048993
 20
178.576911
 30
0.0
 10
116.048993
 20
179.556911
 30
0.0
 10
115.235993
 20
179.556911
 30
0.0
  0
LWPOLYLINE
  5
10c
100
AcDbEntity
  8
Layer_1
 62
7
100
AcDbPolyline
 90
21
 70
0
 10
134.235992
 20
117.556911
 30
0.0
 10
134.235992
 20
121.057911
 30
0.0
 10
135.048992
 20
121.057911
 30
0.0
 10
135.048992
 20
126.065911
 30
0.0
 10
134.235992
 20
126.065911
 30
0.0
 10
134.235992
 20
129.566911
 30
0.0
 10
135.048992
 20
129.566911
 30
0.0
 10
135.048992
 20
130.546911
 30
0.0
 10
149.018992
 20
130.546911
 30
0.0
 10
149.018992
 20
129.566911
 30
0.0
 10
149.831992
 20
129.566911
 30
0.0
 10
149.831992
 20
126.065911
 30
0.0
 10
149.018992
 20
126.065911
 30
0.0
 10
149.018992
 20
121.057911
 30
0.0
 10
149.831992
 20
121.057911
 30
0.0
 10
149.831992
 20
117.556911
 30
0.0
 10
149.018992
 20
117.556911
 30
0.0
 10
149.018992
 20
116.576911
 30
0.0
 10
135.048992
 20
116.576911
 30
0.0
 10
135.048992
 20
117.556911
 30
0.0
 10
134.235992
 20
117.556911
 30
0.0
  0
LWPOLYLINE
  5
10d
100
AcDbEntity
  8
Layer_1
 62
7
100
AcDbPolyline
 90
21
 70
0
 10
134.235992
 20
136.556912
 30
0.0
 10
134.235992
 20
140.057910
 30
0.0
 10
135.048992
 20
140.057910
 30
0.0
 10
135.048992
 20
145.065912
 30
0.0
 10
134.235992
 20
145.065912
 30
0.0
 10
134.235992
 20
148.566910
 30
0.0
 10
135.048992
 20
148.566910
 30
0.0
 10
135.048992
 20
149.546912
 30
0.0
 10
149.018992
 20
149.546912
 30
0.0
 10
149.018992
 20
148.566910
 30
0.0
 10
149.831992
 20
148.566910
 30
0.0
 10
149.831992
 20
145.065912
 30
0.0
 10
149.018992
 20
145.065912
 30
0.0
 10
149.018992
 20
140.057910
 30
0.0
 10
149.831992
 20
140.057910
 30
0.0
 10
149.831992
 20
136.556912
 30
0.0
 10
149.018992
 20
136.556912
 30
0.0
 10
149.018992
 20
135.576912
 30
0.0
 10
135.048992
 20
135.576912
 30
0.0
 10
135.048992
 20
136.556912
 30
0.0
 10
134.235992
 20
136.556912
 30
0.0
  0
LWPOLYLINE
  5
10e
100
AcDbEntity
  8
Layer_1
 62
7
100
AcDbPolyline
 90
21
 70
0
 10
134.235992
 20
155.556911
 30
0.0
 10
134.235992
 20
159.057911
 30
0.0
 10
135.048992
 20
159.057911
 30
0.0
 10
135.048992
 20
164.065911
 30
0.0
 10
134.235992
 20
164.065911
 30
0.0
 10
134.235992
 20
167.566911
 30
0.0
 10
135.048992
 20
167.566911
 30
0.0
 10
135.048992
 20
168.546911
 30
0.0
 10
149.018992
 20
168.546911
 30
0.0
 10
149.018992
 20
167.566911
 30
0.0
 10
149.831992
 20
167.566911
 30
0.0
 10
149.831992
 20
164.065911
 30
0.0
 10
149.018992
 20
164.065911
 30
0.0
 10
149.018992
 20
159.057911
 30
0.0
 10
149.831992
 20
159.057911
 30
0.0
 10
149.831992
 20
155.556911
 30
0.0
 10
149.018992
 20
155.556911
 30
0.0
 10
149.018992
 20
154.576911
 30
0.0
 10
135.048992
 20
154.576911
 30
0.0
 10
135.048992
 20
155.556911
 30
0.0
 10
134.235992
 20
155.556911
 30
0.0
  0
LWPOLYLINE
  5
10f
100
AcDbEntity
  8
Layer_1
 62
7
100
AcDbPolyline
 90
21
 70
0
 10
134.235992
 20
174.556912
 30
0.0
 10
134.235992
 20
178.057910
 30
0.0
 10
135.048992
 20
178.057910
 30
0.0
 10
135.048992
 20
183.065912
 30
0.0
 10
134.235992
 20
183.065912
 30
0.0
 10
134.235992
 20
186.566910
 30
0.0
 10
135.048992
 20
186.566910
 30
0.0
 10
135.048992
 20
187.546910
 30
0.0
 10
149.018992
 20
187.546910
 30
0.0
 10
149.018992
 20
186.566910
 30
0.0
 10
149.831992
 20
186.566910
 30
0.0
 10
149.831992
 20
183.065912
 30
0.0
 10
149.018992
 20
183.065912
 30
0.0
 10
149.018992
 20
178.057910
 30
0.0
 10
149.831992
 20
178.057910
 30
0.0
 10
149.831992
 20
174.556912
 30
0.0
 10
149.018992
 20
174.556912
 30
0.0
 10
149.018992
 20
173.576910
 30
0.0
 10
135.048992
 20
173.576910
 30
0.0
 10
135.048992
 20
174.556912
 30
0.0
 10
134.235992
 20
174.556912
 30
0.0
  0
LWPOLYLINE
  5
110
100
AcDbEntity
  8
Layer_1
 62
7
100
AcDbPolyline
 90
21
 70
0
 10
153.235993
 20
114.556911
 30
0.0
 10
153.235993
 20
118.057912
 30
0.0
 10
154.048993
 20
118.057912
 30
0.0
 10
154.048993
 20
123.065911
 30
0.0
 10
153.235993
 20
123.065911
 30
0.0
 10
153.235993
 20
126.566912
 30
0.0
 10
154.048993
 20
126.566912
 30
0.0
 10
154.048993
 20
127.546911
 30
0.0
 10
168.018993
 20
127.546911
 30
0.0
 10
168.018993
 20
126.566912
 30
0.0
 10
168.831994
 20
126.566912
 30
0.0
 10
168.831994
 20
123.065911
 30
0.0
 10
168.018993
 20
123.065911
 30
0.0
 10
168.018993
 20
118.057912
 30
0.0
 10
168.831994
 20
118.057912
 30
0.0
 10
168.831994
 20
114.556911
 30
0.0
 10
168.018993
 20
114.556911
 30
0.0
 10
168.018993
 20
113.576911
 30
0.0
 10
154.048993
 20
113.576911
 30
0.0
 10
154.048993
 20
114.556911
 30
0.0
 10
153.235993
 20
114.556911
 30
0.0
  0
LWPOLYLINE
  5
111
100
AcDbEntity
  8
Layer_1
 62
7
100
AcDbPolyline
 90
21
 70
0
 10
153.235993
 20
133.556910
 30
0.0
 10
153.235993
 20
137.057910
 30
0.0
 10
154.048993
 20
137.057910
 30
0.0
 10
154.048993
 20
142.065910
 30
0.0
 10
153.235993
 20
142.065910
 30
0.0
 10
153.235993
 20
145.566910
 30
0.0
 10
154.048993
 20
145.566910
 30
0.0
 10
154.048993
 20
146.546910
 30
0.0
 10
168.018993
 20
146.546910
 30
0.0
 10
168.018993
 20
145.566910
 30
0.0
 10
168.831994
 20
145.566910
 30
0.0
 10
168.831994
 20
142.065910
 30
0.0
 10
168.018993
 20
142.065910
 30
0.0
 10
168.018993
 20
137.057910
 30
0.0
 10
168.831994
 20
137.057910
 30
0.0
 10
168.831994
 20
133.556910
 30
0.0
 10
168.018993
 20
133.556910
 30
0.0
 10
168.018993
 20
132.576910
 30
0.0
 10
154.048993
 20
132.576910
 30
0.0
 10
154.048993
 20
133.556910
 30
0.0
 10
153.235993
 20
133.556910
 30
0.0
  0
LWPOLYLINE
  5
112
100
AcDbEntity
  8
Layer_1
 62
7
100
AcDbPolyline
 90
21
 70
0
 10
153.235993
 20
152.556911
 30
0.0
 10
153.235993
 20
156.057912
 30
0.0
 10
154.048993
 20
156.057912
 30
0.0
 10
154.048993
 20
161.065911
 30
0.0
 10
153.235993
 20
161.065911
 30
0.0
 10
153.235993
 20
164.566912
 30
0.0
 10
154.048993
 20
164.566912
 30
0.0
 10
154.048993
 20
165.546912
 30
0.0
 10
168.018993
 20
165.546912
 30
0.0
 10
168.018993
 20
164.566912
 30
0.0
 10
168.831994
 20
164.566912
 30
0.0
 10
168.831994
 20
161.065911
 30
0.0
 10
168.018993
 20
161.065911
 30
0.0
 10
168.018993
 20
156.057912
 30
0.0
 10
168.831994
 20
156.057912
 30
0.0
 10
168.831994
 20
152.556911
 30
0.0
 10
168.018993
 20
152.556911
 30
0.0
 10
168.018993
 20
151.576912
 30
0.0
 10
154.048993
 20
151.576912
 30
0.0
 10
154.048993
 20
152.556911
 30
0.0
 10
153.235993
 20
152.556911
 30
0.0
  0
LWPOLYLINE
  5
113
100
AcDbEntity
  8
Layer_1
 62
7
100
AcDbPolyline
 90
21
 70
0
 10
153.235993
 20
171.556910
 30
0.0
 10
153.235993
 20
175.057910
 30
0.0
 10
154.048993
 20
175.057910
 30
0.0
 10
154.048993
 20
180.065910
 30
0.0
 10
153.235993
 20
180.065910
 30
0.0
 10
153.235993
 20
183.566910
 30
0.0
 10
154.048993
 20
183.566910
 30
0.0
 10
154.048993
 20
184.546910
 30
0.0
 10
168.018993
 20
184.546910
 30
0.0
 10
168.018993
 20
183.566910
 30
0.0
 10
168.831994
 20
183.566910
 30
0.0
 10
168.831994
 20
180.065910
 30
0.0
 10
168.018993
 20
180.065910
 30
0.0
 10
168.018993
 20
175.057910
 30
0.0
 10
168.831994
 20
175.057910
 30
0.0
 10
168.831994
 20
171.556910
 30
0.0
 10
168.018993
 20
171.556910
 30
0.0
 10
168.018993
 20
170.576910
 30
0.0
 10
154.048993
 20
170.576910
 30
0.0
 10
154.048993
 20
171.556910
 30
0.0
 10
153.235993
 20
171.556910
 30
0.0
  0
LWPOLYLINE
  5
114
100
AcDbEntity
  8
Layer_1
 62
7
100
AcDbPolyline
 90
51
 70
0
 10
172.590993
 20
107.504911
 30
0.0
 10
172.602988
 20
107.692911
 30
0.0
 10
172.637992
 20
107.877910
 30
0.0
 10
172.695991
 20
108.056910
 30
0.0
 10
172.776992
 20
108.227911
 30
0.0
 10
172.876992
 20
108.386912
 30
0.0
 10
172.997992
 20
108.531913
 30
0.0
 10
173.134994
 20
108.660911
 30
0.0
 10
173.286993
 20
108.770912
 30
0.0
 10
173.451991
 20
108.861912
 30
0.0
 10
173.626992
 20
108.931912
 30
0.0
 10
173.809993
 20
108.977911
 30
0.0
 10
173.996993
 20
109.001900
 30
0.0
 10
174.184993
 20
109.001911
 30
0.0
 10
174.371993
 20
108.977922
 30
0.0
 10
174.554992
 20
108.931912
 30
0.0
 10
174.729992
 20
108.861912
 30
0.0
 10
174.894994
 20
108.770912
 30
0.0
 10
175.046993
 20
108.660911
 30
0.0
 10
175.183992
 20
108.531913
 30
0.0
 10
175.304992
 20
108.386912
 30
0.0
 10
175.404992
 20
108.227911
 30
0.0
 10
175.485992
 20
108.056910
 30
0.0
 10
175.543992
 20
107.877910
 30
0.0
 10
175.578993
 20
107.692911
 30
0.0
 10
175.590987
 20
107.504911
 30
0.0
 10
175.578999
 20
107.316912
 30
0.0
 10
175.543992
 20
107.131912
 30
0.0
 10
175.485992
 20
106.952910
 30
0.0
 10
175.404992
 20
106.781912
 30
0.0
 10
175.304992
 20
106.622911
 30
0.0
 10
175.183992
 20
106.477910
 30
0.0
 10
175.046993
 20
106.348912
 30
0.0
 10
174.894994
 20
106.238911
 30
0.0
 10
174.729992
 20
106.147911
 30
0.0
 10
174.554992
 20
106.077911
 30
0.0
 10
174.371993
 20
106.031912
 30
0.0
 10
174.184993
 20
106.007923
 30
0.0
 10
173.996993
 20
106.007912
 30
0.0
 10
173.809993
 20
106.031901
 30
0.0
 10
173.626992
 20
106.077911
 30
0.0
 10
173.451991
 20
106.147911
 30
0.0
 10
173.286993
 20
106.238911
 30
0.0
 10
173.134994
 20
106.348912
 30
0.0
 10
172.997992
 20
106.477910
 30
0.0
 10
172.876992
 20
106.622911
 30
0.0
 10
172.776992
 20
106.781912
 30
0.0
 10
172.695991
 20
106.952910
 30
0.0
 10
172.637992
 20
107.131912
 30
0.0
 10
172.602993
 20
107.316912
 30
0.0
 10
172.590999
 20
107.504911
 30
0.0
  0
LWPOLYLINE
  5
115
100
AcDbEntity
  8
Layer_1
 62
7
100
AcDbPolyline
 90
51
 70
0
 10
172.590993
 20
190.618910
 30
0.0
 10
172.602988
 20
190.806912
 30
0.0
 10
172.637992
 20
190.991912
 30
0.0
 10
172.695991
 20
191.170911
 30
0.0
 10
172.776992
 20
191.341910
 30
0.0
 10
172.876992
 20
191.500911
 30
0.0
 10
172.997992
 20
191.645911
 30
0.0
 10
173.134994
 20
191.774912
 30
0.0
 10
173.286993
 20
191.884911
 30
0.0
 10
173.451991
 20
191.975911
 30
0.0
 10
173.626992
 20
192.045910
 30
0.0
 10
173.809993
 20
192.091912
 30
0.0
 10
173.996993
 20
192.115901
 30
0.0
 10
174.184993
 20
192.115910
 30
0.0
 10
174.371993
 20
192.091921
 30
0.0
 10
174.554992
 20
192.045910
 30
0.0
 10
174.729992
 20
191.975911
 30
0.0
 10
174.894994
 20
191.884911
 30
0.0
 10
175.046993
 20
191.774912
 30
0.0
 10
175.183992
 20
191.645911
 30
0.0
 10
175.304992
 20
191.500911
 30
0.0
 10
175.404992
 20
191.341910
 30
0.0
 10
175.485992
 20
191.170911
 30
0.0
 10
175.543992
 20
190.991912
 30
0.0
 10
175.578993
 20
190.806912
 30
0.0
 10
175.590987
 20
190.618910
 30
0.0
 10
175.578999
 20
190.430911
 30
0.0
 10
175.543992
 20
190.245911
 30
0.0
 10
175.485992
 20
190.066912
 30
0.0
 10
175.404992
 20
189.895910
 30
0.0
 10
175.304992
 20
189.736912
 30
0.0
 10
175.183992
 20
189.591912
 30
0.0
 10
175.046993
 20
189.462911
 30
0.0
 10
174.894994
 20
189.352912
 30
0.0
 10
174.729992
 20
189.261912
 30
0.0
 10
174.554992
 20
189.191910
 30
0.0
 10
174.371993
 20
189.145910
 30
0.0
 10
174.184993
 20
189.121922
 30
0.0
 10
173.996993
 20
189.121910
 30
0.0
 10
173.809993
 20
189.145899
 30
0.0
 10
173.626992
 20
189.191910
 30
0.0
 10
173.451991
 20
189.261912
 30
0.0
 10
173.286993
 20
189.352912
 30
0.0
 10
173.134994
 20
189.462911
 30
0.0
 10
172.997992
 20
189.591912
 30
0.0
 10
172.876992
 20
189.736912
 30
0.0
 10
172.776992
 20
189.895910
 30
0.0
 10
172.695991
 20
190.066912
 30
0.0
 10
172.637992
 20
190.245911
 30
0.0
 10
172.602993
 20
190.430911
 30
0.0
 10
172.590999
 20
190.618910
 30
0.0
  0
LWPOLYLINE
  5
116
100
AcDbEntity
  8
Layer_1
 62
7
100
AcDbPolyline
 90
21
 70
0
 10
33.237596
 20
100.300405
 30
0.0
 10
31.487096
 20
103.332360
 30
0.0
 10
32.191178
 20
103.738856
 30
0.0
 10
29.687176
 20
108.075915
 30
0.0
 10
28.983099
 20
107.669416
 30
0.0
 10
27.232597
 20
110.701372
 30
0.0
 10
27.936676
 20
111.107870
 30
0.0
 10
27.446672
 20
111.956575
 30
0.0
 10
39.545051
 20
118.941575
 30
0.0
 10
40.035051
 20
118.092870
 30
0.0
 10
40.739133
 20
118.499369
 30
0.0
 10
42.489631
 20
115.467416
 30
0.0
 10
41.785548
 20
115.060915
 30
0.0
 10
44.289554
 20
110.723856
 30
0.0
 10
44.993628
 20
111.130358
 30
0.0
 10
46.744131
 20
108.098402
 30
0.0
 10
46.040054
 20
107.691906
 30
0.0
 10
46.530048
 20
106.843199
 30
0.0
 10
34.431676
 20
99.858202
 30
0.0
 10
33.941676
 20
100.706903
 30
0.0
 10
33.237599
 20
100.300408
 30
0.0
  0
LWPOLYLINE
  5
117
100
AcDbEntity
  8
Layer_1
 62
7
100
AcDbPolyline
 90
21
 70
0
 10
49.692077
 20
109.800405
 30
0.0
 10
47.941577
 20
112.832358
 30
0.0
 10
48.645657
 20
113.238857
 30
0.0
 10
46.141654
 20
117.575916
 30
0.0
 10
45.437577
 20
117.169417
 30
0.0
 10
43.687077
 20
120.201367
 30
0.0
 10
44.391162
 20
120.607868
 30
0.0
 10
43.901157
 20
121.456578
 30
0.0
 10
55.999530
 20
128.441573
 30
0.0
 10
56.489532
 20
127.592871
 30
0.0
 10
57.193609
 20
127.999367
 30
0.0
 10
58.944112
 20
124.967411
 30
0.0
 10
58.240033
 20
124.560916
 30
0.0
 10
60.744032
 20
120.223860
 30
0.0
 10
61.448109
 20
120.630356
 30
0.0
 10
63.198612
 20
117.598406
 30
0.0
 10
62.494533
 20
117.191904
 30
0.0
 10
62.984532
 20
116.343200
 30
0.0
 10
50.886157
 20
109.358200
 30
0.0
 10
50.396157
 20
110.206904
 30
0.0
 10
49.692077
 20
109.800403
 30
0.0
  0
LWPOLYLINE
  5
118
100
AcDbEntity
  8
Layer_1
 62
7
100
AcDbPolyline
 90
51
 70
0
 10
66.953900
 20
187.347523
 30
0.0
 10
66.965895
 20
187.535525
 30
0.0
 10
67.000899
 20
187.720524
 30
0.0
 10
67.058898
 20
187.899524
 30
0.0
 10
67.139899
 20
188.070522
 30
0.0
 10
67.239899
 20
188.229524
 30
0.0
 10
67.360899
 20
188.374524
 30
0.0
 10
67.497898
 20
188.503525
 30
0.0
 10
67.649900
 20
188.613524
 30
0.0
 10
67.814898
 20
188.704523
 30
0.0
 10
67.989899
 20
188.774523
 30
0.0
 10
68.172900
 20
188.820525
 30
0.0
 10
68.359901
 20
188.844514
 30
0.0
 10
68.547900
 20
188.844522
 30
0.0
 10
68.734900
 20
188.820534
 30
0.0
 10
68.917899
 20
188.774523
 30
0.0
 10
69.092899
 20
188.704523
 30
0.0
 10
69.257898
 20
188.613524
 30
0.0
 10
69.409900
 20
188.503525
 30
0.0
 10
69.546899
 20
188.374524
 30
0.0
 10
69.667899
 20
188.229524
 30
0.0
 10
69.767899
 20
188.070522
 30
0.0
 10
69.848899
 20
187.899524
 30
0.0
 10
69.906899
 20
187.720524
 30
0.0
 10
69.941900
 20
187.535525
 30
0.0
 10
69.953894
 20
187.347523
 30
0.0
 10
69.941906
 20
187.159523
 30
0.0
 10
69.906899
 20
186.974524
 30
0.0
 10
69.848899
 20
186.795524
 30
0.0
 10
69.767899
 20
186.624523
 30
0.0
 10
69.667899
 20
186.465525
 30
0.0
 10
69.546899
 20
186.320524
 30
0.0
 10
69.409900
 20
186.191524
 30
0.0
 10
69.257898
 20
186.081525
 30
0.0
 10
69.092899
 20
185.990525
 30
0.0
 10
68.917899
 20
185.920522
 30
0.0
 10
68.734900
 20
185.874523
 30
0.0
 10
68.547900
 20
185.850534
 30
0.0
 10
68.359901
 20
185.850523
 30
0.0
 10
68.172900
 20
185.874512
 30
0.0
 10
67.989899
 20
185.920522
 30
0.0
 10
67.814898
 20
185.990525
 30
0.0
 10
67.649900
 20
186.081525
 30
0.0
 10
67.497898
 20
186.191524
 30
0.0
 10
67.360899
 20
186.320524
 30
0.0
 10
67.239899
 20
186.465525
 30
0.0
 10
67.139899
 20
186.624523
 30
0.0
 10
67.058898
 20
186.795524
 30
0.0
 10
67.000899
 20
186.974524
 30
0.0
 10
66.965901
 20
187.159523
 30
0.0
 10
66.953906
 20
187.347523
 30
0.0
  0
LWPOLYLINE
  5
119
100
AcDbEntity
  8
Layer_1
 62
7
100
AcDbPolyline
 90
51
 70
0
 10
36.317614
 20
87.400713
 30
0.0
 10
36.329609
 20
87.588715
 30
0.0
 10
36.364613
 20
87.773715
 30
0.0
 10
36.422612
 20
87.952714
 30
0.0
 10
36.503613
 20
88.123712
 30
0.0
 10
36.603613
 20
88.282714
 30
0.0
 10
36.724613
 20
88.427714
 30
0.0
 10
36.861612
 20
88.556715
 30
0.0
 10
37.013614
 20
88.666714
 30
0.0
 10
37.178612
 20
88.757713
 30
0.0
 10
37.353613
 20
88.827713
 30
0.0
 10
37.536614
 20
88.873715
 30
0.0
 10
37.723614
 20
88.897704
 30
0.0
 10
37.911614
 20
88.897713
 30
0.0
 10
38.098614
 20
88.873724
 30
0.0
 10
38.281613
 20
88.827713
 30
0.0
 10
38.456613
 20
88.757713
 30
0.0
 10
38.621612
 20
88.666714
 30
0.0
 10
38.773614
 20
88.556715
 30
0.0
 10
38.910613
 20
88.427714
 30
0.0
 10
39.031613
 20
88.282714
 30
0.0
 10
39.131613
 20
88.123712
 30
0.0
 10
39.212613
 20
87.952714
 30
0.0
 10
39.270613
 20
87.773715
 30
0.0
 10
39.305614
 20
87.588715
 30
0.0
 10
39.317608
 20
87.400713
 30
0.0
 10
39.305619
 20
87.212713
 30
0.0
 10
39.270613
 20
87.027714
 30
0.0
 10
39.212613
 20
86.848714
 30
0.0
 10
39.131613
 20
86.677713
 30
0.0
 10
39.031613
 20
86.518715
 30
0.0
 10
38.910613
 20
86.373715
 30
0.0
 10
38.773614
 20
86.244714
 30
0.0
 10
38.621612
 20
86.134715
 30
0.0
 10
38.456613
 20
86.043715
 30
0.0
 10
38.281613
 20
85.973712
 30
0.0
 10
38.098614
 20
85.927713
 30
0.0
 10
37.911614
 20
85.903724
 30
0.0
 10
37.723614
 20
85.903713
 30
0.0
 10
37.536614
 20
85.927702
 30
0.0
 10
37.353613
 20
85.973712
 30
0.0
 10
37.178612
 20
86.043715
 30
0.0
 10
37.013614
 20
86.134715
 30
0.0
 10
36.861612
 20
86.244714
 30
0.0
 10
36.724613
 20
86.373715
 30
0.0
 10
36.603613
 20
86.518715
 30
0.0
 10
36.503613
 20
86.677713
 30
0.0
 10
36.422612
 20
86.848714
 30
0.0
 10
36.364613
 20
87.027714
 30
0.0
 10
36.329614
 20
87.212713
 30
0.0
 10
36.317620
 20
87.400713
 30
0.0
  0
LWPOLYLINE
  5
11a
100
AcDbEntity
  8
Layer_1
 62
7
100
AcDbPolyline
 90
51
 70
0
 10
17.548872
 20
121.016371
 30
0.0
 10
17.560867
 20
121.204373
 30
0.0
 10
17.595871
 20
121.389373
 30
0.0
 10
17.653870
 20
121.568372
 30
0.0
 10
17.734871
 20
121.739371
 30
0.0
 10
17.834871
 20
121.898372
 30
0.0
 10
17.955871
 20
122.043372
 30
0.0
 10
18.092870
 20
122.172373
 30
0.0
 10
18.244872
 20
122.282372
 30
0.0
 10
18.409870
 20
122.373372
 30
0.0
 10
18.584871
 20
122.443371
 30
0.0
 10
18.767872
 20
122.489373
 30
0.0
 10
18.954872
 20
122.513362
 30
0.0
 10
19.142872
 20
122.513371
 30
0.0
 10
19.329872
 20
122.489382
 30
0.0
 10
19.512871
 20
122.443371
 30
0.0
 10
19.687871
 20
122.373372
 30
0.0
 10
19.852870
 20
122.282372
 30
0.0
 10
20.004872
 20
122.172373
 30
0.0
 10
20.141871
 20
122.043372
 30
0.0
 10
20.262871
 20
121.898372
 30
0.0
 10
20.362871
 20
121.739371
 30
0.0
 10
20.443871
 20
121.568372
 30
0.0
 10
20.501871
 20
121.389373
 30
0.0
 10
20.536872
 20
121.204373
 30
0.0
 10
20.548866
 20
121.016371
 30
0.0
 10
20.536878
 20
120.828371
 30
0.0
 10
20.501871
 20
120.643372
 30
0.0
 10
20.443871
 20
120.464372
 30
0.0
 10
20.362871
 20
120.293371
 30
0.0
 10
20.262871
 20
120.134373
 30
0.0
 10
20.141871
 20
119.989373
 30
0.0
 10
20.004872
 20
119.860372
 30
0.0
 10
19.852870
 20
119.750373
 30
0.0
 10
19.687871
 20
119.659373
 30
0.0
 10
19.512871
 20
119.589371
 30
0.0
 10
19.329872
 20
119.543371
 30
0.0
 10
19.142872
 20
119.519382
 30
0.0
 10
18.954872
 20
119.519371
 30
0.0
 10
18.767872
 20
119.543360
 30
0.0
 10
18.584871
 20
119.589371
 30
0.0
 10
18.409870
 20
119.659373
 30
0.0
 10
18.244872
 20
119.750373
 30
0.0
 10
18.092870
 20
119.860372
 30
0.0
 10
17.955871
 20
119.989373
 30
0.0
 10
17.834871
 20
120.134373
 30
0.0
 10
17.734871
 20
120.293371
 30
0.0
 10
17.653870
 20
120.464372
 30
0.0
 10
17.595871
 20
120.643372
 30
0.0
 10
17.560873
 20
120.828371
 30
0.0
 10
17.548878
 20
121.016371
 30
0.0
  0
LWPOLYLINE
  5
11b
100
AcDbEntity
  8
Layer_1
 62
7
100
AcDbPolyline
 90
51
 70
0
 10
68.252487
 20
106.449587
 30
0.0
 10
68.264481
 20
106.637589
 30
0.0
 10
68.299485
 20
106.822588
 30
0.0
 10
68.357485
 20
107.001588
 30
0.0
 10
68.438485
 20
107.172586
 30
0.0
 10
68.538485
 20
107.331588
 30
0.0
 10
68.659485
 20
107.476588
 30
0.0
 10
68.796484
 20
107.605589
 30
0.0
 10
68.948486
 20
107.715588
 30
0.0
 10
69.113485
 20
107.806587
 30
0.0
 10
69.288485
 20
107.876587
 30
0.0
 10
69.471486
 20
107.922589
 30
0.0
 10
69.658487
 20
107.946578
 30
0.0
 10
69.846486
 20
107.946586
 30
0.0
 10
70.033487
 20
107.922598
 30
0.0
 10
70.216485
 20
107.876587
 30
0.0
 10
70.391486
 20
107.806587
 30
0.0
 10
70.556484
 20
107.715588
 30
0.0
 10
70.708486
 20
107.605589
 30
0.0
 10
70.845485
 20
107.476588
 30
0.0
 10
70.966485
 20
107.331588
 30
0.0
 10
71.066485
 20
107.172586
 30
0.0
 10
71.147486
 20
107.001588
 30
0.0
 10
71.205485
 20
106.822588
 30
0.0
 10
71.240486
 20
106.637589
 30
0.0
 10
71.252481
 20
106.449587
 30
0.0
 10
71.240492
 20
106.261587
 30
0.0
 10
71.205485
 20
106.076588
 30
0.0
 10
71.147486
 20
105.897588
 30
0.0
 10
71.066485
 20
105.726587
 30
0.0
 10
70.966485
 20
105.567589
 30
0.0
 10
70.845485
 20
105.422588
 30
0.0
 10
70.708486
 20
105.293587
 30
0.0
 10
70.556484
 20
105.183589
 30
0.0
 10
70.391486
 20
105.092589
 30
0.0
 10
70.216485
 20
105.022586
 30
0.0
 10
70.033487
 20
104.976587
 30
0.0
 10
69.846486
 20
104.952598
 30
0.0
 10
69.658487
 20
104.952587
 30
0.0
 10
69.471486
 20
104.976576
 30
0.0
 10
69.288485
 20
105.022586
 30
0.0
 10
69.113485
 20
105.092589
 30
0.0
 10
68.948486
 20
105.183589
 30
0.0
 10
68.796484
 20
105.293587
 30
0.0
 10
68.659485
 20
105.422588
 30
0.0
 10
68.538485
 20
105.567589
 30
0.0
 10
68.438485
 20
105.726587
 30
0.0
 10
68.357485
 20
105.897588
 30
0.0
 10
68.299485
 20
106.076588
 30
0.0
 10
68.264487
 20
106.261587
 30
0.0
 10
68.252492
 20
106.449587
 30
0.0
  0
LWPOLYLINE
  5
11c
100
AcDbEntity
  8
Layer_1
 62
7
100
AcDbPolyline
 90
51
 70
0
 10
63.770400
 20
144.547329
 30
0.0
 10
63.782394
 20
144.735331
 30
0.0
 10
63.817398
 20
144.920331
 30
0.0
 10
63.875398
 20
145.099330
 30
0.0
 10
63.956398
 20
145.270329
 30
0.0
 10
64.056398
 20
145.429330
 30
0.0
 10
64.177398
 20
145.574330
 30
0.0
 10
64.314397
 20
145.703331
 30
0.0
 10
64.466399
 20
145.813330
 30
0.0
 10
64.631398
 20
145.904330
 30
0.0
 10
64.806398
 20
145.974329
 30
0.0
 10
64.989400
 20
146.020331
 30
0.0
 10
65.176400
 20
146.044320
 30
0.0
 10
65.364400
 20
146.044329
 30
0.0
 10
65.551400
 20
146.020340
 30
0.0
 10
65.734398
 20
145.974329
 30
0.0
 10
65.909399
 20
145.904330
 30
0.0
 10
66.074397
 20
145.813330
 30
0.0
 10
66.226399
 20
145.703331
 30
0.0
 10
66.363398
 20
145.574330
 30
0.0
 10
66.484398
 20
145.429330
 30
0.0
 10
66.584398
 20
145.270329
 30
0.0
 10
66.665399
 20
145.099330
 30
0.0
 10
66.723398
 20
144.920331
 30
0.0
 10
66.758399
 20
144.735331
 30
0.0
 10
66.770394
 20
144.547329
 30
0.0
 10
66.758405
 20
144.359329
 30
0.0
 10
66.723398
 20
144.174330
 30
0.0
 10
66.665399
 20
143.995330
 30
0.0
 10
66.584398
 20
143.824329
 30
0.0
 10
66.484398
 20
143.665331
 30
0.0
 10
66.363398
 20
143.520331
 30
0.0
 10
66.226399
 20
143.391330
 30
0.0
 10
66.074397
 20
143.281331
 30
0.0
 10
65.909399
 20
143.190331
 30
0.0
 10
65.734398
 20
143.120329
 30
0.0
 10
65.551400
 20
143.074329
 30
0.0
 10
65.364400
 20
143.050340
 30
0.0
 10
65.176400
 20
143.050329
 30
0.0
 10
64.989400
 20
143.074318
 30
0.0
 10
64.806398
 20
143.120329
 30
0.0
 10
64.631398
 20
143.190331
 30
0.0
 10
64.466399
 20
143.281331
 30
0.0
 10
64.314397
 20
143.391330
 30
0.0
 10
64.177398
 20
143.520331
 30
0.0
 10
64.056398
 20
143.665331
 30
0.0
 10
63.956398
 20
143.824329
 30
0.0
 10
63.875398
 20
143.995330
 30
0.0
 10
63.817398
 20
144.174330
 30
0.0
 10
63.782400
 20
144.359329
 30
0.0
 10
63.770406
 20
144.547329
 30
0.0
  0
LWPOLYLINE
  5
11d
100
AcDbEntity
  8
Layer_1
 62
7
100
AcDbPolyline
 90
8
 70
1
 10
179.392738
 20
100.035209
 30
0.0
 10
179.672166
 20
198.673273
 30
0.0
 10
60.077009
 20
197.276134
 30
0.0
 10
60.356437
 20
152.008807
 30
0.0
 10
8.382838
 20
124.345442
 30
0.0
 10
33.531353
 20
75.166123
 30
0.0
 10
78.239823
 20
99.476352
 30
0.0
 10
179.392738
 20
100.035209
 30
0.0
  0
ENDSEC
  0
SECTION
  2
OBJECTS
  0
DICTIONARY
  5
C
330
0
100
AcDbDictionary
  3
ACAD_GROUP
350
D
  3
ACAD_MLINESTYLE
350
17
  0
DICTIONARY
  5
D
330
C
100
AcDbDictionary
  0
DICTIONARY
  5
1A
330
C
100
AcDbDictionary
  0
DICTIONARY
  5
17
330
C
100
AcDbDictionary
  3
STANDARD
350
18
  0
DICTIONARY
  5
19
330
C
100
AcDbDictionary
  0
ENDSEC
  0
EOF
